<?xml version="1.0" encoding="utf-8"?>
<svg xmlns="http://www.w3.org/2000/svg" fill="none" height="100%" overflow="visible" preserveAspectRatio="none" style="display: block;" viewBox="0 0 8.81931 6.61956" width="100%">
<g id="_Repeticin_radial_-25">
<path d="M4.25889 2.2978C5.17889 2.6678 6.15889 2.94781 7.01889 3.44781C7.87889 3.94781 8.63889 4.7378 8.79889 5.7278C8.83889 5.9578 8.82889 6.2278 8.68889 6.4078C8.46889 6.6878 8.01889 6.6678 7.71889 6.4778C7.41889 6.2878 7.21889 5.9778 6.97889 5.7078C6.15889 4.7778 4.92889 4.3578 3.71889 4.0678C2.50889 3.7778 1.26889 3.5878 0.188889 2.9878C0.118889 2.9478 0.0388889 2.8978 0.00888889 2.8278C-0.0111111 2.7578 0.00888889 2.6878 0.00888889 2.6178C0.208889 1.7978 0.248891 -0.472195 1.35889 0.0878048C1.77889 0.297805 2.08889 0.937805 2.44889 1.2478C2.97889 1.7178 3.59889 2.0478 4.24889 2.3078L4.25889 2.2978Z" fill="var(--fill-0, black)" id="Vector"/>
</g>
</svg>