<?xml version="1.0" encoding="utf-8"?>
<svg xmlns="http://www.w3.org/2000/svg" fill="none" height="100%" overflow="visible" preserveAspectRatio="none" style="display: block;" viewBox="0 0 175.974 263.208" width="100%">
<g id="Capa_1">
<path d="M69.9179 124.865C67.242 125.09 64.6588 126.547 63.0691 128.732C61.0291 131.553 60.6317 135.42 61.8107 138.705C62.3935 140.294 63.2943 141.738 64.2746 143.115C69.2423 150.148 75.932 155.803 83.0192 160.69C83.8272 161.246 84.6751 161.802 85.6553 161.961C88.6094 162.425 90.6362 156.73 91.9079 154.703C95.882 148.32 101.949 141.102 102.863 133.394C103.287 129.897 102.28 125.249 99.3528 122.984C96.4252 120.719 91.5635 120.971 88.424 122.653C86.5429 123.659 85.4434 125.183 84.2909 126.904C83.6683 127.831 83.0854 128.705 82.6615 129.752C82.5158 130.096 81.4693 132.387 81.668 132.626C80.33 130.997 79.2835 129.262 77.6674 127.845C76.0512 126.427 74.2894 125.408 72.2493 124.997C71.481 124.851 70.7127 124.812 69.9311 124.878L69.9179 124.865Z" fill="var(--fill-0, black)" id="Vector"/>
<path d="M75.1504 136.202L77.5746 135.857C77.8661 135.817 78.1443 135.976 78.29 136.281L84.5823 148.77C84.7413 149.088 85.0062 149.538 85.4169 149.485C86.7946 149.287 86.2515 141.208 86.0527 139.738C85.8805 138.493 85.7216 137.049 85.3507 135.685C85.2182 135.208 85.4831 134.731 85.907 134.665L87.8676 134.387C88.3312 134.321 88.7419 134.784 88.6757 135.327C88.2385 139.38 87.192 150.214 86.1985 151.922C85.8673 152.505 85.3242 152.849 84.6486 152.955C83.0722 153.18 82.1184 152.055 81.403 150.744C80.1578 148.346 78.9523 145.936 77.7733 143.539C76.7666 141.499 75.7466 139.46 74.6868 137.407C74.4219 136.903 74.6868 136.281 75.1637 136.215L75.1504 136.202Z" fill="var(--fill-0, white)" id="Vector_2"/>
<g clip-path="url(#clip0_0_1455)" id="Capa_1_2">
<g id="_Repeticin_radial_">
<path d="M112.634 113.001C112.903 113.956 113.282 114.893 113.416 115.886C113.549 116.88 113.385 117.959 112.703 118.693C112.542 118.867 112.334 119.027 112.087 119.02C111.736 119.019 111.474 118.645 111.441 118.286C111.407 117.926 111.529 117.584 111.593 117.232C111.828 116.021 111.403 114.782 110.903 113.655C110.402 112.528 109.782 111.422 109.598 110.202C109.59 110.12 109.578 110.029 109.618 109.961C109.661 109.904 109.723 109.87 109.786 109.837C110.556 109.497 112.372 108.132 112.612 109.364C112.705 109.83 112.391 110.463 112.358 110.932C112.305 111.642 112.434 112.328 112.624 113.004L112.634 113.001Z" fill="var(--fill-0, black)" id="Vector_3"/>
</g>
<g id="_Repeticin_radial_-2">
<path d="M107.126 113.258C107.197 114.253 107.372 115.242 107.294 116.237C107.215 117.232 106.831 118.263 106.016 118.832C105.82 118.967 105.585 119.083 105.353 119.028C105.006 118.951 104.835 118.534 104.868 118.182C104.901 117.83 105.096 117.516 105.231 117.181C105.704 116.043 105.557 114.747 105.292 113.535C105.026 112.324 104.666 111.114 104.736 109.888C104.737 109.803 104.747 109.714 104.803 109.662C104.849 109.614 104.928 109.596 104.997 109.582C105.819 109.414 107.888 108.458 107.866 109.699C107.855 110.17 107.428 110.727 107.293 111.18C107.1 111.855 107.078 112.564 107.117 113.262L107.126 113.258Z" fill="var(--fill-0, black)" id="Vector_4"/>
</g>
<g id="_Repeticin_radial_-3">
<path d="M101.678 112.379C101.533 113.366 101.503 114.376 101.218 115.328C100.934 116.281 100.345 117.215 99.4334 117.606C99.2109 117.697 98.9561 117.757 98.7386 117.654C98.4188 117.503 98.3325 117.056 98.4448 116.718C98.5572 116.38 98.8102 116.109 99.0121 115.813C99.7191 114.794 99.8376 113.498 99.8278 112.258C99.8179 111.018 99.7159 109.758 100.042 108.568C100.066 108.485 100.089 108.402 100.158 108.356C100.217 108.314 100.29 108.309 100.366 108.314C101.207 108.319 103.425 107.809 103.14 109.027C103.031 109.491 102.491 109.941 102.27 110.36C101.943 110.988 101.772 111.665 101.671 112.36L101.678 112.379Z" fill="var(--fill-0, black)" id="Vector_5"/>
</g>
<g id="_Repeticin_radial_-4">
<path d="M96.5353 110.37C96.1901 111.302 95.9472 112.282 95.4774 113.162C95.0042 114.034 94.2348 114.82 93.2524 115.014C93.0131 115.057 92.7601 115.063 92.5702 114.919C92.2805 114.704 92.289 114.255 92.4747 113.944C92.6605 113.633 92.956 113.42 93.2192 113.177C94.1169 112.334 94.5053 111.078 94.7619 109.87C95.0185 108.662 95.1727 107.406 95.7356 106.311C95.7718 106.235 95.8207 106.164 95.8926 106.127C95.9585 106.104 96.0379 106.118 96.1045 106.126C96.9343 106.306 99.1951 106.269 98.6773 107.401C98.4784 107.823 97.8568 108.163 97.5488 108.518C97.0965 109.063 96.7916 109.693 96.5414 110.357L96.5353 110.37Z" fill="var(--fill-0, black)" id="Vector_6"/>
</g>
<g id="_Repeticin_radial_-5">
<path d="M91.9229 107.352C91.3858 108.193 90.9483 109.105 90.3047 109.857C89.6517 110.612 88.7454 111.225 87.7519 111.21C87.5178 111.209 87.254 111.155 87.1043 110.975C86.8704 110.709 86.9771 110.266 87.2114 110.002C87.4456 109.737 87.787 109.593 88.0927 109.409C89.1469 108.764 89.7911 107.629 90.2866 106.495C90.7822 105.361 91.1942 104.171 91.9753 103.21C92.0276 103.149 92.0894 103.084 92.1681 103.067C92.2373 103.052 92.3107 103.079 92.3747 103.109C93.1482 103.458 95.3756 103.89 94.6209 104.895C94.3418 105.271 93.6567 105.465 93.284 105.758C92.7278 106.191 92.3011 106.749 91.9195 107.343L91.9229 107.352Z" fill="var(--fill-0, black)" id="Vector_7"/>
</g>
<g id="_Repeticin_radial_-6">
<path d="M88.0359 103.425C87.3377 104.144 86.7204 104.939 85.9278 105.543C85.1353 106.147 84.1136 106.556 83.1405 106.332C82.9083 106.277 82.6686 106.172 82.5532 105.969C82.3784 105.66 82.5713 105.251 82.8574 105.042C83.1436 104.833 83.5121 104.764 83.8414 104.646C85.0118 104.236 85.8715 103.257 86.5947 102.254C87.3179 101.25 87.9696 100.166 88.9353 99.3935C89.0005 99.3383 89.069 99.2924 89.1544 99.2936C89.2305 99.2981 89.2884 99.341 89.3463 99.384C90.0254 99.8838 92.1117 100.781 91.1723 101.597C90.8157 101.906 90.1115 101.957 89.6861 102.163C89.0544 102.475 88.5145 102.924 88.0264 103.429L88.0359 103.425Z" fill="var(--fill-0, black)" id="Vector_8"/>
</g>
<g id="_Repeticin_radial_-7">
<path d="M85.0528 98.7911C84.2211 99.345 83.4549 99.9923 82.5476 100.425C81.6498 100.853 80.5692 101.04 79.6609 100.612C79.4434 100.509 79.2312 100.362 79.1595 100.133C79.0566 99.7877 79.3236 99.4367 79.6522 99.2867C79.9809 99.1367 80.3482 99.1535 80.7012 99.101C81.9312 98.9459 82.9791 98.1655 83.893 97.3377C84.8068 96.5099 85.6741 95.5819 86.7715 95.0281C86.8434 94.9916 86.9247 94.9518 87.0075 94.9752C87.0775 94.9925 87.1294 95.0483 87.1813 95.104C87.7462 95.7298 89.5987 97.0406 88.5088 97.6447C88.1029 97.8756 87.3985 97.7781 86.9392 97.89C86.2568 98.0609 85.6319 98.3917 85.0494 98.7817L85.0528 98.7911Z" fill="var(--fill-0, black)" id="Vector_9"/>
</g>
<g id="_Repeticin_radial_-8">
<path d="M83.0919 93.6302C82.1609 93.9966 81.28 94.4726 80.3017 94.7072C79.3329 94.9385 78.2343 94.8976 77.4326 94.2931C77.2427 94.1489 77.0674 93.9569 77.0461 93.7201C77.0124 93.3603 77.3535 93.0677 77.6998 92.9964C78.0461 92.9251 78.4055 93.0084 78.7668 93.038C79.9932 93.1392 81.1889 92.5926 82.2532 91.9764C83.3175 91.3601 84.3634 90.6336 85.5547 90.3117C85.63 90.2846 85.7215 90.273 85.7982 90.3092C85.8622 90.3393 85.8987 90.4113 85.9411 90.4704C86.363 91.2007 87.9074 92.8666 86.7108 93.2329C86.2617 93.373 85.6013 93.1321 85.1271 93.1432C84.4222 93.1627 83.7499 93.3618 83.0919 93.6302Z" fill="var(--fill-0, black)" id="Vector_10"/>
</g>
<g id="_Repeticin_radial_-9">
<path d="M82.247 88.1744C81.2673 88.3459 80.2931 88.6216 79.2942 88.6511C78.2954 88.6807 77.2293 88.405 76.576 87.6515C76.4169 87.4749 76.2819 87.2471 76.3144 87.0123C76.3568 86.6571 76.7472 86.4424 77.1077 86.4403C77.4683 86.4383 77.8009 86.595 78.1388 86.7074C79.3173 87.0595 80.5982 86.7799 81.7753 86.3887C82.9524 85.9976 84.1145 85.5056 85.3467 85.4453C85.4287 85.4371 85.5142 85.4383 85.5849 85.4872C85.6428 85.5302 85.6699 85.6055 85.6841 85.6747C85.94 86.4754 87.1082 88.4252 85.8613 88.5332C85.3878 88.5759 84.7972 88.2037 84.3302 88.1165C83.6377 87.9934 82.9335 88.0446 82.2436 88.165L82.247 88.1744Z" fill="var(--fill-0, black)" id="Vector_11"/>
</g>
<g id="_Repeticin_radial_-10">
<path d="M82.5617 82.6633C81.5708 82.6262 80.5538 82.6941 79.5754 82.5144C78.597 82.3347 77.6146 81.8483 77.1292 80.9708C77.0138 80.7678 76.9319 80.5104 77.0028 80.2936C77.1151 79.9557 77.5453 79.8224 77.8919 79.8997C78.2385 79.977 78.5316 80.2011 78.8487 80.3741C79.9349 80.9719 81.2345 80.9512 82.4713 80.8149C83.7081 80.6786 84.9393 80.4381 86.1585 80.6375C86.2379 80.6514 86.3301 80.6714 86.382 80.7272C86.4245 80.7863 86.4294 80.8589 86.4531 80.9248C86.5422 81.7641 87.2722 83.9139 86.0382 83.7623C85.572 83.7067 85.0638 83.2092 84.6202 83.0393C83.9624 82.7762 83.2674 82.6753 82.5677 82.6505L82.5617 82.6633Z" fill="var(--fill-0, black)" id="Vector_12"/>
</g>
<g id="_Repeticin_radial_-11">
<path d="M84.0197 77.3469C83.0492 77.1006 82.0527 76.9593 81.1297 76.5791C80.2067 76.1988 79.3464 75.5197 79.0552 74.5618C78.9835 74.3325 78.9554 74.077 79.074 73.8749C79.2598 73.5638 79.705 73.5313 80.0342 73.6786C80.3635 73.826 80.6008 74.102 80.875 74.3328C81.8143 75.1429 83.0949 75.3946 84.3188 75.518C85.5426 75.6414 86.8147 75.6624 87.9638 76.1102C88.0372 76.1369 88.1267 76.1791 88.1632 76.251C88.1963 76.3135 88.1917 76.3896 88.1872 76.4656C88.096 77.3059 88.3634 79.5582 87.1868 79.1522C86.7372 78.995 86.3472 78.4126 85.9552 78.1496C85.3672 77.7553 84.7068 77.5144 84.0291 77.3435L84.0197 77.3469Z" fill="var(--fill-0, black)" id="Vector_13"/>
</g>
<g id="_Repeticin_radial_-12">
<path d="M86.5372 72.4361C85.6444 71.9919 84.6939 71.6534 83.8741 71.0873C83.0544 70.5212 82.3484 69.6804 82.265 68.6796C82.2437 68.4429 82.2661 68.1798 82.4265 68.0053C82.6735 67.7465 83.1176 67.7994 83.4073 68.0141C83.6969 68.2288 83.8752 68.5473 84.0937 68.8301C84.8409 69.8154 86.0454 70.3283 87.2246 70.7121C88.4039 71.0959 89.6314 71.3773 90.6721 72.0553C90.7428 72.1043 90.8135 72.1533 90.8312 72.2319C90.8548 72.2978 90.8281 72.3712 90.8107 72.4412C90.5446 73.2381 90.3378 75.5014 89.2791 74.8618C88.875 74.6244 88.6067 73.9664 88.2824 73.626C87.7897 73.1124 87.193 72.753 86.5594 72.4388L86.5372 72.4361Z" fill="var(--fill-0, black)" id="Vector_14"/>
</g>
<g id="_Repeticin_radial_-13">
<path d="M90.028 68.1638C89.2418 67.5432 88.3912 67.0094 87.6976 66.2917C87.0134 65.5706 86.5036 64.5955 86.6261 63.6058C86.6586 63.3709 86.7287 63.1226 86.9215 62.9789C87.2076 62.7698 87.6351 62.9244 87.8784 63.1876C88.1218 63.4508 88.2187 63.8091 88.3747 64.125C88.9036 65.2419 89.9713 65.9952 91.042 66.6093C92.1128 67.2234 93.2608 67.7565 94.1289 68.6347C94.1808 68.6904 94.2489 68.7616 94.2571 68.8436C94.262 68.9163 94.2224 68.9836 94.1923 69.0476C93.7632 69.7756 93.0989 71.9483 92.187 71.0965C91.838 70.7756 91.7175 70.0857 91.4645 69.6772C91.09 69.0786 90.5852 68.5906 90.0246 68.1544L90.028 68.1638Z" fill="var(--fill-0, black)" id="Vector_15"/>
</g>
<g id="_Repeticin_radial_-14">
<path d="M94.3351 64.7139C93.6972 63.9443 92.9694 63.2495 92.4497 62.3949C91.9301 61.5403 91.6367 60.4875 91.9564 59.5437C92.0333 59.3142 92.164 59.0866 92.3771 58.9994C92.7091 58.8588 93.091 59.0935 93.2658 59.4026C93.4406 59.7117 93.4777 60.0809 93.5584 60.4238C93.8427 61.6287 94.7284 62.5855 95.6523 63.4117C96.5762 64.238 97.5806 64.9927 98.2533 66.0367C98.2992 66.1053 98.3391 66.1866 98.3345 66.2626C98.3266 66.3292 98.2742 66.3905 98.2279 66.4391C97.6668 67.0658 96.552 69.0496 95.845 68.0286C95.5799 67.6457 95.6014 66.9366 95.4425 66.4943C95.2023 65.8262 94.803 65.2471 94.3539 64.7072L94.3351 64.7139Z" fill="var(--fill-0, black)" id="Vector_16"/>
</g>
<g id="_Repeticin_radial_-15">
<path d="M99.2622 62.2207C98.7956 61.3364 98.2323 60.5081 97.9035 59.5636C97.5654 58.6225 97.502 57.5296 98.0135 56.6763C98.1322 56.4743 98.3047 56.2741 98.5441 56.2306C98.8904 56.1593 99.2233 56.4647 99.3262 56.8103C99.4291 57.1558 99.3902 57.5205 99.3982 57.8682C99.4269 59.1012 100.089 60.234 100.817 61.2261C101.546 62.2182 102.378 63.1731 102.816 64.3333C102.843 64.4086 102.874 64.4933 102.847 64.5666C102.82 64.64 102.761 64.6825 102.702 64.725C102.017 65.2154 100.52 66.933 100.031 65.7803C99.8442 65.3482 100.021 64.6576 99.9502 64.1943C99.858 63.4942 99.5836 62.849 99.2622 62.2207Z" fill="var(--fill-0, black)" id="Vector_17"/>
</g>
<g id="_Repeticin_radial_-16">
<path d="M104.604 60.8218C104.335 59.8664 103.956 58.9295 103.822 57.9362C103.688 56.9429 103.853 55.8636 104.535 55.1297C104.695 54.9552 104.903 54.7954 105.15 54.8023C105.501 54.8036 105.763 55.1771 105.797 55.5369C105.831 55.8967 105.709 56.238 105.644 56.5906C105.41 57.8012 105.834 59.0408 106.335 60.1679C106.835 61.295 107.456 62.4003 107.639 63.6201C107.647 63.7022 107.659 63.7937 107.619 63.861C107.576 63.9189 107.514 63.952 107.451 63.9851C106.681 64.3257 104.866 65.6901 104.625 64.4589C104.532 63.9929 104.846 63.3593 104.88 62.8904C104.933 62.1806 104.803 61.494 104.613 60.8184L104.604 60.8218Z" fill="var(--fill-0, black)" id="Vector_18"/>
</g>
<g id="_Repeticin_radial_-17">
<path d="M110.108 60.5546C110.037 59.5599 109.862 58.5707 109.94 57.5757C110.019 56.5806 110.403 55.55 111.218 54.9807C111.414 54.8464 111.649 54.7302 111.881 54.7849C112.228 54.8623 112.399 55.279 112.366 55.6309C112.333 55.9828 112.138 56.2973 112.003 56.6325C111.53 57.7696 111.677 59.0662 111.942 60.2779C112.208 61.4895 112.568 62.6989 112.498 63.9247C112.497 64.0101 112.487 64.0989 112.431 64.1508C112.385 64.1994 112.306 64.217 112.237 64.2313C111.415 64.3991 109.346 65.355 109.368 64.1145C109.379 63.6429 109.806 63.0858 109.941 62.6335C110.134 61.9584 110.156 61.2494 110.117 60.5512L110.108 60.5546Z" fill="var(--fill-0, black)" id="Vector_19"/>
</g>
<g id="_Repeticin_radial_-18">
<path d="M115.56 61.4432C115.704 60.4561 115.735 59.4464 116.019 58.494C116.304 57.5416 116.893 56.6074 117.804 56.2161C118.027 56.1256 118.281 56.0659 118.499 56.1684C118.819 56.3191 118.905 56.7662 118.793 57.1041C118.68 57.442 118.427 57.7136 118.225 58.0093C117.518 59.0285 117.4 60.325 117.41 61.5647C117.42 62.8044 117.522 64.0641 117.195 65.2547C117.172 65.3375 117.148 65.4203 117.08 65.4662C117.021 65.5087 116.948 65.5135 116.872 65.509C116.03 65.5032 113.812 66.0135 114.097 64.7953C114.206 64.331 114.746 63.8819 114.968 63.4624C115.295 62.8348 115.465 62.1571 115.566 61.462L115.56 61.4432Z" fill="var(--fill-0, black)" id="Vector_20"/>
</g>
<g id="_Repeticin_radial_-19">
<path d="M120.699 63.443C121.044 62.5114 121.287 61.5315 121.757 60.6507C122.23 59.7793 122.999 58.9928 123.982 58.7991C124.221 58.7556 124.474 58.7497 124.664 58.894C124.954 59.1087 124.945 59.558 124.759 59.8692C124.574 60.1803 124.278 60.3928 124.015 60.6361C123.117 61.4794 122.729 62.7347 122.472 63.9427C122.216 65.1506 122.061 66.4068 121.498 67.5017C121.462 67.5785 121.413 67.6492 121.341 67.6857C121.276 67.7093 121.196 67.6954 121.13 67.6874C120.3 67.5074 118.039 67.5442 118.557 66.4124C118.756 65.9902 119.377 65.65 119.685 65.2949C120.138 64.7498 120.442 64.1196 120.693 63.4558L120.699 63.443Z" fill="var(--fill-0, black)" id="Vector_21"/>
</g>
<g id="_Repeticin_radial_-20">
<path d="M125.311 66.461C125.848 65.6197 126.286 64.7081 126.929 63.9561C127.582 63.2007 128.489 62.5882 129.482 62.603C129.716 62.6039 129.98 62.6579 130.13 62.8379C130.364 63.1044 130.257 63.5466 130.023 63.8114C129.788 64.0762 129.447 64.2202 129.141 64.4044C128.087 65.0489 127.443 66.1837 126.947 67.3181C126.452 68.4525 126.04 69.6419 125.259 70.6027C125.206 70.664 125.145 70.7287 125.066 70.7464C124.997 70.7606 124.923 70.7339 124.859 70.7037C124.086 70.3548 121.858 69.9226 122.613 68.9182C122.892 68.5416 123.577 68.3485 123.95 68.0552C124.506 67.6216 124.933 67.0644 125.315 66.4704L125.311 66.461Z" fill="var(--fill-0, black)" id="Vector_22"/>
</g>
<g id="_Repeticin_radial_-21">
<path d="M129.198 70.3878C129.896 69.6693 130.514 68.8737 131.306 68.2701C132.099 67.6665 133.12 67.2568 134.094 67.4809C134.326 67.5356 134.565 67.6407 134.681 67.8437C134.856 68.1527 134.663 68.5621 134.377 68.7712C134.09 68.9803 133.722 69.049 133.393 69.1673C132.222 69.5773 131.363 70.5557 130.639 71.5594C129.916 72.5631 129.264 73.6474 128.299 74.4195C128.234 74.4748 128.165 74.5207 128.08 74.5195C128.004 74.515 127.946 74.472 127.888 74.4291C127.209 73.9293 125.122 73.032 126.062 72.2162C126.418 71.9074 127.123 71.8563 127.548 71.6503C128.18 71.3382 128.72 70.8892 129.208 70.3844L129.198 70.3878Z" fill="var(--fill-0, black)" id="Vector_23"/>
</g>
<g id="_Repeticin_radial_-22">
<path d="M132.181 75.022C133.013 74.4681 133.779 73.8208 134.686 73.3885C135.584 72.9596 136.665 72.7731 137.573 73.2012C137.791 73.3037 138.003 73.4506 138.075 73.6798C138.177 74.0254 137.91 74.3763 137.582 74.5263C137.253 74.6763 136.886 74.6595 136.533 74.712C135.303 74.8672 134.255 75.6475 133.341 76.4754C132.427 77.3032 131.56 78.2312 130.463 78.7849C130.391 78.8214 130.309 78.8613 130.227 78.8379C130.157 78.8205 130.105 78.7648 130.053 78.7091C129.488 78.0833 127.635 76.7725 128.725 76.1683C129.131 75.9375 129.836 76.035 130.295 75.9231C130.977 75.7522 131.602 75.4213 132.185 75.0314L132.181 75.022Z" fill="var(--fill-0, black)" id="Vector_24"/>
</g>
<g id="_Repeticin_radial_-23">
<path d="M134.142 80.1829C135.073 79.8165 135.954 79.3405 136.932 79.1058C137.901 78.8745 139 78.9154 139.801 79.5199C139.991 79.6642 140.167 79.8562 140.188 80.0929C140.222 80.4528 139.881 80.7454 139.534 80.8167C139.188 80.888 138.829 80.8046 138.467 80.7751C137.241 80.6739 136.045 81.2204 134.981 81.8367C133.917 82.453 132.871 83.1795 131.679 83.5014C131.604 83.5284 131.513 83.54 131.436 83.5039C131.372 83.4737 131.335 83.4018 131.293 83.3427C130.871 82.6123 129.327 80.9465 130.523 80.5802C130.972 80.4401 131.633 80.6809 132.107 80.6699C132.812 80.6503 133.484 80.4513 134.142 80.1829Z" fill="var(--fill-0, black)" id="Vector_25"/>
</g>
<g id="_Repeticin_radial_-24">
<path d="M134.987 85.6386C135.967 85.4672 136.941 85.1915 137.94 85.1619C138.939 85.1324 140.005 85.4081 140.658 86.1616C140.817 86.3382 140.952 86.5659 140.92 86.8008C140.877 87.156 140.487 87.3707 140.126 87.3727C139.766 87.3748 139.433 87.2181 139.095 87.1057C137.917 86.7535 136.636 87.0332 135.459 87.4243C134.282 87.8155 133.12 88.3075 131.887 88.3677C131.805 88.376 131.72 88.3748 131.649 88.3258C131.591 88.2829 131.564 88.2076 131.55 88.1384C131.294 87.3377 130.126 85.3879 131.373 85.2798C131.846 85.2372 132.437 85.6094 132.904 85.6966C133.596 85.8196 134.3 85.7685 134.99 85.6481L134.987 85.6386Z" fill="var(--fill-0, black)" id="Vector_26"/>
</g>
<g id="_Repeticin_radial_-25">
<path d="M134.672 91.1498C135.663 91.1869 136.68 91.1189 137.659 91.2986C138.637 91.4783 139.619 91.9647 140.105 92.8423C140.22 93.0452 140.302 93.3027 140.231 93.5194C140.119 93.8573 139.689 93.9907 139.342 93.9134C138.996 93.836 138.702 93.6119 138.385 93.439C137.299 92.8411 136 92.8618 134.763 92.9981C133.526 93.1344 132.295 93.375 131.076 93.1756C130.996 93.1616 130.904 93.1416 130.852 93.0859C130.81 93.0268 130.805 92.9541 130.781 92.8883C130.692 92.049 129.962 89.8992 131.196 90.0508C131.662 90.1064 132.17 90.6038 132.614 90.7738C133.272 91.0369 133.967 91.1377 134.666 91.1626L134.672 91.1498Z" fill="var(--fill-0, black)" id="Vector_27"/>
</g>
<g id="_Repeticin_radial_-26">
<path d="M133.218 96.4755C134.188 96.7219 135.185 96.8632 136.108 97.2434C137.031 97.6237 137.891 98.3027 138.182 99.2607C138.254 99.49 138.282 99.7455 138.163 99.9476C137.978 100.259 137.532 100.291 137.203 100.144C136.874 99.9965 136.637 99.7205 136.362 99.4897C135.423 98.6796 134.143 98.4278 132.919 98.3045C131.695 98.1811 130.423 98.1601 129.274 97.7123C129.2 97.6855 129.111 97.6433 129.074 97.5714C129.041 97.5089 129.046 97.4329 129.05 97.3569C129.141 96.5166 128.874 94.2643 130.051 94.6703C130.5 94.8275 130.89 95.4099 131.282 95.6728C131.87 96.0672 132.531 96.3081 133.208 96.4789L133.218 96.4755Z" fill="var(--fill-0, black)" id="Vector_28"/>
</g>
<g id="_Repeticin_radial_-27">
<path d="M130.697 101.377C131.59 101.821 132.54 102.16 133.36 102.726C134.18 103.292 134.886 104.133 134.969 105.133C134.99 105.37 134.968 105.633 134.808 105.808C134.561 106.067 134.116 106.014 133.827 105.799C133.537 105.584 133.359 105.266 133.14 104.983C132.393 103.998 131.189 103.485 130.009 103.101C128.83 102.717 127.603 102.436 126.562 101.758C126.491 101.709 126.421 101.66 126.403 101.581C126.379 101.515 126.406 101.442 126.423 101.372C126.689 100.575 126.896 98.3116 127.955 98.9513C128.359 99.1886 128.627 99.8466 128.952 100.187C129.444 100.701 130.041 101.06 130.675 101.374L130.697 101.377Z" fill="var(--fill-0, black)" id="Vector_29"/>
</g>
<g id="_Repeticin_radial_-28">
<path d="M127.206 105.649C127.992 106.27 128.843 106.804 129.536 107.521C130.221 108.242 130.73 109.218 130.608 110.207C130.575 110.442 130.505 110.69 130.313 110.834C130.026 111.043 129.599 110.889 129.356 110.625C129.112 110.362 129.015 110.004 128.859 109.688C128.33 108.571 127.263 107.818 126.192 107.204C125.121 106.59 123.973 106.057 123.105 105.178C123.053 105.123 122.985 105.051 122.977 104.969C122.972 104.897 123.012 104.829 123.042 104.765C123.471 104.037 124.135 101.865 125.047 102.717C125.396 103.037 125.517 103.727 125.77 104.136C126.144 104.734 126.649 105.223 127.209 105.659L127.206 105.649Z" fill="var(--fill-0, black)" id="Vector_30"/>
</g>
<g id="_Repeticin_radial_-29">
<path d="M122.902 109.109C123.54 109.878 124.268 110.573 124.788 111.428C125.307 112.282 125.601 113.335 125.281 114.279C125.204 114.508 125.073 114.736 124.86 114.823C124.528 114.964 124.146 114.729 123.972 114.42C123.797 114.111 123.76 113.742 123.679 113.399C123.395 112.194 122.509 111.237 121.585 110.411C120.661 109.585 119.657 108.83 118.984 107.786C118.938 107.717 118.898 107.636 118.903 107.56C118.911 107.493 118.963 107.432 119.01 107.383C119.571 106.757 120.685 104.773 121.392 105.794C121.658 106.177 121.636 106.886 121.795 107.328C122.035 107.996 122.434 108.575 122.884 109.115L122.902 109.109Z" fill="var(--fill-0, black)" id="Vector_31"/>
</g>
<g id="_Repeticin_radial_-30">
<path d="M117.972 111.592C118.438 112.477 119.002 113.305 119.33 114.249C119.669 115.191 119.732 116.283 119.22 117.137C119.102 117.339 118.929 117.539 118.69 117.582C118.344 117.654 118.011 117.348 117.908 117.003C117.805 116.657 117.844 116.293 117.836 115.945C117.807 114.712 117.145 113.579 116.417 112.587C115.688 111.595 114.856 110.64 114.418 109.48C114.391 109.405 114.36 109.32 114.387 109.246C114.414 109.173 114.473 109.131 114.532 109.088C115.217 108.598 116.714 106.88 117.203 108.033C117.39 108.465 117.213 109.155 117.284 109.619C117.376 110.319 117.65 110.964 117.972 111.592Z" fill="var(--fill-0, black)" id="Vector_32"/>
</g>
<path d="M119.964 66.2468C109.095 60.2492 98.2139 65.8384 97.3767 66.288C96.1893 66.9166 87.2962 71.8871 85.293 82.4574C85.008 83.9412 83.9684 90.2442 87.2357 96.7634C91.6597 105.555 103.271 113.411 115.557 109.634C128.085 105.758 133.683 92.1218 131.366 81.4463C129.231 71.5447 120.851 66.7355 119.967 66.2563L119.964 66.2468ZM129.636 81.8661C131.77 91.7361 126.609 104.344 115.027 107.922C103.674 111.428 92.9431 104.159 88.8634 96.0296C85.8292 90.0112 86.8039 84.1778 87.0602 82.8212C88.9237 73.0449 97.1267 68.4606 98.2233 67.8752C98.9921 67.4715 109.044 62.2969 119.09 67.8361C119.913 68.2946 127.655 72.7169 129.626 81.8695L129.636 81.8661Z" fill="var(--fill-0, black)" id="Vector_33"/>
<path d="M100.207 81.7627L102.4 80.9747C102.654 80.8834 102.957 80.9871 103.149 81.2262L111.381 91.6565C111.587 91.9333 111.918 92.2925 112.285 92.1606C113.527 91.7142 111.485 84.2872 111.012 82.9697C110.609 81.8498 110.19 80.5342 109.586 79.3273C109.37 78.9053 109.524 78.4146 109.909 78.2759L111.679 77.6401C112.093 77.4913 112.563 77.8536 112.616 78.3553C112.98 82.2091 114.074 92.4954 113.47 94.2745C113.272 94.8769 112.833 95.311 112.23 95.5275C110.809 96.0381 109.711 95.1685 108.794 94.0954C107.172 92.096 105.597 90.0798 104.042 88.0884C102.715 86.3763 101.372 84.6805 100.004 82.9726C99.6622 82.5535 99.7773 81.9277 100.22 81.7687L100.207 81.7627Z" fill="var(--fill-0, black)" id="Vector_34"/>
</g>
</g>
<defs>
<clipPath id="clip0_0_1455">
<rect fill="white" height="64.57" transform="translate(67.3158 67.4425) rotate(-19.7669)" width="64.57"/>
</clipPath>
</defs>
</svg>