<?xml version="1.0" encoding="utf-8"?>
<svg xmlns="http://www.w3.org/2000/svg" fill="none" height="100%" overflow="visible" preserveAspectRatio="none" style="display: block;" viewBox="0 0 3.1116 10.0815" width="100%">
<g id="_Repeticin_radial_-15">
<path d="M0.481602 5.88732C0.341602 4.89732 0.0916031 3.92732 0.101603 2.92732C0.101603 1.92732 0.411601 0.877324 1.1816 0.247324C1.3616 0.0973243 1.5916 -0.0326757 1.8316 0.00732434C2.1816 0.0573243 2.3916 0.457324 2.3716 0.817324C2.3516 1.17732 2.1916 1.50732 2.0816 1.83732C1.6916 3.00732 1.9316 4.29732 2.2816 5.47732C2.6316 6.65732 3.0916 7.83732 3.1116 9.07732C3.1116 9.15732 3.1116 9.24732 3.0616 9.30732C3.0116 9.36732 2.9416 9.38732 2.8716 9.40732C2.0616 9.63732 0.0716027 10.7473 0.00160269 9.49732C-0.0283973 9.02732 0.371602 8.43732 0.461602 7.97732C0.611602 7.28732 0.571602 6.58732 0.481602 5.88732Z" fill="var(--fill-0, black)" id="Vector"/>
</g>
</svg>