<?xml version="1.0" encoding="utf-8"?>
<svg xmlns="http://www.w3.org/2000/svg" fill="none" height="100%" overflow="visible" preserveAspectRatio="none" style="display: block;" viewBox="0 0 10.1595 3.68295" width="100%">
<g id="_Repeticin_radial_-7">
<path d="M6.00047 2.96816C5.03047 3.20816 4.09047 3.55816 3.09047 3.65816C2.10047 3.75816 1.02047 3.56816 0.310473 2.85816C0.140473 2.68816 -0.00952689 2.47816 0.000473113 2.23816C0.0204731 1.87816 0.390473 1.63816 0.750473 1.60816C1.11047 1.57816 1.45047 1.71816 1.80047 1.78816C3.01047 2.05816 4.26047 1.67817 5.40047 1.20817C6.54047 0.738166 7.67047 0.158165 8.89047 0.00816541C8.97047 -0.00183459 9.06047 -0.0118358 9.13047 0.0381642C9.19047 0.0781642 9.22047 0.148164 9.25047 0.218164C9.57047 0.998164 10.8705 2.85816 9.64047 3.05816C9.18047 3.13816 8.55047 2.80817 8.08047 2.75817C7.38047 2.68817 6.68047 2.78817 6.00047 2.95817V2.96816Z" fill="var(--fill-0, black)" id="Vector"/>
</g>
</svg>