<?xml version="1.0" encoding="utf-8"?>
<svg xmlns="http://www.w3.org/2000/svg" fill="none" height="100%" overflow="visible" preserveAspectRatio="none" style="display: block;" viewBox="0 0 4.16065 9.69316" width="100%">
<g id="_Repeticin_radial_">
<path d="M2.93893 4.17428C2.86893 5.16428 2.90893 6.17428 2.69893 7.15428C2.48893 8.13428 1.96893 9.09428 1.07893 9.55428C0.868928 9.66428 0.618929 9.74428 0.388929 9.65428C0.0589291 9.53428 -0.0610715 9.09428 0.0289285 8.74428C0.118929 8.39428 0.348929 8.11428 0.528929 7.80428C1.15893 6.74428 1.17893 5.43428 1.08893 4.20428C0.998928 2.97428 0.788929 1.72428 1.02893 0.51428C1.04893 0.43428 1.06893 0.344279 1.12893 0.294279C1.18893 0.254279 1.25893 0.244277 1.32893 0.234277C2.16893 0.174277 4.33893 -0.49572 4.14893 0.74428C4.07893 1.21428 3.56893 1.70428 3.37893 2.13428C3.08893 2.78428 2.97893 3.47428 2.92893 4.17428H2.93893Z" fill="var(--fill-0, black)" id="Vector"/>
</g>
</svg>