<?xml version="1.0" encoding="utf-8"?>
<svg xmlns="http://www.w3.org/2000/svg" fill="none" height="100%" overflow="visible" preserveAspectRatio="none" style="display: block;" viewBox="0 0 5.83744 9.1113" width="100%">
<g id="_Repeticin_radial_-2">
<path d="M3.8814 4.19C3.6114 5.15 3.44141 6.14 3.03141 7.05C2.62141 7.96 1.91141 8.8 0.951406 9.06C0.721406 9.12 0.461406 9.15 0.261406 9.02C-0.0385945 8.83 -0.0585945 8.38 0.0914055 8.06C0.241405 7.74 0.531406 7.51 0.771406 7.24C1.60141 6.33 1.9014 5.06 2.0614 3.83C2.2214 2.6 2.29141 1.34 2.77141 0.209998C2.80141 0.129998 2.84141 0.0499992 2.91141 0.0199992C2.97141 -0.0100008 3.0514 8.39122e-07 3.1214 0.0100008C3.9514 0.130001 6.22141 -0.0700011 5.78141 1.09C5.61141 1.53 5.02141 1.91 4.74141 2.29C4.33141 2.86 4.0714 3.52 3.8714 4.19H3.8814Z" fill="var(--fill-0, black)" id="Vector"/>
</g>
</svg>