<?xml version="1.0" encoding="utf-8"?>
<svg xmlns="http://www.w3.org/2000/svg" fill="none" height="100%" overflow="visible" preserveAspectRatio="none" style="display: block;" viewBox="0 0 9.47007 6.33025" width="100%">
<g id="_Repeticin_radial_-20">
<path d="M3.67492 2.3787C4.46492 1.7687 5.18491 1.0587 6.04491 0.568695C6.91491 0.078695 7.97491 -0.191305 8.90491 0.158695C9.12491 0.238695 9.35491 0.378696 9.43491 0.598696C9.56491 0.928696 9.31492 1.3087 9.00492 1.4787C8.69492 1.6487 8.32492 1.6687 7.97492 1.7387C6.76491 1.9887 5.77492 2.8387 4.92492 3.7387C4.07492 4.6387 3.28491 5.6187 2.22492 6.2587C2.15492 6.2987 2.07492 6.3387 1.99492 6.3287C1.92492 6.3187 1.86492 6.2687 1.81492 6.2187C1.20492 5.6287 -0.745083 4.4687 0.304917 3.7787C0.694917 3.5187 1.40492 3.5687 1.85492 3.4187C2.52492 3.1987 3.11492 2.8187 3.67492 2.3887V2.3787Z" fill="var(--fill-0, black)" id="Vector"/>
</g>
</svg>