<?xml version="1.0" encoding="utf-8"?>
<svg xmlns="http://www.w3.org/2000/svg" fill="none" height="100%" overflow="visible" preserveAspectRatio="none" style="display: block;" viewBox="0 0 64.7604 18.3887" width="100%">
<g id="Group">
<path d="M55.5302 17.4392C52.8002 16.7092 53.6702 13.4292 50.9402 12.6892C48.2102 11.9492 47.3302 15.2392 44.5902 14.4992C41.8502 13.7592 42.7302 10.4892 40.0002 9.75919C37.2702 9.02919 36.3902 12.3092 33.6502 11.5692C30.9102 10.8392 31.7902 7.55918 29.0602 6.81918C26.3302 6.07918 25.4502 9.36918 22.7102 8.62918C19.9802 7.89918 20.8502 4.61918 18.1202 3.87918C15.3902 3.13918 14.5102 6.42918 11.7702 5.68918C9.03021 4.95918 9.91021 1.67918 7.18021 0.93918C4.45021 0.19918 3.57021 3.48918 0.830207 2.74918" id="Vector" stroke="var(--stroke-0, black)" stroke-linecap="round" stroke-miterlimit="10" stroke-width="1.66"/>
<path d="M63.9302 17.4192C63.5302 16.6392 63.0102 15.9292 61.9202 15.6392C59.1802 14.9092 58.3102 18.1892 55.5702 17.4492" id="Vector_2" stroke="var(--stroke-0, black)" stroke-linecap="round" stroke-miterlimit="10" stroke-width="1.66"/>
</g>
</svg>