<?xml version="1.0" encoding="utf-8"?>
<svg xmlns="http://www.w3.org/2000/svg" fill="none" height="100%" overflow="visible" preserveAspectRatio="none" style="display: block;" viewBox="0 0 9.93497 3.28022" width="100%">
<g id="_Repeticin_radial_-23">
<path d="M4.19712 0.851264C5.19712 0.821264 6.18712 0.671264 7.18712 0.781264C8.17712 0.891264 9.19712 1.30126 9.74712 2.14126C9.87712 2.34126 9.97712 2.58126 9.91712 2.81126C9.82712 3.16126 9.40712 3.32126 9.05712 3.27126C8.70712 3.22126 8.39712 3.02126 8.06712 2.87126C6.94712 2.36126 5.63712 2.47126 4.42712 2.69126C3.21712 2.91126 1.98712 3.24126 0.757119 3.14126C0.677119 3.14126 0.58712 3.12126 0.52712 3.06126C0.47712 3.01126 0.467122 2.93126 0.447122 2.86126C0.297122 2.03126 -0.592879 -0.0587348 0.657121 0.00126524C1.12712 0.0212652 1.66712 0.471264 2.11712 0.621264C2.78712 0.841264 3.48712 0.881264 4.19712 0.851264Z" fill="var(--fill-0, black)" id="Vector"/>
</g>
</svg>