<?xml version="1.0" encoding="utf-8"?>
<svg xmlns="http://www.w3.org/2000/svg" fill="none" height="100%" overflow="visible" preserveAspectRatio="none" style="display: block;" viewBox="0 0 9.3869 5.01625" width="100%">
<g id="_Repeticin_radial_-9">
<path d="M5.25289 3.42508C4.27289 3.25508 3.26289 3.18508 2.31289 2.87508C1.36289 2.56508 0.45289 1.94508 0.0928896 1.01508C0.00288964 0.795081 -0.0471103 0.53508 0.0628897 0.32508C0.22289 0.00508017 0.66289 -0.0649184 1.00289 0.0550816C1.34289 0.175082 1.60289 0.435082 1.88289 0.655082C2.87289 1.38508 4.17289 1.55508 5.41289 1.58508C6.65289 1.61508 7.91289 1.54508 9.09289 1.90508C9.17289 1.92508 9.25289 1.95508 9.30289 2.02508C9.34289 2.08508 9.34289 2.16508 9.33289 2.23508C9.30289 3.07508 9.74289 5.30508 8.53289 4.98508C8.07289 4.86508 7.64289 4.31508 7.23289 4.07508C6.62289 3.72508 5.94289 3.53508 5.25289 3.41508V3.42508Z" fill="var(--fill-0, black)" id="Vector"/>
</g>
</svg>