<?xml version="1.0" encoding="utf-8"?>
<svg xmlns="http://www.w3.org/2000/svg" fill="none" height="100%" overflow="visible" preserveAspectRatio="none" style="display: block;" viewBox="0 0 49.106 55.4571" width="100%">
<g id="Vector">
<path d="M48.0317 27.948C30.605 30.7178 27.4439 34.4474 25.7958 54.2749C25.7148 55.1799 24.58 55.1799 24.4719 54.3023C21.9322 34.5571 18.636 30.992 1.1013 29.0175C0.317779 28.9352 0.29076 27.6463 1.07428 27.5092C18.5009 24.7394 21.662 21.0097 23.3101 1.18221C23.3912 0.277222 24.526 0.277221 24.634 1.15479C27.1737 20.9 30.4699 24.4651 48.0047 26.4396C48.7882 26.5219 48.8152 27.8108 48.0317 27.948Z" fill="black"/>
<path d="M48.0317 27.948C30.605 30.7178 27.4439 34.4474 25.7958 54.2749C25.7148 55.1799 24.58 55.1799 24.4719 54.3023C21.9322 34.5571 18.636 30.992 1.1013 29.0175C0.317779 28.9352 0.29076 27.6463 1.07428 27.5092C18.5009 24.7394 21.662 21.0097 23.3101 1.18221C23.3912 0.277222 24.526 0.277221 24.634 1.15479C27.1737 20.9 30.4699 24.4651 48.0047 26.4396C48.7882 26.5219 48.8152 27.8108 48.0317 27.948Z" fill="black" fill-opacity="0.2"/>
<path d="M48.0317 27.948C30.605 30.7178 27.4439 34.4474 25.7958 54.2749C25.7148 55.1799 24.58 55.1799 24.4719 54.3023C21.9322 34.5571 18.636 30.992 1.1013 29.0175C0.317779 28.9352 0.29076 27.6463 1.07428 27.5092C18.5009 24.7394 21.662 21.0097 23.3101 1.18221C23.3912 0.277222 24.526 0.277221 24.634 1.15479C27.1737 20.9 30.4699 24.4651 48.0047 26.4396C48.7882 26.5219 48.8152 27.8108 48.0317 27.948Z" fill="black" fill-opacity="0.2"/>
<path d="M48.0317 27.948C30.605 30.7178 27.4439 34.4474 25.7958 54.2749C25.7148 55.1799 24.58 55.1799 24.4719 54.3023C21.9322 34.5571 18.636 30.992 1.1013 29.0175C0.317779 28.9352 0.29076 27.6463 1.07428 27.5092C18.5009 24.7394 21.662 21.0097 23.3101 1.18221C23.3912 0.277222 24.526 0.277221 24.634 1.15479C27.1737 20.9 30.4699 24.4651 48.0047 26.4396C48.7882 26.5219 48.8152 27.8108 48.0317 27.948Z" fill="black" fill-opacity="0.2"/>
<path d="M48.0317 27.948C30.605 30.7178 27.4439 34.4474 25.7958 54.2749C25.7148 55.1799 24.58 55.1799 24.4719 54.3023C21.9322 34.5571 18.636 30.992 1.1013 29.0175C0.317779 28.9352 0.29076 27.6463 1.07428 27.5092C18.5009 24.7394 21.662 21.0097 23.3101 1.18221C23.3912 0.277222 24.526 0.277221 24.634 1.15479C27.1737 20.9 30.4699 24.4651 48.0047 26.4396C48.7882 26.5219 48.8152 27.8108 48.0317 27.948Z" fill="black" fill-opacity="0.2"/>
<path d="M48.0317 27.948C30.605 30.7178 27.4439 34.4474 25.7958 54.2749C25.7148 55.1799 24.58 55.1799 24.4719 54.3023C21.9322 34.5571 18.636 30.992 1.1013 29.0175C0.317779 28.9352 0.29076 27.6463 1.07428 27.5092C18.5009 24.7394 21.662 21.0097 23.3101 1.18221C23.3912 0.277222 24.526 0.277221 24.634 1.15479C27.1737 20.9 30.4699 24.4651 48.0047 26.4396C48.7882 26.5219 48.8152 27.8108 48.0317 27.948Z" fill="black" fill-opacity="0.2"/>
<path d="M48.0317 27.948C30.605 30.7178 27.4439 34.4474 25.7958 54.2749C25.7148 55.1799 24.58 55.1799 24.4719 54.3023C21.9322 34.5571 18.636 30.992 1.1013 29.0175C0.317779 28.9352 0.29076 27.6463 1.07428 27.5092C18.5009 24.7394 21.662 21.0097 23.3101 1.18221C23.3912 0.277222 24.526 0.277221 24.634 1.15479C27.1737 20.9 30.4699 24.4651 48.0047 26.4396C48.7882 26.5219 48.8152 27.8108 48.0317 27.948Z" stroke="var(--stroke-0, black)" stroke-miterlimit="10"/>
<path d="M48.0317 27.948C30.605 30.7178 27.4439 34.4474 25.7958 54.2749C25.7148 55.1799 24.58 55.1799 24.4719 54.3023C21.9322 34.5571 18.636 30.992 1.1013 29.0175C0.317779 28.9352 0.29076 27.6463 1.07428 27.5092C18.5009 24.7394 21.662 21.0097 23.3101 1.18221C23.3912 0.277222 24.526 0.277221 24.634 1.15479C27.1737 20.9 30.4699 24.4651 48.0047 26.4396C48.7882 26.5219 48.8152 27.8108 48.0317 27.948Z" stroke="var(--stroke-1, black)" stroke-miterlimit="10" stroke-opacity="0.2"/>
<path d="M48.0317 27.948C30.605 30.7178 27.4439 34.4474 25.7958 54.2749C25.7148 55.1799 24.58 55.1799 24.4719 54.3023C21.9322 34.5571 18.636 30.992 1.1013 29.0175C0.317779 28.9352 0.29076 27.6463 1.07428 27.5092C18.5009 24.7394 21.662 21.0097 23.3101 1.18221C23.3912 0.277222 24.526 0.277221 24.634 1.15479C27.1737 20.9 30.4699 24.4651 48.0047 26.4396C48.7882 26.5219 48.8152 27.8108 48.0317 27.948Z" stroke="var(--stroke-2, black)" stroke-miterlimit="10" stroke-opacity="0.2"/>
<path d="M48.0317 27.948C30.605 30.7178 27.4439 34.4474 25.7958 54.2749C25.7148 55.1799 24.58 55.1799 24.4719 54.3023C21.9322 34.5571 18.636 30.992 1.1013 29.0175C0.317779 28.9352 0.29076 27.6463 1.07428 27.5092C18.5009 24.7394 21.662 21.0097 23.3101 1.18221C23.3912 0.277222 24.526 0.277221 24.634 1.15479C27.1737 20.9 30.4699 24.4651 48.0047 26.4396C48.7882 26.5219 48.8152 27.8108 48.0317 27.948Z" stroke="var(--stroke-3, black)" stroke-miterlimit="10" stroke-opacity="0.2"/>
<path d="M48.0317 27.948C30.605 30.7178 27.4439 34.4474 25.7958 54.2749C25.7148 55.1799 24.58 55.1799 24.4719 54.3023C21.9322 34.5571 18.636 30.992 1.1013 29.0175C0.317779 28.9352 0.29076 27.6463 1.07428 27.5092C18.5009 24.7394 21.662 21.0097 23.3101 1.18221C23.3912 0.277222 24.526 0.277221 24.634 1.15479C27.1737 20.9 30.4699 24.4651 48.0047 26.4396C48.7882 26.5219 48.8152 27.8108 48.0317 27.948Z" stroke="var(--stroke-4, black)" stroke-miterlimit="10" stroke-opacity="0.2"/>
<path d="M48.0317 27.948C30.605 30.7178 27.4439 34.4474 25.7958 54.2749C25.7148 55.1799 24.58 55.1799 24.4719 54.3023C21.9322 34.5571 18.636 30.992 1.1013 29.0175C0.317779 28.9352 0.29076 27.6463 1.07428 27.5092C18.5009 24.7394 21.662 21.0097 23.3101 1.18221C23.3912 0.277222 24.526 0.277221 24.634 1.15479C27.1737 20.9 30.4699 24.4651 48.0047 26.4396C48.7882 26.5219 48.8152 27.8108 48.0317 27.948Z" stroke="var(--stroke-5, black)" stroke-miterlimit="10" stroke-opacity="0.2"/>
</g>
</svg>