<?xml version="1.0" encoding="utf-8"?>
<svg xmlns="http://www.w3.org/2000/svg" fill="none" height="100%" overflow="visible" preserveAspectRatio="none" style="display: block;" viewBox="0 0 4.34647 10.1292" width="100%">
<g id="_Repeticin_radial_-29">
<path d="M3.25894 4.08833C3.59894 5.02833 4.04893 5.92834 4.24893 6.90834C4.44893 7.88834 4.36893 8.97834 3.74893 9.75834C3.59893 9.94834 3.39894 10.1183 3.16894 10.1283C2.80894 10.1483 2.52893 9.79833 2.46893 9.44833C2.40893 9.09833 2.49893 8.73834 2.53893 8.38834C2.67893 7.15834 2.16894 5.95834 1.57894 4.86834C0.988935 3.77834 0.298934 2.72833 0.0189339 1.51833C-0.00106609 1.43833 -0.0110661 1.34834 0.0189339 1.27834C0.0489339 1.21834 0.118934 1.17834 0.178934 1.14834C0.918934 0.748336 2.63893 -0.741663 2.95893 0.458337C3.07893 0.908337 2.81893 1.56834 2.81893 2.03834C2.81893 2.74834 2.99894 3.42833 3.23894 4.08833H3.25894Z" fill="var(--fill-0, black)" id="Vector"/>
</g>
</svg>