<?xml version="1.0" encoding="utf-8"?>
<svg xmlns="http://www.w3.org/2000/svg" fill="none" height="100%" overflow="visible" preserveAspectRatio="none" style="display: block;" viewBox="0 0 8.00497 7.99696" width="100%">
<g id="_Repeticin_radial_-11">
<path d="M3.73301 5.0627C2.90301 4.5027 2.01301 4.0327 1.27301 3.3627C0.533006 2.6927 -0.0469938 1.7627 0.00300623 0.762702C0.0130062 0.522702 0.0730062 0.272702 0.253006 0.122702C0.533006 -0.107298 0.963006 0.0127024 1.22301 0.262702C1.48301 0.512702 1.61301 0.852702 1.79301 1.1627C2.40301 2.2427 3.52301 2.9127 4.63301 3.4427C5.74301 3.9727 6.93301 4.4227 7.86301 5.2327C7.92301 5.2827 7.99301 5.3527 8.00301 5.4327C8.01301 5.5027 7.98301 5.5727 7.95301 5.6427C7.58301 6.4027 7.07301 8.6127 6.10301 7.8327C5.73301 7.5327 5.56301 6.8527 5.28301 6.4727C4.86301 5.9027 4.32301 5.4527 3.74301 5.0627H3.73301Z" fill="var(--fill-0, black)" id="Vector"/>
</g>
</svg>