<?xml version="1.0" encoding="utf-8"?>
<svg xmlns="http://www.w3.org/2000/svg" fill="none" height="100%" overflow="visible" preserveAspectRatio="none" style="display: block;" viewBox="0 0 5.69089 9.79226" width="100%">
<g id="_Repeticin_radial_-13">
<path d="M1.93551 5.95004C1.40551 5.10004 0.78551 4.31004 0.37551 3.40004C-0.0244896 2.49004 -0.17449 1.40004 0.27551 0.51004C0.38551 0.30004 0.53551 0.0900404 0.76551 0.0200404C1.10551 -0.0799596 1.45551 0.21004 1.59551 0.54004C1.73551 0.87004 1.70551 1.24004 1.74551 1.59004C1.86551 2.82004 2.61551 3.89004 3.41551 4.83004C4.21551 5.77004 5.11551 6.66004 5.63551 7.78004C5.66551 7.85004 5.70551 7.94004 5.68551 8.02004C5.66551 8.09004 5.60551 8.14004 5.55551 8.19004C4.90551 8.73004 3.54551 10.55 2.97551 9.44004C2.75551 9.02004 2.87551 8.33004 2.77551 7.86004C2.62551 7.17004 2.31551 6.54004 1.93551 5.94004V5.95004Z" fill="var(--fill-0, black)" id="Vector"/>
</g>
</svg>