<?xml version="1.0" encoding="utf-8"?>
<svg xmlns="http://www.w3.org/2000/svg" fill="none" height="100%" overflow="visible" preserveAspectRatio="none" style="display: block;" viewBox="0 0 64.57 64.57" width="100%">
<g clip-path="url(#clip0_0_1487)" id="Capa_1">
<g id="_Repeticin_radial_">
<path d="M27.24 58.2C27.17 59.19 27.21 60.2 27 61.18C26.79 62.16 26.27 63.12 25.38 63.58C25.17 63.69 24.92 63.77 24.69 63.68C24.36 63.56 24.24 63.12 24.33 62.77C24.42 62.42 24.65 62.14 24.83 61.83C25.46 60.77 25.48 59.46 25.39 58.23C25.3 57 25.09 55.75 25.33 54.54C25.35 54.46 25.37 54.37 25.43 54.32C25.49 54.28 25.56 54.27 25.63 54.26C26.47 54.2 28.64 53.53 28.45 54.77C28.38 55.24 27.87 55.73 27.68 56.16C27.39 56.81 27.28 57.5 27.23 58.2H27.24Z" fill="var(--fill-0, black)" id="Vector"/>
</g>
<g id="_Repeticin_radial_-2">
<path d="M21.97 56.58C21.7 57.54 21.53 58.53 21.12 59.44C20.71 60.35 20 61.19 19.04 61.45C18.81 61.51 18.55 61.54 18.35 61.41C18.05 61.22 18.03 60.77 18.18 60.45C18.33 60.13 18.62 59.9 18.86 59.63C19.69 58.72 19.99 57.45 20.15 56.22C20.31 54.99 20.38 53.73 20.86 52.6C20.89 52.52 20.93 52.44 21 52.41C21.06 52.38 21.14 52.39 21.21 52.4C22.04 52.52 24.31 52.32 23.87 53.48C23.7 53.92 23.11 54.3 22.83 54.68C22.42 55.25 22.16 55.91 21.96 56.58H21.97Z" fill="var(--fill-0, black)" id="Vector_2"/>
</g>
<g id="_Repeticin_radial_-3">
<path d="M17.14 53.91C16.67 54.79 16.3 55.73 15.71 56.53C15.12 57.33 14.25 58.01 13.26 58.07C13.02 58.08 12.76 58.05 12.59 57.88C12.34 57.63 12.41 57.18 12.63 56.9C12.85 56.62 13.18 56.45 13.47 56.24C14.48 55.52 15.03 54.34 15.44 53.17C15.85 52 16.18 50.78 16.89 49.77C16.94 49.7 16.99 49.63 17.07 49.61C17.14 49.59 17.21 49.61 17.28 49.64C18.07 49.93 20.33 50.2 19.65 51.25C19.39 51.65 18.73 51.89 18.38 52.21C17.86 52.69 17.47 53.27 17.14 53.89V53.91Z" fill="var(--fill-0, black)" id="Vector_3"/>
</g>
<g id="_Repeticin_radial_-4">
<path d="M12.98 50.28C12.34 51.04 11.78 51.88 11.04 52.55C10.3 53.21 9.31 53.69 8.32 53.54C8.08 53.5 7.84 53.42 7.71 53.22C7.51 52.92 7.67 52.5 7.95 52.27C8.23 52.04 8.58 51.94 8.91 51.8C10.04 51.31 10.83 50.26 11.48 49.21C12.13 48.16 12.7 47.03 13.6 46.19C13.66 46.13 13.73 46.08 13.81 46.07C13.88 46.07 13.95 46.11 14.01 46.14C14.73 46.59 16.87 47.32 16 48.21C15.67 48.54 14.97 48.65 14.56 48.88C13.95 49.24 13.45 49.73 12.99 50.27L12.98 50.28Z" fill="var(--fill-0, black)" id="Vector_4"/>
</g>
<g id="_Repeticin_radial_-5">
<path d="M9.66 45.88C8.87 46.49 8.15 47.2 7.29 47.69C6.42 48.18 5.36 48.45 4.43 48.1C4.21 48.02 3.98 47.88 3.9 47.66C3.77 47.33 4.02 46.95 4.33 46.78C4.64 46.61 5.01 46.59 5.36 46.52C6.57 46.27 7.56 45.42 8.41 44.52C9.26 43.62 10.05 42.64 11.11 42C11.18 41.96 11.26 41.92 11.34 41.93C11.41 41.94 11.47 41.99 11.52 42.04C12.13 42.63 14.08 43.79 13.03 44.48C12.64 44.74 11.93 44.69 11.48 44.84C10.81 45.06 10.22 45.44 9.66 45.87V45.88Z" fill="var(--fill-0, black)" id="Vector_5"/>
</g>
<g id="_Repeticin_radial_-6">
<path d="M7.33 40.87C6.43 41.31 5.58 41.85 4.63 42.15C3.68 42.45 2.58 42.49 1.74 41.95C1.54 41.82 1.35 41.64 1.31 41.41C1.25 41.06 1.57 40.74 1.91 40.64C2.25 40.54 2.62 40.6 2.97 40.6C4.21 40.61 5.35 39.98 6.37 39.28C7.39 38.58 8.37 37.78 9.54 37.38C9.62 37.35 9.7 37.33 9.78 37.36C9.85 37.39 9.89 37.45 9.93 37.51C10.4 38.21 12.06 39.76 10.9 40.21C10.46 40.38 9.78 40.19 9.31 40.24C8.61 40.32 7.95 40.56 7.32 40.87H7.33Z" fill="var(--fill-0, black)" id="Vector_6"/>
</g>
<g id="_Repeticin_radial_-7">
<path d="M6.09 35.5C5.12 35.74 4.18 36.09 3.18 36.19C2.19 36.29 1.11 36.1 0.4 35.39C0.23 35.22 0.08 35.01 0.09 34.77C0.11 34.41 0.48 34.17 0.84 34.14C1.2 34.11 1.54 34.25 1.89 34.32C3.1 34.59 4.35 34.21 5.49 33.74C6.63 33.27 7.76 32.69 8.98 32.54C9.06 32.53 9.15 32.52 9.22 32.57C9.28 32.61 9.31 32.68 9.34 32.75C9.66 33.53 10.96 35.39 9.73 35.59C9.27 35.67 8.64 35.34 8.17 35.29C7.47 35.22 6.77 35.32 6.09 35.49V35.5Z" fill="var(--fill-0, black)" id="Vector_7"/>
</g>
<g id="_Repeticin_radial_-8">
<path d="M5.99 29.98C4.99 30.01 4 30.16 3 30.05C2.01 29.94 0.99 29.53 0.44 28.69C0.31 28.49 0.21 28.25 0.27 28.02C0.36 27.67 0.78 27.51 1.13 27.56C1.48 27.61 1.79 27.81 2.12 27.96C3.24 28.47 4.55 28.36 5.76 28.14C6.97 27.92 8.2 27.59 9.43 27.69C9.51 27.69 9.6 27.71 9.66 27.77C9.71 27.82 9.72 27.9 9.74 27.97C9.89 28.8 10.78 30.89 9.53 30.83C9.06 30.81 8.52 30.36 8.07 30.21C7.4 29.99 6.7 29.95 5.99 29.98Z" fill="var(--fill-0, black)" id="Vector_8"/>
</g>
<g id="_Repeticin_radial_-9">
<path d="M7.04 24.56C6.06 24.39 5.05 24.32 4.1 24.01C3.15 23.7 2.24 23.08 1.88 22.15C1.79 21.93 1.74 21.67 1.85 21.46C2.01 21.14 2.45 21.07 2.79 21.19C3.13 21.31 3.39 21.57 3.67 21.79C4.66 22.52 5.96 22.69 7.2 22.72C8.44 22.75 9.7 22.68 10.88 23.04C10.96 23.06 11.04 23.09 11.09 23.16C11.13 23.22 11.13 23.3 11.12 23.37C11.09 24.21 11.53 26.44 10.32 26.12C9.86 26 9.43 25.45 9.02 25.21C8.41 24.86 7.73 24.67 7.04 24.55V24.56Z" fill="var(--fill-0, black)" id="Vector_9"/>
</g>
<g id="_Repeticin_radial_-10">
<path d="M9.2 19.48C8.28 19.11 7.3 18.83 6.44 18.33C5.58 17.83 4.82 17.04 4.66 16.05C4.62 15.82 4.63 15.55 4.77 15.37C4.99 15.09 5.44 15.11 5.74 15.3C6.04 15.49 6.24 15.8 6.48 16.07C7.3 17 8.53 17.42 9.74 17.71C10.95 18 12.19 18.19 13.27 18.79C13.34 18.83 13.42 18.88 13.45 18.95C13.47 19.02 13.45 19.09 13.45 19.16C13.25 19.98 13.21 22.25 12.1 21.69C11.68 21.48 11.37 20.84 11.01 20.53C10.48 20.06 9.86 19.73 9.21 19.47L9.2 19.48Z" fill="var(--fill-0, black)" id="Vector_10"/>
</g>
<g id="_Repeticin_radial_-11">
<path d="M12.37 14.97C11.54 14.41 10.65 13.94 9.91 13.27C9.17 12.6 8.59 11.67 8.64 10.67C8.65 10.43 8.71 10.18 8.89 10.03C9.17 9.8 9.6 9.92 9.86 10.17C10.12 10.42 10.25 10.76 10.43 11.07C11.04 12.15 12.16 12.82 13.27 13.35C14.38 13.88 15.57 14.33 16.5 15.14C16.56 15.19 16.63 15.26 16.64 15.34C16.65 15.41 16.62 15.48 16.59 15.55C16.22 16.31 15.71 18.52 14.74 17.74C14.37 17.44 14.2 16.76 13.92 16.38C13.5 15.81 12.96 15.36 12.38 14.97H12.37Z" fill="var(--fill-0, black)" id="Vector_11"/>
</g>
<g id="_Repeticin_radial_-12">
<path d="M16.4 11.2C15.71 10.48 14.93 9.84 14.35 9.03C13.77 8.22 13.39 7.19 13.65 6.22C13.71 5.99 13.82 5.75 14.03 5.64C14.35 5.48 14.75 5.68 14.95 5.98C15.15 6.28 15.21 6.64 15.32 6.98C15.69 8.16 16.65 9.05 17.63 9.81C18.61 10.57 19.67 11.25 20.42 12.24C20.47 12.31 20.52 12.38 20.51 12.46C20.51 12.53 20.46 12.59 20.42 12.65C19.9 13.31 18.94 15.37 18.16 14.41C17.86 14.05 17.83 13.34 17.64 12.91C17.35 12.26 16.91 11.72 16.42 11.21L16.4 11.2Z" fill="var(--fill-0, black)" id="Vector_12"/>
</g>
<g id="_Repeticin_radial_-13">
<path d="M21.13 8.36C20.6 7.51 19.98 6.72 19.57 5.81C19.17 4.9 19.02 3.81 19.47 2.92C19.58 2.71 19.73 2.5 19.96 2.43C20.3 2.33 20.65 2.62 20.79 2.95C20.93 3.28 20.9 3.65 20.94 4C21.06 5.23 21.81 6.3 22.61 7.24C23.41 8.18 24.31 9.07 24.83 10.19C24.86 10.26 24.9 10.35 24.88 10.43C24.86 10.5 24.8 10.55 24.75 10.6C24.1 11.14 22.74 12.96 22.17 11.85C21.95 11.43 22.07 10.74 21.97 10.27C21.82 9.58 21.51 8.95 21.13 8.35V8.36Z" fill="var(--fill-0, black)" id="Vector_13"/>
</g>
<g id="_Repeticin_radial_-14">
<path d="M26.35 6.57C26.01 5.63 25.56 4.73 25.36 3.75C25.16 2.77 25.24 1.68 25.86 0.9C26.01 0.71 26.21 0.54 26.44 0.53C26.8 0.51 27.08 0.86 27.14 1.21C27.2 1.56 27.11 1.92 27.07 2.27C26.93 3.5 27.44 4.7 28.03 5.79C28.62 6.88 29.31 7.93 29.59 9.14C29.61 9.22 29.62 9.31 29.59 9.38C29.56 9.44 29.49 9.48 29.43 9.51C28.69 9.91 26.97 11.4 26.65 10.2C26.53 9.75 26.79 9.09 26.79 8.62C26.79 7.91 26.61 7.23 26.37 6.57H26.35Z" fill="var(--fill-0, black)" id="Vector_14"/>
</g>
<g id="_Repeticin_radial_-15">
<path d="M31.83 5.89C31.69 4.9 31.44 3.93 31.45 2.93C31.45 1.93 31.76 0.88 32.53 0.25C32.71 0.1 32.94 -0.03 33.18 0.01C33.53 0.06 33.74 0.46 33.72 0.82C33.7 1.18 33.54 1.51 33.43 1.84C33.04 3.01 33.28 4.3 33.63 5.48C33.98 6.66 34.44 7.84 34.46 9.08C34.46 9.16 34.46 9.25 34.41 9.31C34.36 9.37 34.29 9.39 34.22 9.41C33.41 9.64 31.42 10.75 31.35 9.5C31.32 9.03 31.72 8.44 31.81 7.98C31.96 7.29 31.92 6.59 31.83 5.89Z" fill="var(--fill-0, black)" id="Vector_15"/>
</g>
<g id="_Repeticin_radial_-16">
<path d="M37.33 6.38C37.4 5.39 37.36 4.38 37.57 3.4C37.78 2.42 38.3 1.46 39.19 1C39.4 0.89 39.65 0.81 39.88 0.9C40.21 1.02 40.33 1.46 40.24 1.81C40.15 2.16 39.92 2.44 39.74 2.75C39.11 3.81 39.09 5.12 39.18 6.35C39.27 7.58 39.48 8.83 39.24 10.04C39.22 10.12 39.2 10.21 39.14 10.26C39.08 10.3 39.01 10.31 38.94 10.32C38.1 10.38 35.93 11.05 36.12 9.81C36.19 9.34 36.7 8.85 36.89 8.42C37.18 7.77 37.29 7.08 37.34 6.38H37.33Z" fill="var(--fill-0, black)" id="Vector_16"/>
</g>
<g id="_Repeticin_radial_-17">
<path d="M42.6 7.99C42.87 7.03 43.04 6.04 43.45 5.13C43.86 4.22 44.57 3.38 45.53 3.12C45.76 3.06 46.02 3.03 46.22 3.16C46.52 3.35 46.54 3.8 46.39 4.12C46.24 4.44 45.95 4.67 45.71 4.94C44.88 5.85 44.58 7.12 44.42 8.35C44.26 9.58 44.19 10.84 43.71 11.97C43.68 12.05 43.64 12.13 43.57 12.16C43.51 12.19 43.43 12.18 43.36 12.17C42.53 12.05 40.26 12.25 40.7 11.09C40.87 10.65 41.46 10.27 41.74 9.89C42.15 9.32 42.41 8.66 42.61 7.99H42.6Z" fill="var(--fill-0, black)" id="Vector_17"/>
</g>
<g id="_Repeticin_radial_-18">
<path d="M47.43 10.67C47.9 9.79 48.27 8.85 48.86 8.05C49.45 7.25 50.32 6.57 51.31 6.51C51.55 6.5 51.81 6.53 51.98 6.7C52.23 6.95 52.16 7.4 51.94 7.68C51.72 7.96 51.39 8.13 51.1 8.34C50.09 9.06 49.54 10.24 49.13 11.41C48.72 12.58 48.39 13.8 47.68 14.81C47.63 14.88 47.58 14.95 47.5 14.97C47.43 14.99 47.36 14.97 47.29 14.94C46.5 14.65 44.24 14.38 44.92 13.33C45.18 12.93 45.84 12.69 46.19 12.37C46.71 11.89 47.1 11.31 47.43 10.69V10.67Z" fill="var(--fill-0, black)" id="Vector_18"/>
</g>
<g id="_Repeticin_radial_-19">
<path d="M51.59 14.29C52.23 13.53 52.79 12.69 53.53 12.02C54.27 11.36 55.26 10.88 56.25 11.03C56.49 11.07 56.73 11.15 56.86 11.35C57.06 11.65 56.9 12.07 56.62 12.3C56.34 12.53 55.99 12.63 55.66 12.77C54.53 13.26 53.74 14.31 53.09 15.36C52.44 16.41 51.87 17.54 50.97 18.38C50.91 18.44 50.84 18.49 50.76 18.5C50.69 18.5 50.62 18.46 50.56 18.43C49.84 17.98 47.7 17.25 48.57 16.36C48.9 16.03 49.6 15.92 50.01 15.69C50.62 15.33 51.12 14.84 51.58 14.3L51.59 14.29Z" fill="var(--fill-0, black)" id="Vector_19"/>
</g>
<g id="_Repeticin_radial_-20">
<path d="M54.91 18.69C55.7 18.08 56.42 17.37 57.28 16.88C58.15 16.39 59.21 16.12 60.14 16.47C60.36 16.55 60.59 16.69 60.67 16.91C60.8 17.24 60.55 17.62 60.24 17.79C59.93 17.96 59.56 17.98 59.21 18.05C58 18.3 57.01 19.15 56.16 20.05C55.31 20.95 54.52 21.93 53.46 22.57C53.39 22.61 53.31 22.65 53.23 22.64C53.16 22.63 53.1 22.58 53.05 22.53C52.44 21.94 50.49 20.78 51.54 20.09C51.93 19.83 52.64 19.88 53.09 19.73C53.76 19.51 54.35 19.13 54.91 18.7V18.69Z" fill="var(--fill-0, black)" id="Vector_20"/>
</g>
<g id="_Repeticin_radial_-21">
<path d="M57.24 23.7C58.14 23.26 58.99 22.72 59.94 22.42C60.89 22.12 61.99 22.08 62.83 22.62C63.03 22.75 63.22 22.93 63.26 23.16C63.32 23.51 63 23.83 62.66 23.93C62.32 24.03 61.95 23.97 61.6 23.97C60.36 23.96 59.22 24.59 58.2 25.29C57.18 25.99 56.2 26.79 55.03 27.19C54.95 27.22 54.87 27.24 54.79 27.21C54.72 27.18 54.68 27.12 54.64 27.06C54.17 26.36 52.51 24.81 53.67 24.36C54.11 24.19 54.79 24.38 55.26 24.33C55.96 24.25 56.62 24.01 57.25 23.7H57.24Z" fill="var(--fill-0, black)" id="Vector_21"/>
</g>
<g id="_Repeticin_radial_-22">
<path d="M58.48 29.07C59.45 28.83 60.39 28.48 61.39 28.38C62.38 28.28 63.46 28.47 64.17 29.18C64.34 29.35 64.49 29.56 64.48 29.8C64.46 30.16 64.09 30.4 63.73 30.43C63.37 30.46 63.03 30.32 62.68 30.25C61.47 29.98 60.22 30.36 59.08 30.83C57.94 31.3 56.81 31.88 55.59 32.03C55.51 32.04 55.42 32.05 55.35 32C55.29 31.96 55.26 31.89 55.23 31.82C54.91 31.04 53.61 29.18 54.84 28.98C55.3 28.9 55.93 29.23 56.4 29.28C57.1 29.35 57.8 29.25 58.48 29.08V29.07Z" fill="var(--fill-0, black)" id="Vector_22"/>
</g>
<g id="_Repeticin_radial_-23">
<path d="M58.58 34.59C59.58 34.56 60.57 34.41 61.57 34.52C62.56 34.63 63.58 35.04 64.13 35.88C64.26 36.08 64.36 36.32 64.3 36.55C64.21 36.9 63.79 37.06 63.44 37.01C63.09 36.96 62.78 36.76 62.45 36.61C61.33 36.1 60.02 36.21 58.81 36.43C57.6 36.65 56.37 36.98 55.14 36.88C55.06 36.88 54.97 36.86 54.91 36.8C54.86 36.75 54.85 36.67 54.83 36.6C54.68 35.77 53.79 33.68 55.04 33.74C55.51 33.76 56.05 34.21 56.5 34.36C57.17 34.58 57.87 34.62 58.58 34.59Z" fill="var(--fill-0, black)" id="Vector_23"/>
</g>
<g id="_Repeticin_radial_-24">
<path d="M57.53 40.01C58.51 40.18 59.52 40.25 60.47 40.56C61.42 40.87 62.33 41.49 62.69 42.42C62.78 42.64 62.83 42.9 62.72 43.11C62.56 43.43 62.12 43.5 61.78 43.38C61.44 43.26 61.18 43 60.9 42.78C59.91 42.05 58.61 41.88 57.37 41.85C56.13 41.82 54.87 41.89 53.69 41.53C53.61 41.51 53.53 41.48 53.48 41.41C53.44 41.35 53.44 41.27 53.45 41.2C53.48 40.36 53.04 38.13 54.25 38.45C54.71 38.57 55.14 39.12 55.55 39.36C56.16 39.71 56.84 39.9 57.53 40.02V40.01Z" fill="var(--fill-0, black)" id="Vector_24"/>
</g>
<g id="_Repeticin_radial_-25">
<path d="M55.37 45.09C56.29 45.46 57.27 45.74 58.13 46.24C58.99 46.74 59.75 47.53 59.91 48.52C59.95 48.75 59.94 49.02 59.8 49.2C59.58 49.48 59.13 49.46 58.83 49.27C58.53 49.08 58.33 48.77 58.09 48.5C57.27 47.57 56.04 47.15 54.83 46.86C53.62 46.57 52.38 46.38 51.3 45.78C51.23 45.74 51.15 45.69 51.12 45.62C51.1 45.55 51.12 45.48 51.12 45.41C51.32 44.59 51.36 42.32 52.47 42.88C52.89 43.09 53.2 43.73 53.56 44.04C54.09 44.51 54.71 44.84 55.36 45.1L55.37 45.09Z" fill="var(--fill-0, black)" id="Vector_25"/>
</g>
<g id="_Repeticin_radial_-26">
<path d="M52.2 49.61C53.03 50.17 53.92 50.64 54.66 51.31C55.4 51.98 55.98 52.91 55.93 53.91C55.92 54.15 55.86 54.4 55.68 54.55C55.4 54.78 54.97 54.66 54.71 54.41C54.45 54.16 54.32 53.82 54.14 53.51C53.53 52.43 52.41 51.76 51.3 51.23C50.19 50.7 49 50.25 48.07 49.44C48.01 49.39 47.94 49.32 47.93 49.24C47.92 49.17 47.95 49.1 47.98 49.03C48.35 48.27 48.86 46.06 49.83 46.84C50.2 47.14 50.37 47.82 50.65 48.2C51.07 48.77 51.61 49.22 52.19 49.61H52.2Z" fill="var(--fill-0, black)" id="Vector_26"/>
</g>
<g id="_Repeticin_radial_-27">
<path d="M48.17 53.37C48.86 54.09 49.64 54.73 50.22 55.54C50.8 56.35 51.18 57.38 50.92 58.35C50.86 58.58 50.75 58.82 50.54 58.93C50.22 59.09 49.82 58.89 49.62 58.59C49.42 58.29 49.36 57.93 49.25 57.59C48.88 56.41 47.92 55.52 46.94 54.76C45.96 54 44.9 53.32 44.15 52.33C44.1 52.26 44.05 52.19 44.06 52.11C44.06 52.04 44.11 51.98 44.15 51.92C44.67 51.26 45.63 49.2 46.41 50.16C46.71 50.52 46.74 51.23 46.93 51.66C47.22 52.31 47.66 52.85 48.15 53.36L48.17 53.37Z" fill="var(--fill-0, black)" id="Vector_27"/>
</g>
<g id="_Repeticin_radial_-28">
<path d="M43.44 56.21C43.97 57.06 44.59 57.85 45 58.76C45.4 59.67 45.55 60.76 45.1 61.65C44.99 61.86 44.84 62.07 44.61 62.14C44.27 62.24 43.92 61.95 43.78 61.62C43.64 61.29 43.67 60.92 43.63 60.57C43.51 59.34 42.76 58.27 41.96 57.33C41.16 56.39 40.26 55.5 39.74 54.38C39.71 54.31 39.67 54.22 39.69 54.14C39.71 54.07 39.77 54.02 39.82 53.97C40.47 53.43 41.83 51.61 42.4 52.72C42.62 53.14 42.5 53.83 42.6 54.3C42.75 54.99 43.06 55.62 43.44 56.22V56.21Z" fill="var(--fill-0, black)" id="Vector_28"/>
</g>
<g id="_Repeticin_radial_-29">
<path d="M38.22 58.01C38.56 58.95 39.01 59.85 39.21 60.83C39.41 61.81 39.33 62.9 38.71 63.68C38.56 63.87 38.36 64.04 38.13 64.05C37.77 64.07 37.49 63.72 37.43 63.37C37.37 63.02 37.46 62.66 37.5 62.31C37.64 61.08 37.13 59.88 36.54 58.79C35.95 57.7 35.26 56.65 34.98 55.44C34.96 55.36 34.95 55.27 34.98 55.2C35.01 55.14 35.08 55.1 35.14 55.07C35.88 54.67 37.6 53.18 37.92 54.38C38.04 54.83 37.78 55.49 37.78 55.96C37.78 56.67 37.96 57.35 38.2 58.01H38.22Z" fill="var(--fill-0, black)" id="Vector_29"/>
</g>
<g id="_Repeticin_radial_-30">
<path d="M32.74 58.68C32.88 59.67 33.13 60.64 33.12 61.64C33.12 62.64 32.81 63.69 32.04 64.32C31.86 64.47 31.63 64.6 31.39 64.56C31.04 64.51 30.83 64.11 30.85 63.75C30.87 63.39 31.03 63.06 31.14 62.73C31.53 61.56 31.29 60.27 30.94 59.09C30.59 57.91 30.13 56.73 30.11 55.49C30.11 55.41 30.11 55.32 30.16 55.26C30.21 55.2 30.28 55.18 30.35 55.16C31.16 54.93 33.15 53.82 33.22 55.07C33.25 55.54 32.85 56.13 32.76 56.59C32.61 57.28 32.65 57.98 32.74 58.68Z" fill="var(--fill-0, black)" id="Vector_30"/>
</g>
<path d="M49.95 16.68C41.75 7.36 29.62 8.94 28.68 9.08C27.35 9.27 17.3 10.94 11.84 20.21C11.07 21.51 7.96 27.09 8.83 34.33C10.02 44.1 18.29 55.42 31.13 56.02C44.23 56.61 54.11 45.67 55.54 34.84C56.88 24.8 50.62 17.44 49.95 16.69V16.68ZM53.77 34.65C52.44 44.66 43.32 54.78 31.21 54.23C19.34 53.69 11.7 43.22 10.61 34.19C9.79 27.5 12.68 22.34 13.38 21.15C18.44 12.58 27.71 11.04 28.94 10.86C29.8 10.74 41.01 9.27 48.59 17.88C49.21 18.59 55 25.37 53.76 34.65H53.77Z" fill="var(--fill-0, black)" id="Vector_31"/>
<path d="M26.11 24.6H28.44C28.71 24.6 28.96 24.8 29.06 25.09L33.28 37.69C33.38 38.02 33.57 38.47 33.96 38.47C35.28 38.47 35.87 30.79 35.87 29.39C35.87 28.2 35.92 26.82 35.76 25.48C35.7 25.01 36.01 24.6 36.42 24.6H38.3C38.74 24.6 39.06 25.1 38.94 25.59C37.98 29.34 35.53 39.39 34.36 40.86C33.97 41.36 33.41 41.62 32.77 41.62C31.26 41.62 30.52 40.43 30.02 39.11C29.17 36.68 28.37 34.25 27.58 31.85C26.91 29.79 26.22 27.74 25.51 25.67C25.33 25.16 25.65 24.61 26.12 24.61L26.11 24.6Z" fill="var(--fill-0, black)" id="Vector_32"/>
</g>
<defs>
<clipPath id="clip0_0_1487">
<rect fill="white" height="64.57" width="64.57"/>
</clipPath>
</defs>
</svg>