<?xml version="1.0" encoding="utf-8"?>
<svg xmlns="http://www.w3.org/2000/svg" fill="none" height="100%" overflow="visible" preserveAspectRatio="none" style="display: block;" viewBox="0 0 4.34647 10.1292" width="100%">
<g id="_Repeticin_radial_-14">
<path d="M1.08753 6.04082C0.747534 5.10082 0.297535 4.20082 0.0975345 3.22082C-0.102465 2.24082 -0.0224655 1.15082 0.597534 0.370818C0.747534 0.180818 0.947534 0.0108183 1.17753 0.000818267C1.53753 -0.0191817 1.81753 0.330818 1.87753 0.680818C1.93753 1.03082 1.84753 1.39082 1.80753 1.74082C1.66753 2.97082 2.17753 4.17082 2.76753 5.26082C3.35753 6.35082 4.04753 7.40082 4.32753 8.61082C4.34753 8.69082 4.35753 8.78082 4.32753 8.85082C4.29753 8.91082 4.22753 8.95082 4.16753 8.98082C3.42753 9.38082 1.70753 10.8708 1.38753 9.67082C1.26753 9.22082 1.52753 8.56082 1.52753 8.09082C1.52753 7.38082 1.34753 6.70082 1.10753 6.04082H1.08753Z" fill="var(--fill-0, black)" id="Vector"/>
</g>
</svg>