<?xml version="1.0" encoding="utf-8"?>
<svg xmlns="http://www.w3.org/2000/svg" fill="none" height="100%" overflow="visible" preserveAspectRatio="none" style="display: block;" viewBox="0 0 8.58407 7.4976" width="100%">
<g id="_Repeticin_radial_-19">
<path d="M3.22471 3.2876C3.86471 2.5276 4.42471 1.6876 5.16471 1.0176C5.90471 0.357599 6.89471 -0.122402 7.88471 0.0275979C8.12471 0.0675979 8.36471 0.147599 8.49471 0.347599C8.69471 0.647599 8.53471 1.0676 8.25471 1.2976C7.97471 1.5276 7.62471 1.6276 7.29471 1.7676C6.16471 2.2576 5.37471 3.3076 4.72471 4.3576C4.07471 5.4076 3.50471 6.5376 2.60471 7.3776C2.54471 7.4376 2.47471 7.4876 2.39471 7.4976C2.32471 7.4976 2.25471 7.4576 2.19471 7.4276C1.47471 6.9776 -0.665289 6.2476 0.204711 5.3576C0.534711 5.0276 1.23471 4.9176 1.64471 4.6876C2.25471 4.3276 2.75471 3.8376 3.21471 3.2976L3.22471 3.2876Z" fill="var(--fill-0, black)" id="Vector"/>
</g>
</svg>