<?xml version="1.0" encoding="utf-8"?>
<svg xmlns="http://www.w3.org/2000/svg" fill="none" height="100%" overflow="visible" preserveAspectRatio="none" style="display: block;" viewBox="0 0 6.94464 9.07732" width="100%">
<g id="_Repeticin_radial_-12">
<path d="M2.83336 5.6166C2.14336 4.8966 1.36336 4.2566 0.783358 3.4466C0.203358 2.6366 -0.176643 1.6066 0.0833571 0.636598C0.143357 0.406598 0.253357 0.166598 0.463357 0.0565982C0.783357 -0.103402 1.18336 0.0965983 1.38336 0.396598C1.58336 0.696598 1.64336 1.0566 1.75336 1.3966C2.12336 2.5766 3.08336 3.4666 4.06336 4.2266C5.04336 4.9866 6.10336 5.6666 6.85336 6.6566C6.90336 6.7266 6.95336 6.7966 6.94336 6.8766C6.94336 6.9466 6.89336 7.0066 6.85336 7.0666C6.33336 7.7266 5.37336 9.7866 4.59336 8.8266C4.29336 8.4666 4.26336 7.7566 4.07336 7.3266C3.78336 6.6766 3.34336 6.1366 2.85336 5.6266L2.83336 5.6166Z" fill="var(--fill-0, black)" id="Vector"/>
</g>
</svg>