<?xml version="1.0" encoding="utf-8"?>
<svg xmlns="http://www.w3.org/2000/svg" fill="none" height="100%" overflow="visible" preserveAspectRatio="none" style="display: block;" viewBox="0 0 51 58" width="100%">
<g id="Vector">
<path d="M49.9031 29.2296C31.7903 32.1288 28.5047 36.0326 26.7917 56.7859C26.7075 57.7332 25.5281 57.7332 25.4157 56.8146C22.776 36.1474 19.3501 32.4158 1.12498 30.3491C0.310605 30.263 0.282523 28.9139 1.09689 28.7704C19.2097 25.8712 22.4952 21.9674 24.2082 1.21407C24.2925 0.266819 25.4719 0.266819 25.5842 1.18536C28.2239 21.8526 31.6499 25.5842 49.875 27.6509C50.6893 27.737 50.7174 29.0861 49.9031 29.2296Z" fill="black"/>
<path d="M49.9031 29.2296C31.7903 32.1288 28.5047 36.0326 26.7917 56.7859C26.7075 57.7332 25.5281 57.7332 25.4157 56.8146C22.776 36.1474 19.3501 32.4158 1.12498 30.3491C0.310605 30.263 0.282523 28.9139 1.09689 28.7704C19.2097 25.8712 22.4952 21.9674 24.2082 1.21407C24.2925 0.266819 25.4719 0.266819 25.5842 1.18536C28.2239 21.8526 31.6499 25.5842 49.875 27.6509C50.6893 27.737 50.7174 29.0861 49.9031 29.2296Z" fill="black" fill-opacity="0.2"/>
<path d="M49.9031 29.2296C31.7903 32.1288 28.5047 36.0326 26.7917 56.7859C26.7075 57.7332 25.5281 57.7332 25.4157 56.8146C22.776 36.1474 19.3501 32.4158 1.12498 30.3491C0.310605 30.263 0.282523 28.9139 1.09689 28.7704C19.2097 25.8712 22.4952 21.9674 24.2082 1.21407C24.2925 0.266819 25.4719 0.266819 25.5842 1.18536C28.2239 21.8526 31.6499 25.5842 49.875 27.6509C50.6893 27.737 50.7174 29.0861 49.9031 29.2296Z" fill="black" fill-opacity="0.2"/>
<path d="M49.9031 29.2296C31.7903 32.1288 28.5047 36.0326 26.7917 56.7859C26.7075 57.7332 25.5281 57.7332 25.4157 56.8146C22.776 36.1474 19.3501 32.4158 1.12498 30.3491C0.310605 30.263 0.282523 28.9139 1.09689 28.7704C19.2097 25.8712 22.4952 21.9674 24.2082 1.21407C24.2925 0.266819 25.4719 0.266819 25.5842 1.18536C28.2239 21.8526 31.6499 25.5842 49.875 27.6509C50.6893 27.737 50.7174 29.0861 49.9031 29.2296Z" fill="black" fill-opacity="0.2"/>
<path d="M49.9031 29.2296C31.7903 32.1288 28.5047 36.0326 26.7917 56.7859C26.7075 57.7332 25.5281 57.7332 25.4157 56.8146C22.776 36.1474 19.3501 32.4158 1.12498 30.3491C0.310605 30.263 0.282523 28.9139 1.09689 28.7704C19.2097 25.8712 22.4952 21.9674 24.2082 1.21407C24.2925 0.266819 25.4719 0.266819 25.5842 1.18536C28.2239 21.8526 31.6499 25.5842 49.875 27.6509C50.6893 27.737 50.7174 29.0861 49.9031 29.2296Z" fill="black" fill-opacity="0.2"/>
<path d="M49.9031 29.2296C31.7903 32.1288 28.5047 36.0326 26.7917 56.7859C26.7075 57.7332 25.5281 57.7332 25.4157 56.8146C22.776 36.1474 19.3501 32.4158 1.12498 30.3491C0.310605 30.263 0.282523 28.9139 1.09689 28.7704C19.2097 25.8712 22.4952 21.9674 24.2082 1.21407C24.2925 0.266819 25.4719 0.266819 25.5842 1.18536C28.2239 21.8526 31.6499 25.5842 49.875 27.6509C50.6893 27.737 50.7174 29.0861 49.9031 29.2296Z" fill="black" fill-opacity="0.2"/>
<path d="M49.9031 29.2296C31.7903 32.1288 28.5047 36.0326 26.7917 56.7859C26.7075 57.7332 25.5281 57.7332 25.4157 56.8146C22.776 36.1474 19.3501 32.4158 1.12498 30.3491C0.310605 30.263 0.282523 28.9139 1.09689 28.7704C19.2097 25.8712 22.4952 21.9674 24.2082 1.21407C24.2925 0.266819 25.4719 0.266819 25.5842 1.18536C28.2239 21.8526 31.6499 25.5842 49.875 27.6509C50.6893 27.737 50.7174 29.0861 49.9031 29.2296Z" stroke="var(--stroke-0, black)" stroke-miterlimit="10"/>
<path d="M49.9031 29.2296C31.7903 32.1288 28.5047 36.0326 26.7917 56.7859C26.7075 57.7332 25.5281 57.7332 25.4157 56.8146C22.776 36.1474 19.3501 32.4158 1.12498 30.3491C0.310605 30.263 0.282523 28.9139 1.09689 28.7704C19.2097 25.8712 22.4952 21.9674 24.2082 1.21407C24.2925 0.266819 25.4719 0.266819 25.5842 1.18536C28.2239 21.8526 31.6499 25.5842 49.875 27.6509C50.6893 27.737 50.7174 29.0861 49.9031 29.2296Z" stroke="var(--stroke-1, black)" stroke-miterlimit="10" stroke-opacity="0.2"/>
<path d="M49.9031 29.2296C31.7903 32.1288 28.5047 36.0326 26.7917 56.7859C26.7075 57.7332 25.5281 57.7332 25.4157 56.8146C22.776 36.1474 19.3501 32.4158 1.12498 30.3491C0.310605 30.263 0.282523 28.9139 1.09689 28.7704C19.2097 25.8712 22.4952 21.9674 24.2082 1.21407C24.2925 0.266819 25.4719 0.266819 25.5842 1.18536C28.2239 21.8526 31.6499 25.5842 49.875 27.6509C50.6893 27.737 50.7174 29.0861 49.9031 29.2296Z" stroke="var(--stroke-2, black)" stroke-miterlimit="10" stroke-opacity="0.2"/>
<path d="M49.9031 29.2296C31.7903 32.1288 28.5047 36.0326 26.7917 56.7859C26.7075 57.7332 25.5281 57.7332 25.4157 56.8146C22.776 36.1474 19.3501 32.4158 1.12498 30.3491C0.310605 30.263 0.282523 28.9139 1.09689 28.7704C19.2097 25.8712 22.4952 21.9674 24.2082 1.21407C24.2925 0.266819 25.4719 0.266819 25.5842 1.18536C28.2239 21.8526 31.6499 25.5842 49.875 27.6509C50.6893 27.737 50.7174 29.0861 49.9031 29.2296Z" stroke="var(--stroke-3, black)" stroke-miterlimit="10" stroke-opacity="0.2"/>
<path d="M49.9031 29.2296C31.7903 32.1288 28.5047 36.0326 26.7917 56.7859C26.7075 57.7332 25.5281 57.7332 25.4157 56.8146C22.776 36.1474 19.3501 32.4158 1.12498 30.3491C0.310605 30.263 0.282523 28.9139 1.09689 28.7704C19.2097 25.8712 22.4952 21.9674 24.2082 1.21407C24.2925 0.266819 25.4719 0.266819 25.5842 1.18536C28.2239 21.8526 31.6499 25.5842 49.875 27.6509C50.6893 27.737 50.7174 29.0861 49.9031 29.2296Z" stroke="var(--stroke-4, black)" stroke-miterlimit="10" stroke-opacity="0.2"/>
<path d="M49.9031 29.2296C31.7903 32.1288 28.5047 36.0326 26.7917 56.7859C26.7075 57.7332 25.5281 57.7332 25.4157 56.8146C22.776 36.1474 19.3501 32.4158 1.12498 30.3491C0.310605 30.263 0.282523 28.9139 1.09689 28.7704C19.2097 25.8712 22.4952 21.9674 24.2082 1.21407C24.2925 0.266819 25.4719 0.266819 25.5842 1.18536C28.2239 21.8526 31.6499 25.5842 49.875 27.6509C50.6893 27.737 50.7174 29.0861 49.9031 29.2296Z" stroke="var(--stroke-5, black)" stroke-miterlimit="10" stroke-opacity="0.2"/>
</g>
</svg>