<?xml version="1.0" encoding="utf-8"?>
<svg xmlns="http://www.w3.org/2000/svg" fill="none" height="100%" overflow="visible" preserveAspectRatio="none" style="display: block;" viewBox="0 0 4.16066 9.69316" width="100%">
<g id="_Repeticin_radial_-16">
<path d="M1.22173 5.51888C1.29173 4.52888 1.25173 3.51888 1.46173 2.53888C1.67173 1.55888 2.19172 0.598882 3.08172 0.138882C3.29172 0.0288821 3.54173 -0.0511179 3.77173 0.0388821C4.10173 0.158882 4.22173 0.598882 4.13173 0.948882C4.04173 1.29888 3.81173 1.57888 3.63173 1.88888C3.00173 2.94888 2.98173 4.25888 3.07173 5.48888C3.16173 6.71888 3.37173 7.96888 3.13173 9.17888C3.11173 9.25888 3.09173 9.34888 3.03173 9.39888C2.97173 9.43888 2.90172 9.44888 2.83172 9.45888C1.99172 9.51888 -0.178275 10.1889 0.0117253 8.94888C0.0817253 8.47888 0.591726 7.98888 0.781726 7.55888C1.07173 6.90888 1.18173 6.21888 1.23173 5.51888H1.22173Z" fill="var(--fill-0, black)" id="Vector"/>
</g>
</svg>