<?xml version="1.0" encoding="utf-8"?>
<svg xmlns="http://www.w3.org/2000/svg" fill="none" height="100%" overflow="visible" preserveAspectRatio="none" style="display: block;" viewBox="0 0 6.94464 9.07732" width="100%">
<g id="_Repeticin_radial_-27">
<path d="M4.11128 3.46072C4.80128 4.18072 5.58129 4.82072 6.16129 5.63072C6.74129 6.44072 7.12128 7.47072 6.86128 8.44072C6.80128 8.67072 6.69129 8.91072 6.48129 9.02072C6.16129 9.18072 5.76128 8.98072 5.56128 8.68072C5.36128 8.38072 5.30129 8.02072 5.19129 7.68072C4.82129 6.50072 3.86128 5.61072 2.88128 4.85072C1.90128 4.09072 0.841287 3.41072 0.0912872 2.42072C0.0412872 2.35072 -0.00871291 2.28072 0.00128709 2.20072C0.00128709 2.13072 0.0512872 2.07072 0.0912872 2.01072C0.611287 1.35072 1.57129 -0.70928 2.35129 0.25072C2.65129 0.61072 2.68129 1.32072 2.87129 1.75072C3.16129 2.40072 3.60129 2.94072 4.09129 3.45072L4.11128 3.46072Z" fill="var(--fill-0, black)" id="Vector"/>
</g>
</svg>