<?xml version="1.0" encoding="utf-8"?>
<svg xmlns="http://www.w3.org/2000/svg" fill="none" height="100%" overflow="visible" preserveAspectRatio="none" style="display: block;" viewBox="0 0 2.42038 37.9338" width="100%">
<path d="M0.0551237 37.3011C0.0551237 37.3011 -0.0348772 37.3211 0.0151228 37.3011C0.325123 37.2711 0.275127 37.3311 0.465127 37.3811C0.545127 37.4011 0.505122 37.3811 0.475122 37.4011C0.475122 37.4211 0.535124 37.1811 0.555124 36.9911L0.715127 35.8011C1.45513 25.6611 1.29512 14.4311 1.36512 4.23108C1.36512 3.42108 1.35512 2.61108 1.36512 1.80108C1.41512 0.941082 1.36513 0.661081 0.565126 0.671081L0.405122 0.15108C0.635122 0.0510804 0.865126 -0.00891734 1.13513 0.00108265C2.96513 0.161083 2.25512 3.00108 2.40512 4.22108C2.38512 8.95108 2.35513 14.1211 2.24513 18.8211C2.03513 24.9111 2.02512 31.0411 1.12512 37.0711C1.06512 37.2611 1.12513 37.4711 0.855127 37.8011C0.595127 38.0211 0.345125 37.9211 0.135126 37.8311C0.105126 37.8011 0.0451243 37.8311 0.165124 37.8111H0.185121C0.185121 37.8111 0.0951237 37.8311 0.0551237 37.8311V37.2911H0.0451215L0.0551237 37.3011Z" fill="var(--fill-0, #1D1D1B)" id="Vector"/>
</svg>