<?xml version="1.0" encoding="utf-8"?>
<svg xmlns="http://www.w3.org/2000/svg" fill="none" height="100%" overflow="visible" preserveAspectRatio="none" style="display: block;" viewBox="0 0 7.34449 8.46976" width="100%">
<g id="_Repeticin_radial_-3">
<path d="M4.70863 4.30805C4.23863 5.18805 3.86863 6.12805 3.27863 6.92805C2.68863 7.72805 1.81863 8.40805 0.828631 8.46805C0.588631 8.47805 0.328631 8.44805 0.158631 8.27805C-0.0913694 8.02805 -0.0213695 7.57805 0.198631 7.29805C0.418631 7.01805 0.748631 6.84805 1.03863 6.63805C2.04863 5.91805 2.59863 4.73805 3.00863 3.56805C3.41863 2.39805 3.74863 1.17805 4.45863 0.168051C4.50863 0.0980507 4.55863 0.0280508 4.63863 0.00805085C4.70863 -0.0119492 4.77863 0.00804963 4.84863 0.0380496C5.63863 0.32805 7.89863 0.59805 7.21863 1.64805C6.95863 2.04805 6.29863 2.28805 5.94863 2.60805C5.42863 3.08805 5.03863 3.66805 4.70863 4.28805V4.30805Z" fill="var(--fill-0, black)" id="Vector"/>
</g>
</svg>