<?xml version="1.0" encoding="utf-8"?>
<svg xmlns="http://www.w3.org/2000/svg" fill="none" height="100%" overflow="visible" preserveAspectRatio="none" style="display: block;" viewBox="0 0 7.34449 8.46977" width="100%">
<g id="_Repeticin_radial_-18">
<path d="M2.63586 4.16171C3.10586 3.28171 3.47586 2.34171 4.06586 1.54171C4.65586 0.741715 5.52586 0.0617149 6.51586 0.00171492C6.75586 -0.00828508 7.01586 0.0217145 7.18586 0.191714C7.43586 0.441714 7.36586 0.891715 7.14586 1.17171C6.92586 1.45171 6.59586 1.62171 6.30586 1.83171C5.29586 2.55171 4.74586 3.73171 4.33586 4.90171C3.92586 6.07171 3.59586 7.29171 2.88586 8.30171C2.83586 8.37171 2.78586 8.44171 2.70586 8.46171C2.63586 8.48171 2.56586 8.46171 2.49586 8.43171C1.70586 8.14171 -0.554139 7.87171 0.125861 6.82171C0.385861 6.42171 1.04586 6.18171 1.39586 5.86171C1.91586 5.38171 2.30586 4.80171 2.63586 4.18171V4.16171Z" fill="var(--fill-0, black)" id="Vector"/>
</g>
</svg>