<?xml version="1.0" encoding="utf-8"?>
<svg xmlns="http://www.w3.org/2000/svg" fill="none" height="100%" overflow="visible" preserveAspectRatio="none" style="display: block;" viewBox="0 0 147 24" width="100%">
<g clip-path="url(#clip0_0_1484)" id="logo">
<path d="M0.928706 0.348269H4.18225C4.56357 0.348269 4.908 0.617108 5.04945 1.03259L10.9538 18.5499C11.1014 19.002 11.3597 19.6375 11.9071 19.6375C13.7584 19.6375 14.5764 8.96945 14.5825 7.00815C14.5825 5.35234 14.6563 3.43381 14.4226 1.57637C14.3427 0.928717 14.7732 0.348269 15.339 0.348269H17.9714C18.5926 0.348269 19.0415 1.0387 18.8632 1.72301C17.5224 6.94094 14.0966 20.9145 12.4545 22.9491C11.9071 23.6395 11.126 24.0061 10.2281 24.0061C8.11849 24.0061 7.07293 22.3503 6.37793 20.5112C5.19091 17.1385 4.06539 13.7597 2.96448 10.4175C2.02962 7.55193 1.07016 4.69857 0.0676541 1.82077C-0.178361 1.11202 0.270616 0.348269 0.928706 0.348269Z" fill="var(--fill-0, black)" id="Vector"/>
<path d="M23.5252 0.311609H34.7865C35.1125 0.311609 35.3769 0.623218 35.3769 1.00815V3.39104C35.3769 4.02037 34.7188 4.33198 34.356 3.86762C33.0582 2.21181 31.1455 1.5947 28.9928 1.51527C28.7038 1.50306 28.4455 1.73523 28.384 2.07128C27.935 4.72912 27.8366 7.38697 27.8181 10.0387C27.8181 10.4358 28.0949 10.7597 28.4332 10.7413C29.9523 10.6619 31.1209 10.2648 31.9573 9.23218C32.3263 8.78004 32.9721 9.09165 32.9721 9.71487V12.8921C32.9721 13.5275 32.3202 13.8208 31.945 13.3686C31.1086 12.3605 30.0384 12.0672 28.5008 11.9633C28.1502 11.9389 27.855 12.2749 27.8735 12.6904C28.0026 15.7454 28.4393 19.7352 29.7063 22.3992C29.8231 22.6436 30.0446 22.778 30.2783 22.7597C32.0619 22.6008 33.661 21.7637 34.7557 20.3768C35.1186 19.9124 35.7767 20.224 35.7767 20.8534V23.2851C35.7767 23.6701 35.5122 23.9817 35.1863 23.9817H23.519C23.193 23.9817 22.9286 23.6701 22.9286 23.2851V1.01426C22.9286 0.629328 23.193 0.317719 23.519 0.317719L23.5252 0.311609Z" fill="var(--fill-0, black)" id="Vector_2"/>
<path d="M40.1742 3.18941C41.5765 2.6945 42.6098 1.83299 43.6799 0.812627C43.9628 0.543788 44.3811 0.598778 44.6086 0.934827C46.9212 4.38697 49.2091 7.79022 51.4663 11.2668C51.8538 11.8656 52.6656 11.5173 52.641 10.7658C52.5426 7.7108 52.192 4.05092 51.1219 1.42363C50.9128 0.910387 51.2326 0.317719 51.7123 0.317719H53.0346C53.3975 0.317719 53.6866 0.665988 53.6866 1.09369V22.8941C53.6866 23.6334 52.8932 23.9511 52.5119 23.3646C49.0984 18.1039 45.6357 11.8106 42.1423 6.59267C41.761 6.01833 40.9799 6.33605 40.9738 7.06314C40.9553 8.78004 41.0414 10.6069 41.0414 12.1711C41.0414 15.4705 41.3735 19.3014 42.4745 22.9796C42.6221 23.4807 42.3145 24.0122 41.8594 24.0122H40.3649C40.002 24.0122 39.7129 23.664 39.7129 23.2363V3.92872C39.7129 3.58656 39.9036 3.28717 40.1804 3.18941H40.1742Z" fill="var(--fill-0, black)" id="Vector_3"/>
<path d="M58.2071 22.8513V1.42363C58.2071 0.800407 58.6561 0.293279 59.2096 0.293279H66.1841C72.7958 0.293279 76.4061 5.8778 76.4061 12.1344C76.4061 18.391 72.7958 23.9756 66.1841 23.9756H59.2096C58.6561 23.9756 58.2071 23.4684 58.2071 22.8452V22.8513ZM65.3415 22.002C65.5568 22.4847 66.055 22.7475 66.5286 22.6008C70.3848 21.391 71.5104 15.5866 71.5104 12.2016C71.5104 8.46843 70.1019 1.4664 65.1078 1.4664H65.0463C64.5481 1.4664 64.1238 1.85743 64.0315 2.389C63.5579 5.17515 63.4841 8.01018 63.4841 10.8697C63.4841 14.0468 63.9331 18.8921 65.3415 21.9959V22.002Z" fill="var(--fill-0, black)" id="Vector_4"/>
<path d="M94.6542 0H98.1292C98.4674 0 98.7749 0.244399 98.898 0.610998L104.827 18.2261C104.975 18.6782 105.233 19.3136 105.78 19.3136C107.631 19.3136 108.818 10.4664 108.818 8.49898C108.818 7.05092 108.935 3.34827 108.493 1.19145C108.37 0.586558 108.757 0 109.292 0H111.986C112.539 0 112.933 0.617108 112.779 1.22811C111.469 6.32994 107.988 20.5723 106.328 22.6314C105.78 23.3279 104.999 23.6884 104.101 23.6884C101.992 23.6884 100.946 22.0265 100.251 20.1874C99.064 16.8086 97.9385 13.4297 96.8376 10.0815C95.8781 7.16701 94.9002 4.25255 93.8793 1.31976C93.664 0.690428 94.0576 0.00610998 94.6419 0.00610998L94.6542 0Z" fill="var(--fill-0, black)" id="Vector_5"/>
<path d="M119.379 2.90835C120.824 2.39511 121.79 1.56415 122.848 0.549898C123.124 0.281059 123.549 0.409369 123.678 0.806517L127.116 11.0468C128.444 15 129.945 18.8676 131.107 22.8635C131.224 23.2729 130.966 23.6945 130.603 23.6945H124.44C124.102 23.6945 123.856 23.3279 123.918 22.9369C124.035 22.2342 124.084 21.5255 124.084 20.7984C124.084 20.0285 124.028 19.2342 123.942 18.4521C123.912 18.1344 123.684 17.8961 123.413 17.8961H115.793C115.578 17.8961 115.381 18.055 115.295 18.2933C114.729 19.9735 114.212 21.6354 113.603 23.3157C113.517 23.5479 113.327 23.6945 113.111 23.6945H112.865C112.49 23.6945 112.232 23.2424 112.373 22.8269L119.04 3.28106C119.102 3.10387 119.231 2.96945 119.391 2.91446L119.379 2.90835ZM123.524 15.8126C122.891 12.5927 121.747 9.19552 120.369 6.20163C120.154 5.73727 119.575 5.78004 119.409 6.26884L116.18 15.7271C116.039 16.1426 116.297 16.5947 116.673 16.5947H123.007C123.352 16.5947 123.604 16.2159 123.524 15.8187V15.8126Z" fill="var(--fill-0, black)" id="Vector_6"/>
<path d="M84.7952 2.70672C86.2405 2.19348 87.2061 1.36253 88.264 0.348269C88.5407 0.0794297 88.9651 0.207739 89.0943 0.604888L92.5323 10.8452C93.8608 14.7984 95.3615 18.666 96.5239 22.6619C96.6408 23.0713 96.3825 23.4929 96.0196 23.4929H89.8569C89.5186 23.4929 89.2726 23.1263 89.3341 22.7352C89.451 22.0326 89.5002 21.3238 89.5002 20.5967C89.5002 19.8269 89.4448 19.0326 89.3587 18.2505C89.328 17.9328 89.1004 17.6945 88.8298 17.6945H81.2095C80.9942 17.6945 80.7974 17.8534 80.7113 18.0917C80.1455 19.7719 79.6288 21.4338 79.02 23.1141C78.9339 23.3462 78.7432 23.4929 78.5279 23.4929H78.2819C77.9067 23.4929 77.6484 23.0407 77.7899 22.6253L84.4569 3.07943C84.5184 2.90224 84.6475 2.76782 84.8075 2.71283L84.7952 2.70672ZM88.9467 15.611C88.3132 12.391 87.1692 8.99389 85.7915 6C85.5763 5.53564 84.9981 5.57841 84.8321 6.06721L81.6031 15.5255C81.4617 15.9409 81.72 16.3931 82.0951 16.3931H88.43C88.7744 16.3931 89.0266 16.0143 88.9467 15.6171V15.611Z" fill="var(--fill-0, black)" id="Vector_7"/>
<path d="M134.466 0H138.795C139.275 0 139.62 0.513238 139.509 1.04481C138.869 4.14257 138.795 7.32587 138.795 10.4542C138.795 13.7658 138.974 18.3238 140.425 21.391C140.567 21.6843 140.843 21.8554 141.139 21.831C142.879 21.6843 144.589 21.1772 145.782 20.053C146.268 19.5947 147 19.9735 147 20.6945V22.833C147 23.3035 146.668 23.6823 146.262 23.6823H134.466C134.06 23.6823 133.727 23.3035 133.727 22.833V0.849287C133.727 0.378819 134.06 0 134.466 0Z" fill="var(--fill-0, black)" id="Vector_8"/>
</g>
<defs>
<clipPath id="clip0_0_1484">
<rect fill="white" height="24" width="147"/>
</clipPath>
</defs>
</svg>