<?xml version="1.0" encoding="utf-8"?>
<svg xmlns="http://www.w3.org/2000/svg" fill="none" height="100%" overflow="visible" preserveAspectRatio="none" style="display: block;" viewBox="0 0 5.83744 9.1113" width="100%">
<g id="_Repeticin_radial_-17">
<path d="M1.95603 4.9213C2.22603 3.9613 2.39604 2.9713 2.80604 2.0613C3.21604 1.1513 3.92603 0.3113 4.88603 0.0512995C5.11603 -0.00870045 5.37604 -0.0387003 5.57604 0.0912997C5.87604 0.2813 5.89604 0.7313 5.74604 1.0513C5.59604 1.3713 5.30604 1.6013 5.06604 1.8713C4.23604 2.7813 3.93603 4.0513 3.77603 5.2813C3.61603 6.5113 3.54604 7.7713 3.06604 8.9013C3.03604 8.9813 2.99604 9.0613 2.92604 9.0913C2.86604 9.1213 2.78604 9.1113 2.71604 9.1013C1.88604 8.9813 -0.383963 9.1813 0.0560368 8.0213C0.226037 7.5813 0.816038 7.2013 1.09604 6.8213C1.50604 6.2513 1.76604 5.5913 1.96604 4.9213H1.95603Z" fill="var(--fill-0, black)" id="Vector"/>
</g>
</svg>