<?xml version="1.0" encoding="utf-8"?>
<svg xmlns="http://www.w3.org/2000/svg" fill="none" height="100%" overflow="visible" preserveAspectRatio="none" style="display: block;" viewBox="0 0 3.1116 10.0815" width="100%">
<g id="_Repeticin_radial_-30">
<path d="M2.63 4.19413C2.77 5.18413 3.02 6.15413 3.01 7.15413C3.01 8.15413 2.7 9.20413 1.93 9.83413C1.75 9.98413 1.52 10.1141 1.28 10.0741C0.929999 10.0241 0.72 9.62413 0.74 9.26413C0.76 8.90413 0.919999 8.57413 1.03 8.24413C1.42 7.07413 1.18 5.78413 0.83 4.60413C0.48 3.42413 0.02 2.24413 0 1.00413C0 0.924133 -7.63685e-07 0.834129 0.0499992 0.774129C0.0999992 0.714129 0.17 0.694131 0.24 0.674131C1.05 0.444131 3.04 -0.665869 3.11 0.584131C3.14 1.05413 2.74 1.64413 2.65 2.10413C2.5 2.79413 2.54 3.49413 2.63 4.19413Z" fill="var(--fill-0, black)" id="Vector"/>
</g>
</svg>