<?xml version="1.0" encoding="utf-8"?>
<svg xmlns="http://www.w3.org/2000/svg" fill="none" height="100%" overflow="visible" preserveAspectRatio="none" style="display: block;" viewBox="0 0 83.9068 138.905" width="100%">
<g id="Group">
<path d="M60.15 127.025C61.08 127.155 61.29 127.505 60.86 128.305C60.51 128.945 60.5 129.635 60.44 130.325C60.39 130.905 60.35 131.485 60.3 132.135C59.16 132.055 58.18 131.745 57.2 131.435C53.18 130.115 49.09 129.075 44.99 128.015C42.67 127.415 40.42 126.585 38.11 125.995C35.28 125.275 32.45 124.535 29.65 123.725C26.82 122.905 24 122.045 21.17 121.235C19.09 120.645 17.01 120.005 14.93 119.405C12.74 118.785 10.51 118.265 8.33 117.615C7.16 117.265 7.35 117.545 7.35 116.285C7.35 115.315 7.45 114.345 7.35 113.375C7.26 112.495 7.83 112.075 8.71 112.275C10.39 112.665 12.04 113.175 13.66 113.765C14.29 113.995 14.92 114.195 15.59 114.305C16.61 114.475 17.58 114.835 18.55 115.165C21.61 116.195 24.78 116.815 27.89 117.665C30.38 118.345 32.88 118.995 35.38 119.685C38.44 120.525 41.52 121.275 44.56 122.185C46.98 122.905 49.41 123.635 51.78 124.505C53.61 125.175 55.45 125.805 57.31 126.375C58.23 126.655 59.18 126.905 60.15 127.035V127.025Z" fill="var(--fill-0, black)" id="Vector"/>
<path d="M57.83 137.845C57.3 138.475 56.9 138.915 56.85 138.875C56.85 138.875 56.85 138.875 56.85 138.865C56.85 138.775 57.14 138.295 57.53 137.665C57.62 137.735 57.72 137.795 57.83 137.845Z" fill="var(--fill-0, black)" id="Vector_2"/>
<path d="M57.53 137.665C57.13 138.295 56.85 138.775 56.85 138.865L56.34 138.905C55.62 138.305 55.25 137.495 54.93 136.805C54.45 135.755 54.13 135.155 53.19 134.895C52.26 134.645 51.68 135.005 50.73 135.675C49.78 136.345 48.59 137.185 46.84 136.715C45.08 136.245 44.48 134.925 43.99 133.875C43.51 132.825 43.19 132.225 42.25 131.965C41.31 131.705 40.73 132.075 39.79 132.745C38.84 133.415 37.66 134.245 35.9 133.775C34.14 133.305 33.54 131.995 33.05 130.935C32.57 129.885 32.25 129.285 31.31 129.025C30.37 128.765 29.8 129.135 28.85 129.805C27.9 130.475 26.72 131.305 24.96 130.835C23.2 130.365 22.6 129.055 22.11 127.995C21.63 126.945 21.31 126.345 20.37 126.085C19.43 125.835 18.86 126.195 17.91 126.865C16.96 127.535 15.77 128.365 14.02 127.895C12.26 127.425 11.66 126.115 11.17 125.055C10.69 124.005 10.36 123.395 9.43 123.145C8.49 122.895 7.92 123.255 6.97 123.925C6.02 124.595 4.84 125.425 3.08 124.955C1.33 124.485 0.72 123.175 0.23 122.115C0.16 121.975 0.100001 121.845 0.0400009 121.715L0 121.165C3.07 120.185 6.81 118.155 7.01 117.995C7.03 117.975 7.15 117.885 7.33 117.855C7.54 117.825 7.71 117.905 7.76 117.925C8.68 118.255 9.58 118.625 10.52 118.875C13.97 119.765 17.35 120.895 20.78 121.855C23.65 122.655 26.48 123.565 29.34 124.405C32.09 125.215 34.87 125.915 37.65 126.615C39.62 127.105 41.53 127.815 43.49 128.345C48 129.565 52.54 130.675 56.99 132.135C57.84 132.415 58.71 132.595 59.58 132.775C60.27 132.905 60.41 133.305 60.04 133.925C60 133.995 59.96 134.035 59.94 134.055C59.72 134.305 58.37 136.305 57.52 137.645L57.53 137.665Z" fill="var(--fill-0, black)" id="Vector_3"/>
<path d="M32.73 70.3646C32.91 70.4946 32.96 70.6946 32.83 70.8846C32.25 71.7146 31.99 72.6646 31.71 73.6146C31.47 74.4146 31.15 75.1846 30.91 75.9846C30.07 78.8146 29.68 81.7446 29.07 84.6346C28.74 86.1646 28.76 87.7346 28.52 89.2646C28.08 92.0446 28.05 94.8546 27.83 97.6446C27.7 99.3346 27.63 101.025 27.45 102.715C27.38 103.345 27.34 103.985 27.29 104.595C27.5 104.735 27.7 104.685 27.89 104.715C28.65 104.825 29.26 105.195 29.67 105.835C30.07 106.445 30.41 107.075 30.49 107.825C30.53 108.175 30.62 108.525 30.73 109.065C31.36 107.835 31.68 106.705 31.94 105.575C32.46 103.355 32.9 101.115 33.41 98.8846C34.1 95.8446 34.87 92.8246 35.53 89.7846C36.39 85.8046 37.46 81.8946 38.75 78.0446C39.21 76.6846 39.93 75.4646 40.65 74.2446C40.82 73.9546 41.05 73.7046 41.38 73.9046C41.72 74.1146 41.38 74.3446 41.3 74.5446C40.5 76.3246 39.75 78.1146 39.24 80.0046C38.23 83.8246 37.04 87.5946 36.35 91.4946C36.09 92.9446 35.59 94.3546 35.45 95.8246C35.2 98.4846 34.48 101.075 34.32 103.745C34.27 104.685 34.15 105.615 34.06 106.585C34.38 106.535 34.6 106.455 34.81 106.465C35.19 106.475 35.6 106.465 35.92 106.735C36.67 107.405 37.21 108.195 37.25 109.245C37.25 109.455 37.25 109.665 37.41 109.965C37.66 109.635 37.7 109.335 37.76 109.055C37.83 108.755 37.85 108.445 37.94 108.155C38.86 105.325 39.74 102.475 41.01 99.7746C41.59 98.5446 42.2 97.3246 42.58 96.0046C43.02 94.4546 43.49 92.9146 43.98 91.3746C44.63 89.3046 45.26 87.2246 45.98 85.1846C46.82 82.8346 48.06 80.6946 49.45 78.6346C50.02 77.7846 50.68 76.9846 51.31 76.1646C51.53 75.8746 52.13 75.7346 52.33 75.9446C52.6 76.2346 52.33 76.4646 52.19 76.6846C51.72 77.4446 51.23 78.1846 50.74 78.9246C48.49 82.2946 46.96 85.9746 45.81 89.8346C45.56 90.6946 45.3 91.5446 45.07 92.4046C44.57 94.2046 43.97 95.9646 43.6 97.8046C43.05 100.535 42.56 103.265 42.35 106.045C42.32 106.415 42.01 106.755 42.24 107.145C43.3 106.865 43.72 106.965 44.24 107.655C44.36 107.815 44.45 107.985 44.55 108.145C44.99 108.845 45.37 109.575 45.49 110.425C45.66 110.115 45.74 109.835 45.84 109.545C46.09 108.805 46.26 108.025 46.61 107.345C47.6 105.415 48.45 103.415 49.43 101.475C50.68 99.0146 51.94 96.5646 53.21 94.1246C54.34 91.9446 55.49 89.7846 56.94 87.8046C58.77 85.3046 60.62 82.8346 62.16 80.1546C63.03 78.6346 64.08 77.2246 64.84 75.6246C64.96 75.3746 65.12 75.1446 65.3 74.9346C65.44 74.7746 65.64 74.6146 65.88 74.8046C66.09 74.9746 65.95 75.1646 65.88 75.3346C65.44 76.4446 64.95 77.5346 64.33 78.5646C64.21 78.7646 63.99 78.9446 64.08 79.2546C64.96 79.3346 65.84 79.4446 66.7 79.6446C67.87 79.9246 69.04 80.1746 70.2 80.4546C70.54 80.5346 70.75 80.5146 70.89 80.1046C71.13 79.3946 71.48 78.7246 71.73 78.0146C72.11 76.9346 72.42 75.8446 72.79 74.7646C73.53 72.6346 74.2 70.4846 74.74 68.2946C75.24 66.2346 75.51 64.1346 75.91 62.0646C76.35 59.7646 76.67 57.4546 76.74 55.1146C76.83 51.9646 76.81 48.8146 76.17 45.7146C75.75 43.6846 76.35 41.8746 77.2 40.0746C77.06 40.0046 76.91 39.9146 76.76 39.8646C75.17 39.3446 73.61 38.7546 71.95 38.5146C71.65 38.4746 71.34 38.3946 71.06 38.2846C68.97 37.4346 66.75 36.9646 64.63 36.2146C60.99 34.9346 57.27 33.8546 53.64 32.5046C52.29 32.0046 50.91 31.5546 49.61 30.9046C48.96 30.5746 48.97 30.5946 48.46 31.1646C47.31 32.4546 46.34 33.8946 45.23 35.2146C43.14 37.7146 41.07 40.2246 39.02 42.7646C35.94 46.5846 33.08 50.5446 30.52 54.7446C28.12 58.6846 26.23 62.8546 24.65 67.1746C23.91 69.2146 23.26 71.2846 22.65 73.3646C21.92 75.8146 21.37 78.3146 21.02 80.8546C20.82 82.3446 20.71 83.8346 20.5 85.3246C20.28 86.8646 20.2 88.4146 20.07 89.9646C19.97 91.0646 19.9 92.1846 19.88 93.2946C19.85 94.8446 19.88 96.3946 19.88 97.9446C20.18 98.0346 20.43 97.9546 20.67 98.0446C21.71 98.4046 22.51 99.4646 22.52 100.585C22.52 100.945 22.49 101.305 22.48 101.665C22.42 101.795 22.32 101.935 22.5 102.025C22.54 102.045 22.61 101.875 22.6 101.775C23.3 100.585 23.6 99.2546 23.91 97.9346C24.75 94.3046 25.73 90.7046 26.83 87.1346C27.41 85.2446 28.14 83.4046 28.52 81.4546C29.08 78.5546 29.93 75.7346 30.94 72.9546C31.21 72.2246 31.54 71.5146 31.92 70.8346C32 70.6846 32.09 70.5446 32.2 70.4246C32.35 70.2646 32.55 70.2246 32.73 70.3646ZM32.73 107.385C32.78 107.455 32.82 107.445 32.86 107.385C32.95 107.255 32.94 107.135 32.77 106.905C32.78 107.145 32.63 107.245 32.72 107.395L32.73 107.385ZM33.81 23.4146C33.81 23.4146 33.76 23.4946 33.73 23.5446C33.82 23.5946 33.9 23.6446 34 23.6846C34 23.6846 34.05 23.6046 34.07 23.5746C34.02 23.4546 33.92 23.4246 33.81 23.4146ZM14.2 113.115C14.54 113.235 14.89 113.365 15.24 113.425C16.23 113.595 17.19 113.865 18.14 114.185C19.78 114.735 21.43 115.225 23.11 115.635C24.92 116.075 26.74 116.475 28.54 116.975C31.22 117.715 33.91 118.415 36.6 119.125C39.45 119.875 42.31 120.595 45.14 121.445C48.18 122.355 51.17 123.405 54.18 124.395C55.98 124.985 57.74 125.655 59.6 126.065C60 126.155 60.38 126.225 60.85 126.205C60.55 124.515 60.51 122.875 60.33 121.245C60.12 119.365 59.98 117.475 59.93 115.595C59.85 112.145 59.72 108.695 60.37 105.275C60.72 103.445 60.93 101.585 61.41 99.7746C62.02 97.4746 62.94 95.3046 63.98 93.1646C65.79 89.4146 68.51 86.5246 72.03 84.3446C72.72 83.9146 73.48 83.6546 74.26 83.2746C74.15 83.1746 74.12 83.1246 74.07 83.1046C70.8 81.9846 67.46 81.1446 64.07 80.4446C63.27 80.2746 63.36 80.2146 62.89 80.9746C61.89 82.5846 60.93 84.2146 59.77 85.7146C57.69 88.4146 55.93 91.3046 54.35 94.3146C51.95 98.8746 49.72 103.515 47.45 108.125C47.4 108.225 47.33 108.325 47.32 108.425C47.19 109.295 46.76 110.055 46.5 110.875C46.21 111.775 45.85 112.655 45.36 113.465C44.92 114.195 44.54 114.985 43.79 115.485C42.4 116.435 40.69 115.685 40.47 114.025C40.44 113.835 40.45 113.635 40.45 113.445C40.45 110.855 40.55 108.275 41.05 105.725C41.22 104.895 41.19 104.395 41 103.765C39.97 106.435 39.09 109.085 38.46 111.825C38.2 112.955 37.69 113.925 36.74 114.595C35.73 115.315 34.18 115.535 33.23 114.315C32.86 113.835 32.78 113.305 32.77 112.755C32.75 111.635 32.77 110.525 32.77 109.415C32.77 108.805 32.77 108.195 32.77 107.545C32.34 107.855 32.44 108.335 32.26 108.695C31.72 109.775 31.01 110.735 30.28 111.685C29.33 112.925 28.35 113.005 27 112.225C26.12 111.715 25.81 111.025 25.79 110.045C25.76 108.455 26.06 106.895 26.14 105.315C26.21 103.895 26.5 102.505 26.55 101.085C26.6 99.8146 26.69 98.5346 26.79 97.2646C26.91 95.6846 26.95 94.1046 27.09 92.5246C27.14 91.9646 27.23 91.3946 27.22 90.7546C26.93 91.0246 26.89 91.3446 26.81 91.6246C26.39 93.1846 25.97 94.7446 25.6 96.3146C25.07 98.5346 24.56 100.765 23.47 102.795C22.97 103.735 22.28 104.475 21.31 104.915C20.41 105.335 19.19 105.255 19.03 103.775C18.99 103.415 18.92 103.065 18.93 102.695C18.99 99.3046 18.79 95.9046 19.06 92.5146C19.18 90.9646 19.13 89.3946 19.33 87.8546C19.61 85.6246 19.75 83.3746 20.05 81.1446C20.47 78.0746 21.07 75.0546 22.03 72.1146C22.31 71.2546 22.53 70.3746 22.81 69.4146C22.26 69.5446 21.82 69.5446 21.38 69.5346C20.6 69.5146 19.81 69.5846 19.15 70.0746C17.99 70.9446 16.83 71.8246 15.89 72.9346C14.73 74.3046 13.89 75.8746 13.13 77.4946C11.87 80.1646 10.63 82.8446 9.87 85.7146C8.9 89.3646 8.62 93.1146 8.51 96.8746C8.5 97.2646 8.54 97.6546 8.47 98.0446C8.3 99.1246 8.27 100.205 8.25 101.285C8.19 104.515 8.16 107.745 8.33 110.975C8.35 111.435 8.5 111.575 8.93 111.665C10.74 112.015 12.49 112.545 14.23 113.155L14.2 113.115ZM15.59 114.295C14.93 114.185 14.29 113.985 13.66 113.755C12.04 113.175 10.39 112.655 8.71 112.265C7.83 112.065 7.26 112.495 7.35 113.365C7.45 114.345 7.35 115.305 7.35 116.275C7.35 117.535 7.15 117.255 8.33 117.605C10.51 118.255 12.74 118.775 14.93 119.395C17.01 119.985 19.09 120.625 21.17 121.225C24 122.035 26.82 122.895 29.65 123.715C32.46 124.525 35.28 125.265 38.11 125.985C40.43 126.575 42.67 127.405 44.99 128.005C49.08 129.065 53.18 130.105 57.2 131.425C58.18 131.745 59.16 132.045 60.3 132.125C60.35 131.475 60.39 130.895 60.44 130.315C60.49 129.625 60.5 128.935 60.86 128.295C61.29 127.495 61.08 127.135 60.15 127.015C59.18 126.885 58.24 126.635 57.31 126.355C55.45 125.795 53.61 125.155 51.78 124.485C49.4 123.615 46.98 122.885 44.56 122.165C41.52 121.255 38.44 120.505 35.38 119.665C32.89 118.985 30.39 118.335 27.89 117.645C24.78 116.795 21.61 116.175 18.55 115.145C17.57 114.815 16.6 114.455 15.59 114.285V114.295ZM5.83 118.175C5.91 118.145 6.12 118.065 6.25 117.865C6.33 117.735 6.36 117.555 6.33 117.315C6.21 116.175 6.37 115.035 6.38 113.895C6.38 113.315 6.25 112.715 6.34 112.145C6.42 111.695 6.5 110.895 6.7 110.625C6.88 110.385 6.84 110.145 6.82 109.915C6.66 107.715 6.74 105.515 6.67 103.325C6.62 101.625 6.71 99.9246 6.83 98.2346C6.96 96.5946 6.86 94.9546 7 93.3146C7.28 90.2046 7.58 87.1046 8.54 84.1146C9.06 82.4946 9.5 80.8546 10.17 79.2946C11.35 76.5146 12.84 73.9046 14.8 71.6046C15.78 70.4546 16.95 69.4946 18.23 68.6946C19.47 67.9046 20.9 67.7446 22.33 68.0346C22.97 68.1646 22.98 68.1646 23.15 67.6046C24.02 64.7146 25.37 62.0246 26.56 59.2646C27.61 56.8546 29.06 54.6746 30.42 52.4346C31.18 51.1746 31.96 49.9146 32.8 48.7046C34.09 46.8546 35.49 45.0846 36.88 43.3046C39.26 40.2546 41.73 37.2746 44.27 34.3546C44.78 33.7646 45.22 33.1246 45.69 32.5046C45.96 32.2246 46.24 31.9646 46.35 31.5746C46 31.7746 45.64 31.9246 45.42 32.2646C44.5 32.5646 43.7 33.1746 42.73 33.3746C40.98 33.7346 39.24 34.0346 37.44 34.0346C36.5 34.0346 35.57 34.2546 34.62 34.1946C33.29 34.1146 31.95 34.1146 30.62 33.9346C28.81 33.6946 27.1 33.1146 25.48 32.2846C24.04 31.5446 22.68 30.6846 21.3 29.8346C19.41 28.6746 17.35 27.9246 15.2 27.3946C14.71 27.2746 14.22 27.1746 13.85 26.7946C13.43 26.3646 13.44 25.9946 13.87 25.5746C16.62 22.8846 19.96 21.6646 23.78 21.6946C25.56 21.7046 27.34 21.7846 29.11 22.0546C29.72 22.1446 30.3 22.3346 30.88 22.5346C31.64 22.8046 32.41 23.0446 33.18 23.2946C33.31 23.3346 33.45 23.4046 33.53 23.2246C33.58 23.0946 33.51 23.0146 33.42 22.9446C31.65 21.6646 30.52 19.8146 29.18 18.1446C28.74 17.6046 28.33 17.0446 28.02 16.4146C27.14 14.6446 26.09 12.9746 25.31 11.1546C24.73 9.79463 24.33 8.38463 24.02 6.93463C23.6 5.01463 23.25 3.05463 22.16 1.35463C21.94 1.00463 21.85 0.614628 22.13 0.264628C22.42 -0.0953722 22.82 -0.0353714 23.2 0.134629C24.01 0.504629 24.82 0.864629 25.63 1.23463C28.91 2.72463 31.96 4.61463 34.87 6.72463C36.06 7.58463 37.2 8.53463 38.33 9.48463C39.41 10.3946 40.19 11.5646 40.95 12.7146C42.6 15.2346 43.83 17.9846 44.81 20.8246C45.33 22.3346 45.95 23.7746 46.77 25.1346C47.01 25.5346 47.16 25.9946 47.36 26.4646C49.36 25.5746 51.54 25.2746 53.67 24.8046C55.03 24.5046 56.38 24.1646 57.78 24.1446C58.13 24.1446 58.49 24.0246 58.84 23.9146C60.5 23.4146 62.2 23.1146 63.88 22.7246C64.7 22.5346 65.47 22.2146 66.27 21.9946C69.95 21.0046 73.65 20.0446 77.42 19.4646C78.59 19.2846 79.81 19.2746 80.99 19.5246C82.1 19.7646 82.78 20.5846 83.41 21.4546C83.54 21.6346 83.56 21.8746 83.56 22.0946C83.56 23.0146 83.58 23.9146 83.79 24.8246C84.07 26.0746 83.79 27.3246 83.54 28.5446C83.16 30.4846 82.88 32.4346 82.57 34.3846C82.32 35.9746 82.04 37.5646 81.26 39.0246C80.78 39.9246 80.16 40.5446 79.14 40.7346C78.98 40.7646 78.82 40.8346 78.66 40.8646C78.17 40.9546 77.91 41.2446 77.75 41.7146C77.3 43.0446 77.27 44.4046 77.62 45.7446C77.97 47.0746 78.1 48.4246 78.08 49.7946C78.05 51.4346 78.13 53.0846 78.05 54.7246C77.96 56.6346 77.87 58.5546 77.46 60.4446C76.97 62.6746 76.78 64.9546 76.22 67.1746C75.15 71.3846 73.86 75.5346 72.36 79.6046C72.23 79.9646 71.98 80.2846 71.92 80.7046C72.87 81.1646 73.9 81.3046 74.87 81.5946C75.29 81.7246 75.73 81.8046 76.16 81.9246C76.58 82.0446 77.05 82.0446 77.31 82.5046C77.7 83.1846 78.11 83.8246 78.01 84.6746C77.84 86.0446 77.29 87.3046 76.84 88.5846C76.06 90.8146 75.13 92.9946 74.6 95.3046C74.34 96.4446 73.79 97.4946 73.41 98.5946C72.42 101.465 71.43 104.335 70.34 107.165C68.52 111.895 66.97 116.725 64.88 121.345C64.47 122.255 64.13 123.205 63.69 124.105C62.64 126.255 62.27 128.605 61.69 130.885C61.46 131.765 61.07 132.615 61 133.535C61 133.615 60.93 133.685 60.89 133.755C60.55 134.395 58.92 136.505 57.84 137.785C57.73 137.735 57.63 137.675 57.54 137.605C58.38 136.265 59.74 134.265 59.96 134.015C59.98 133.995 60.02 133.955 60.06 133.885C60.43 133.265 60.29 132.865 59.6 132.735C58.72 132.565 57.85 132.375 57.01 132.095C52.56 130.635 48.02 129.525 43.51 128.305C41.55 127.775 39.64 127.075 37.67 126.575C34.89 125.875 32.11 125.165 29.36 124.365C26.51 123.525 23.67 122.615 20.8 121.815C17.37 120.855 13.99 119.725 10.54 118.835C9.6 118.595 8.69 118.215 7.78 117.885C7.72 117.865 7.55 117.785 7.35 117.815C7.17 117.845 7.05 117.945 7.03 117.955C6.83 118.105 3.09 120.145 0.0200005 121.125C1.67 120.385 5.42 118.265 5.86 118.115L5.83 118.175ZM76.35 85.5946C76.43 85.0546 76.53 84.5146 76.27 83.9446C75.53 84.3346 74.85 84.7046 74.15 85.0546C72.11 86.0646 70.27 87.3546 68.75 89.0546C67.56 90.3746 66.37 91.7046 65.53 93.3046C63.98 96.2846 62.81 99.3946 62.24 102.725C61.85 105.005 61.33 107.255 61.26 109.575C61.18 112.405 61.17 115.255 61.36 118.085C61.37 118.225 61.41 118.365 61.42 118.495C61.46 119.665 61.72 120.815 61.75 121.985C61.78 122.815 61.89 123.635 61.96 124.445C62.21 124.465 62.25 124.375 62.28 124.305C63.12 122.485 63.99 120.685 64.68 118.795C65.75 115.835 66.6 112.805 67.68 109.855C68.78 106.855 69.82 103.825 71.03 100.865C71.84 98.8846 72.76 96.9446 73.45 94.9146C73.99 93.3046 74.46 91.6746 75.07 90.0846C75.62 88.6346 76.13 87.1546 76.35 85.5946Z" fill="var(--fill-0, black)" id="Vector_4"/>
</g>
</svg>