<?xml version="1.0" encoding="utf-8"?>
<svg xmlns="http://www.w3.org/2000/svg" fill="none" height="100%" overflow="visible" preserveAspectRatio="none" style="display: block;" viewBox="0 0 47.0497 47.1484" width="100%">
<path d="M41.2722 7.78557C33.0722 -1.53443 20.9422 0.045567 20.0022 0.185567C18.6722 0.375567 8.62219 2.04557 3.16219 11.3156C2.39219 12.6156 -0.717807 18.1956 0.152193 25.4356C1.34219 35.2056 9.61219 46.5256 22.4522 47.1256C35.5522 47.7156 45.4322 36.7756 46.8622 25.9456C48.2022 15.9056 41.9422 8.54557 41.2722 7.79557V7.78557ZM45.0922 25.7556C43.7622 35.7656 34.6422 45.8856 22.5322 45.3356C10.6622 44.7956 3.02219 34.3256 1.93219 25.2956C1.11219 18.6056 4.00219 13.4456 4.70219 12.2556C9.76219 3.68557 19.0322 2.14557 20.2622 1.96557C21.1222 1.84557 32.3322 0.375567 39.9122 8.98557C40.5322 9.69557 46.3222 16.4756 45.0822 25.7556H45.0922Z" fill="var(--fill-0, black)" id="Vector"/>
</svg>