<?xml version="1.0" encoding="utf-8"?>
<svg xmlns="http://www.w3.org/2000/svg" fill="none" height="100%" overflow="visible" preserveAspectRatio="none" style="display: block;" viewBox="0 0 65.2204 19.2969" width="100%">
<path d="M64.3902 18.4667C63.8302 17.3267 63.4502 16.0567 61.8802 15.6267C59.1502 14.8967 58.2702 18.1767 55.5302 17.4367C52.7902 16.6967 53.6702 13.4267 50.9402 12.6967C48.2102 11.9667 47.3302 15.2467 44.5902 14.5067C41.8502 13.7667 42.7302 10.4967 40.0002 9.7567C37.2702 9.0167 36.3902 12.3067 33.6502 11.5667C30.9102 10.8267 31.7902 7.5567 29.0602 6.8167C26.3302 6.0767 25.4502 9.36671 22.7102 8.62671C19.9702 7.89671 20.8502 4.61671 18.1202 3.87671C15.3802 3.14671 14.5102 6.42671 11.7702 5.68671C9.03021 4.95671 9.91021 1.67671 7.18021 0.936706C4.44021 0.206706 3.57021 3.4867 0.830207 2.7467" id="Vector" stroke="var(--stroke-0, black)" stroke-linecap="round" stroke-miterlimit="10" stroke-width="1.66"/>
</svg>