<?xml version="1.0" encoding="utf-8"?>
<svg xmlns="http://www.w3.org/2000/svg" fill="none" height="100%" overflow="visible" preserveAspectRatio="none" style="display: block;" viewBox="0 0 192 192" width="100%">
<g id="MANO PARA FOOTER-24 2">
<g id="Group">
<path d="M114.7 144.07C115.63 144.2 115.84 144.55 115.41 145.35C115.06 145.99 115.05 146.68 114.99 147.37C114.94 147.95 114.9 148.53 114.85 149.18C113.71 149.1 112.73 148.79 111.75 148.48C107.73 147.16 103.64 146.12 99.54 145.06C97.22 144.46 94.97 143.63 92.66 143.04C89.83 142.32 87 141.58 84.2 140.77C81.37 139.95 78.55 139.09 75.72 138.28C73.64 137.69 71.56 137.05 69.48 136.45C67.29 135.83 65.06 135.31 62.88 134.66C61.71 134.31 61.9 134.59 61.9 133.33C61.9 132.36 62 131.39 61.9 130.42C61.81 129.54 62.38 129.12 63.26 129.32C64.94 129.71 66.59 130.22 68.21 130.81C68.84 131.04 69.47 131.24 70.14 131.35C71.16 131.52 72.13 131.88 73.1 132.21C76.16 133.24 79.33 133.86 82.44 134.71C84.93 135.39 87.43 136.04 89.93 136.73C92.99 137.57 96.07 138.32 99.11 139.23C101.53 139.95 103.96 140.68 106.33 141.55C108.16 142.22 110 142.85 111.86 143.42C112.78 143.7 113.73 143.95 114.7 144.08V144.07Z" fill="var(--fill-0, black)" id="Vector"/>
<path d="M112.38 154.89C111.85 155.52 111.45 155.96 111.4 155.92C111.4 155.92 111.4 155.92 111.4 155.91C111.4 155.82 111.69 155.34 112.08 154.71C112.17 154.78 112.27 154.84 112.38 154.89Z" fill="var(--fill-0, black)" id="Vector_2"/>
<path d="M112.08 154.71C111.68 155.34 111.4 155.82 111.4 155.91L110.89 155.95C110.17 155.35 109.8 154.54 109.48 153.85C109 152.8 108.68 152.2 107.74 151.94C106.81 151.69 106.23 152.05 105.28 152.72C104.33 153.39 103.14 154.23 101.39 153.76C99.63 153.29 99.03 151.97 98.54 150.92C98.06 149.87 97.74 149.27 96.8 149.01C95.86 148.75 95.28 149.12 94.34 149.79C93.39 150.46 92.21 151.29 90.45 150.82C88.69 150.35 88.09 149.04 87.6 147.98C87.12 146.93 86.8 146.33 85.86 146.07C84.92 145.81 84.35 146.18 83.4 146.85C82.45 147.52 81.27 148.35 79.51 147.88C77.75 147.41 77.15 146.1 76.66 145.04C76.18 143.99 75.86 143.39 74.92 143.13C73.98 142.88 73.41 143.24 72.46 143.91C71.51 144.58 70.32 145.41 68.57 144.94C66.81 144.47 66.21 143.16 65.72 142.1C65.24 141.05 64.91 140.44 63.98 140.19C63.04 139.94 62.47 140.3 61.52 140.97C60.57 141.64 59.39 142.47 57.63 142C55.88 141.53 55.27 140.22 54.78 139.16C54.71 139.02 54.65 138.89 54.59 138.76L54.55 138.21C57.62 137.23 61.36 135.2 61.56 135.04C61.58 135.02 61.7 134.93 61.88 134.9C62.09 134.87 62.26 134.95 62.31 134.97C63.23 135.3 64.13 135.67 65.07 135.92C68.52 136.81 71.9 137.94 75.33 138.9C78.2 139.7 81.03 140.61 83.89 141.45C86.64 142.26 89.42 142.96 92.2 143.66C94.17 144.15 96.08 144.86 98.04 145.39C102.55 146.61 107.09 147.72 111.54 149.18C112.39 149.46 113.26 149.64 114.13 149.82C114.82 149.95 114.96 150.35 114.59 150.97C114.55 151.04 114.51 151.08 114.49 151.1C114.27 151.35 112.92 153.35 112.07 154.69L112.08 154.71Z" fill="var(--fill-0, black)" id="Vector_3"/>
<path d="M87.28 87.41C87.46 87.54 87.51 87.74 87.38 87.93C86.8 88.76 86.54 89.71 86.26 90.66C86.02 91.46 85.7 92.23 85.46 93.03C84.62 95.86 84.23 98.79 83.62 101.68C83.29 103.21 83.31 104.78 83.07 106.31C82.63 109.09 82.6 111.9 82.38 114.69C82.25 116.38 82.18 118.07 82 119.76C81.93 120.39 81.89 121.03 81.84 121.64C82.05 121.78 82.25 121.73 82.44 121.76C83.2 121.87 83.81 122.24 84.22 122.88C84.62 123.49 84.96 124.12 85.04 124.87C85.08 125.22 85.17 125.57 85.28 126.11C85.91 124.88 86.23 123.75 86.49 122.62C87.01 120.4 87.45 118.16 87.96 115.93C88.65 112.89 89.42 109.87 90.08 106.83C90.94 102.85 92.01 98.94 93.3 95.09C93.76 93.73 94.48 92.51 95.2 91.29C95.37 91 95.6 90.75 95.93 90.95C96.27 91.16 95.93 91.39 95.85 91.59C95.05 93.37 94.3 95.16 93.79 97.05C92.78 100.87 91.59 104.64 90.9 108.54C90.64 109.99 90.14 111.4 90 112.87C89.75 115.53 89.03 118.12 88.87 120.79C88.82 121.73 88.7 122.66 88.61 123.63C88.93 123.58 89.15 123.5 89.36 123.51C89.74 123.52 90.15 123.51 90.47 123.78C91.22 124.45 91.76 125.24 91.8 126.29C91.8 126.5 91.8 126.71 91.96 127.01C92.21 126.68 92.25 126.38 92.31 126.1C92.38 125.8 92.4 125.49 92.49 125.2C93.41 122.37 94.29 119.52 95.56 116.82C96.14 115.59 96.75 114.37 97.13 113.05C97.57 111.5 98.04 109.96 98.53 108.42C99.18 106.35 99.81 104.27 100.53 102.23C101.37 99.88 102.61 97.74 104 95.68C104.57 94.83 105.23 94.03 105.86 93.21C106.08 92.92 106.68 92.78 106.88 92.99C107.15 93.28 106.88 93.51 106.74 93.73C106.27 94.49 105.78 95.23 105.29 95.97C103.04 99.34 101.51 103.02 100.36 106.88C100.11 107.74 99.85 108.59 99.62 109.45C99.12 111.25 98.52 113.01 98.15 114.85C97.6 117.58 97.11 120.31 96.9 123.09C96.87 123.46 96.56 123.8 96.79 124.19C97.85 123.91 98.27 124.01 98.79 124.7C98.91 124.86 99 125.03 99.1 125.19C99.54 125.89 99.92 126.62 100.04 127.47C100.21 127.16 100.29 126.88 100.39 126.59C100.64 125.85 100.81 125.07 101.16 124.39C102.15 122.46 103 120.46 103.98 118.52C105.23 116.06 106.49 113.61 107.76 111.17C108.89 108.99 110.04 106.83 111.49 104.85C113.32 102.35 115.17 99.88 116.71 97.2C117.58 95.68 118.63 94.27 119.39 92.67C119.51 92.42 119.67 92.19 119.85 91.98C119.99 91.82 120.19 91.66 120.43 91.85C120.64 92.02 120.5 92.21 120.43 92.38C119.99 93.49 119.5 94.58 118.88 95.61C118.76 95.81 118.54 95.99 118.63 96.3C119.51 96.38 120.39 96.49 121.25 96.69C122.42 96.97 123.59 97.22 124.75 97.5C125.09 97.58 125.3 97.56 125.44 97.15C125.68 96.44 126.03 95.77 126.28 95.06C126.66 93.98 126.97 92.89 127.34 91.81C128.08 89.68 128.75 87.53 129.29 85.34C129.79 83.28 130.06 81.18 130.46 79.11C130.9 76.81 131.22 74.5 131.29 72.16C131.38 69.01 131.36 65.86 130.72 62.76C130.3 60.73 130.9 58.92 131.75 57.12C131.61 57.05 131.46 56.96 131.31 56.91C129.72 56.39 128.16 55.8 126.5 55.56C126.2 55.52 125.89 55.44 125.61 55.33C123.52 54.48 121.3 54.01 119.18 53.26C115.54 51.98 111.82 50.9 108.19 49.55C106.84 49.05 105.46 48.6 104.16 47.95C103.51 47.62 103.52 47.64 103.01 48.21C101.86 49.5 100.89 50.94 99.78 52.26C97.69 54.76 95.62 57.27 93.57 59.81C90.49 63.63 87.63 67.59 85.07 71.79C82.67 75.73 80.78 79.9 79.2 84.22C78.46 86.26 77.81 88.33 77.2 90.41C76.47 92.86 75.92 95.36 75.57 97.9C75.37 99.39 75.26 100.88 75.05 102.37C74.83 103.91 74.75 105.46 74.62 107.01C74.52 108.11 74.45 109.23 74.43 110.34C74.4 111.89 74.43 113.44 74.43 114.99C74.73 115.08 74.98 115 75.22 115.09C76.26 115.45 77.06 116.51 77.07 117.63C77.07 117.99 77.04 118.35 77.03 118.71C76.97 118.84 76.87 118.98 77.05 119.07C77.09 119.09 77.16 118.92 77.15 118.82C77.85 117.63 78.15 116.3 78.46 114.98C79.3 111.35 80.28 107.75 81.38 104.18C81.96 102.29 82.69 100.45 83.07 98.5C83.63 95.6 84.48 92.78 85.49 90C85.76 89.27 86.09 88.56 86.47 87.88C86.55 87.73 86.64 87.59 86.75 87.47C86.9 87.31 87.1 87.27 87.28 87.41ZM87.28 124.43C87.33 124.5 87.37 124.49 87.41 124.43C87.5 124.3 87.49 124.18 87.32 123.95C87.33 124.19 87.18 124.29 87.27 124.44L87.28 124.43ZM88.36 40.46C88.36 40.46 88.31 40.54 88.28 40.59C88.37 40.64 88.45 40.69 88.55 40.73C88.55 40.73 88.6 40.65 88.62 40.62C88.57 40.5 88.47 40.47 88.36 40.46ZM68.75 130.16C69.09 130.28 69.44 130.41 69.79 130.47C70.78 130.64 71.74 130.91 72.69 131.23C74.33 131.78 75.98 132.27 77.66 132.68C79.47 133.12 81.29 133.52 83.09 134.02C85.77 134.76 88.46 135.46 91.15 136.17C94 136.92 96.86 137.64 99.69 138.49C102.73 139.4 105.72 140.45 108.73 141.44C110.53 142.03 112.29 142.7 114.15 143.11C114.55 143.2 114.93 143.27 115.4 143.25C115.1 141.56 115.06 139.92 114.88 138.29C114.67 136.41 114.53 134.52 114.48 132.64C114.4 129.19 114.27 125.74 114.92 122.32C115.27 120.49 115.48 118.63 115.96 116.82C116.57 114.52 117.49 112.35 118.53 110.21C120.34 106.46 123.06 103.57 126.58 101.39C127.27 100.96 128.03 100.7 128.81 100.32C128.7 100.22 128.67 100.17 128.62 100.15C125.35 99.03 122.01 98.19 118.62 97.49C117.82 97.32 117.91 97.26 117.44 98.02C116.44 99.63 115.48 101.26 114.32 102.76C112.24 105.46 110.48 108.35 108.9 111.36C106.5 115.92 104.27 120.56 102 125.17C101.95 125.27 101.88 125.37 101.87 125.47C101.74 126.34 101.31 127.1 101.05 127.92C100.76 128.82 100.4 129.7 99.91 130.51C99.47 131.24 99.09 132.03 98.34 132.53C96.95 133.48 95.24 132.73 95.02 131.07C94.99 130.88 95 130.68 95 130.49C95 127.9 95.1 125.32 95.6 122.77C95.77 121.94 95.74 121.44 95.55 120.81C94.52 123.48 93.64 126.13 93.01 128.87C92.75 130 92.24 130.97 91.29 131.64C90.28 132.36 88.73 132.58 87.78 131.36C87.41 130.88 87.33 130.35 87.32 129.8C87.3 128.68 87.32 127.57 87.32 126.46C87.32 125.85 87.32 125.24 87.32 124.59C86.89 124.9 86.99 125.38 86.81 125.74C86.27 126.82 85.56 127.78 84.83 128.73C83.88 129.97 82.9 130.05 81.55 129.27C80.67 128.76 80.36 128.07 80.34 127.09C80.31 125.5 80.61 123.94 80.69 122.36C80.76 120.94 81.05 119.55 81.1 118.13C81.15 116.86 81.24 115.58 81.34 114.31C81.46 112.73 81.5 111.15 81.64 109.57C81.69 109.01 81.78 108.44 81.77 107.8C81.48 108.07 81.44 108.39 81.36 108.67C80.94 110.23 80.52 111.79 80.15 113.36C79.62 115.58 79.11 117.81 78.02 119.84C77.52 120.78 76.83 121.52 75.86 121.96C74.96 122.38 73.74 122.3 73.58 120.82C73.54 120.46 73.47 120.11 73.48 119.74C73.54 116.35 73.34 112.95 73.61 109.56C73.73 108.01 73.68 106.44 73.88 104.9C74.16 102.67 74.3 100.42 74.6 98.19C75.02 95.12 75.62 92.1 76.58 89.16C76.86 88.3 77.08 87.42 77.36 86.46C76.81 86.59 76.37 86.59 75.93 86.58C75.15 86.56 74.36 86.63 73.7 87.12C72.54 87.99 71.38 88.87 70.44 89.98C69.28 91.35 68.44 92.92 67.68 94.54C66.42 97.21 65.18 99.89 64.42 102.76C63.45 106.41 63.17 110.16 63.06 113.92C63.05 114.31 63.09 114.7 63.02 115.09C62.85 116.17 62.82 117.25 62.8 118.33C62.74 121.56 62.71 124.79 62.88 128.02C62.9 128.48 63.05 128.62 63.48 128.71C65.29 129.06 67.04 129.59 68.78 130.2L68.75 130.16ZM70.14 131.34C69.48 131.23 68.84 131.03 68.21 130.8C66.59 130.22 64.94 129.7 63.26 129.31C62.38 129.11 61.81 129.54 61.9 130.41C62 131.39 61.9 132.35 61.9 133.32C61.9 134.58 61.7 134.3 62.88 134.65C65.06 135.3 67.29 135.82 69.48 136.44C71.56 137.03 73.64 137.67 75.72 138.27C78.55 139.08 81.37 139.94 84.2 140.76C87.01 141.57 89.83 142.31 92.66 143.03C94.98 143.62 97.22 144.45 99.54 145.05C103.63 146.11 107.73 147.15 111.75 148.47C112.73 148.79 113.71 149.09 114.85 149.17C114.9 148.52 114.94 147.94 114.99 147.36C115.04 146.67 115.05 145.98 115.41 145.34C115.84 144.54 115.63 144.18 114.7 144.06C113.73 143.93 112.79 143.68 111.86 143.4C110 142.84 108.16 142.2 106.33 141.53C103.95 140.66 101.53 139.93 99.11 139.21C96.07 138.3 92.99 137.55 89.93 136.71C87.44 136.03 84.94 135.38 82.44 134.69C79.33 133.84 76.16 133.22 73.1 132.19C72.12 131.86 71.15 131.5 70.14 131.33V131.34ZM60.38 135.22C60.46 135.19 60.67 135.11 60.8 134.91C60.88 134.78 60.91 134.6 60.88 134.36C60.76 133.22 60.92 132.08 60.93 130.94C60.93 130.36 60.8 129.76 60.89 129.19C60.97 128.74 61.05 127.94 61.25 127.67C61.43 127.43 61.39 127.19 61.37 126.96C61.21 124.76 61.29 122.56 61.22 120.37C61.17 118.67 61.26 116.97 61.38 115.28C61.51 113.64 61.41 112 61.55 110.36C61.83 107.25 62.13 104.15 63.09 101.16C63.61 99.54 64.05 97.9 64.72 96.34C65.9 93.56 67.39 90.95 69.35 88.65C70.33 87.5 71.5 86.54 72.78 85.74C74.02 84.95 75.45 84.79 76.88 85.08C77.52 85.21 77.53 85.21 77.7 84.65C78.57 81.76 79.92 79.07 81.11 76.31C82.16 73.9 83.61 71.72 84.97 69.48C85.73 68.22 86.51 66.96 87.35 65.75C88.64 63.9 90.04 62.13 91.43 60.35C93.81 57.3 96.28 54.32 98.82 51.4C99.33 50.81 99.77 50.17 100.24 49.55C100.51 49.27 100.79 49.01 100.9 48.62C100.55 48.82 100.19 48.97 99.97 49.31C99.05 49.61 98.25 50.22 97.28 50.42C95.53 50.78 93.79 51.08 91.99 51.08C91.05 51.08 90.12 51.3 89.17 51.24C87.84 51.16 86.5 51.16 85.17 50.98C83.36 50.74 81.65 50.16 80.03 49.33C78.59 48.59 77.23 47.73 75.85 46.88C73.96 45.72 71.9 44.97 69.75 44.44C69.26 44.32 68.77 44.22 68.4 43.84C67.98 43.41 67.99 43.04 68.42 42.62C71.17 39.93 74.51 38.71 78.33 38.74C80.11 38.75 81.89 38.83 83.66 39.1C84.27 39.19 84.85 39.38 85.43 39.58C86.19 39.85 86.96 40.09 87.73 40.34C87.86 40.38 88 40.45 88.08 40.27C88.13 40.14 88.06 40.06 87.97 39.99C86.2 38.71 85.07 36.86 83.73 35.19C83.29 34.65 82.88 34.09 82.57 33.46C81.69 31.69 80.64 30.02 79.86 28.2C79.28 26.84 78.88 25.43 78.57 23.98C78.15 22.06 77.8 20.1 76.71 18.4C76.49 18.05 76.4 17.66 76.68 17.31C76.97 16.95 77.37 17.01 77.75 17.18C78.56 17.55 79.37 17.91 80.18 18.28C83.46 19.77 86.51 21.66 89.42 23.77C90.61 24.63 91.75 25.58 92.88 26.53C93.96 27.44 94.74 28.61 95.5 29.76C97.15 32.28 98.38 35.03 99.36 37.87C99.88 39.38 100.5 40.82 101.32 42.18C101.56 42.58 101.71 43.04 101.91 43.51C103.91 42.62 106.09 42.32 108.22 41.85C109.58 41.55 110.93 41.21 112.33 41.19C112.68 41.19 113.04 41.07 113.39 40.96C115.05 40.46 116.75 40.16 118.43 39.77C119.25 39.58 120.02 39.26 120.82 39.04C124.5 38.05 128.2 37.09 131.97 36.51C133.14 36.33 134.36 36.32 135.54 36.57C136.65 36.81 137.33 37.63 137.96 38.5C138.09 38.68 138.11 38.92 138.11 39.14C138.11 40.06 138.13 40.96 138.34 41.87C138.62 43.12 138.34 44.37 138.09 45.59C137.71 47.53 137.43 49.48 137.12 51.43C136.87 53.02 136.59 54.61 135.81 56.07C135.33 56.97 134.71 57.59 133.69 57.78C133.53 57.81 133.37 57.88 133.21 57.91C132.72 58 132.46 58.29 132.3 58.76C131.85 60.09 131.82 61.45 132.17 62.79C132.52 64.12 132.65 65.47 132.63 66.84C132.6 68.48 132.68 70.13 132.6 71.77C132.51 73.68 132.42 75.6 132.01 77.49C131.52 79.72 131.33 82 130.77 84.22C129.7 88.43 128.41 92.58 126.91 96.65C126.78 97.01 126.53 97.33 126.47 97.75C127.42 98.21 128.45 98.35 129.42 98.64C129.84 98.77 130.28 98.85 130.71 98.97C131.13 99.09 131.6 99.09 131.86 99.55C132.25 100.23 132.66 100.87 132.56 101.72C132.39 103.09 131.84 104.35 131.39 105.63C130.61 107.86 129.68 110.04 129.15 112.35C128.89 113.49 128.34 114.54 127.96 115.64C126.97 118.51 125.98 121.38 124.89 124.21C123.07 128.94 121.52 133.77 119.43 138.39C119.02 139.3 118.68 140.25 118.24 141.15C117.19 143.3 116.82 145.65 116.24 147.93C116.01 148.81 115.62 149.66 115.55 150.58C115.55 150.66 115.48 150.73 115.44 150.8C115.1 151.44 113.47 153.55 112.39 154.83C112.28 154.78 112.18 154.72 112.09 154.65C112.93 153.31 114.29 151.31 114.51 151.06C114.53 151.04 114.57 151 114.61 150.93C114.98 150.31 114.84 149.91 114.15 149.78C113.27 149.61 112.4 149.42 111.56 149.14C107.11 147.68 102.57 146.57 98.06 145.35C96.1 144.82 94.19 144.12 92.22 143.62C89.44 142.92 86.66 142.21 83.91 141.41C81.06 140.57 78.22 139.66 75.35 138.86C71.92 137.9 68.54 136.77 65.09 135.88C64.15 135.64 63.24 135.26 62.33 134.93C62.27 134.91 62.1 134.83 61.9 134.86C61.72 134.89 61.6 134.99 61.58 135C61.38 135.15 57.64 137.19 54.57 138.17C56.22 137.43 59.97 135.31 60.41 135.16L60.38 135.22ZM130.9 102.64C130.98 102.1 131.08 101.56 130.82 100.99C130.08 101.38 129.4 101.75 128.7 102.1C126.66 103.11 124.82 104.4 123.3 106.1C122.11 107.42 120.92 108.75 120.08 110.35C118.53 113.33 117.36 116.44 116.79 119.77C116.4 122.05 115.88 124.3 115.81 126.62C115.73 129.45 115.72 132.3 115.91 135.13C115.92 135.27 115.96 135.41 115.97 135.54C116.01 136.71 116.27 137.86 116.3 139.03C116.33 139.86 116.44 140.68 116.51 141.49C116.76 141.51 116.8 141.42 116.83 141.35C117.67 139.53 118.54 137.73 119.23 135.84C120.3 132.88 121.15 129.85 122.23 126.9C123.33 123.9 124.37 120.87 125.58 117.91C126.39 115.93 127.31 113.99 128 111.96C128.54 110.35 129.01 108.72 129.62 107.13C130.17 105.68 130.68 104.2 130.9 102.64Z" fill="var(--fill-0, black)" id="Vector_4"/>
</g>
<path d="M109.14 160.58C108.58 159.44 108.2 158.17 106.63 157.74C103.9 157.01 103.02 160.29 100.28 159.55C97.54 158.81 98.42 155.54 95.69 154.81C92.96 154.08 92.08 157.36 89.34 156.62C86.6 155.88 87.48 152.61 84.75 151.87C82.02 151.13 81.14 154.42 78.4 153.68C75.66 152.94 76.54 149.67 73.81 148.93C71.08 148.19 70.2 151.48 67.46 150.74C64.72 150.01 65.6 146.73 62.87 145.99C60.13 145.26 59.26 148.54 56.52 147.8C53.78 147.07 54.66 143.79 51.93 143.05C49.19 142.32 48.32 145.6 45.58 144.86" id="Vector_5" stroke="var(--stroke-0, black)" stroke-linecap="round" stroke-miterlimit="10" stroke-width="1.66"/>
<g id="Group_2">
<path d="M97.25 166.2C94.52 165.47 95.39 162.19 92.66 161.45C89.93 160.71 89.05 164 86.31 163.26C83.57 162.52 84.45 159.25 81.72 158.52C78.99 157.79 78.11 161.07 75.37 160.33C72.63 159.6 73.51 156.32 70.78 155.58C68.05 154.84 67.17 158.13 64.43 157.39C61.7 156.66 62.57 153.38 59.84 152.64C57.11 151.9 56.23 155.19 53.49 154.45C50.75 153.72 51.63 150.44 48.9 149.7C46.17 148.96 45.29 152.25 42.55 151.51" id="Vector_6" stroke="var(--stroke-0, black)" stroke-linecap="round" stroke-miterlimit="10" stroke-width="1.66"/>
<path d="M105.65 166.18C105.25 165.4 104.73 164.69 103.64 164.4C100.9 163.67 100.03 166.95 97.29 166.21" id="Vector_7" stroke="var(--stroke-0, black)" stroke-linecap="round" stroke-miterlimit="10" stroke-width="1.66"/>
</g>
</g>
</svg>