<?xml version="1.0" encoding="utf-8"?>
<svg xmlns="http://www.w3.org/2000/svg" fill="none" height="100%" overflow="visible" preserveAspectRatio="none" style="display: block;" viewBox="0 0 9.93497 3.28023" width="100%">
<g id="_Repeticin_radial_-8">
<path d="M5.73785 2.42896C4.73785 2.45896 3.74785 2.60896 2.74785 2.49896C1.75785 2.38896 0.737848 1.97896 0.187848 1.13896C0.0578481 0.938964 -0.0421519 0.698964 0.0178481 0.468964C0.107848 0.118964 0.527848 -0.0410374 0.877848 0.00896257C1.22785 0.0589626 1.53785 0.258962 1.86785 0.408962C2.98785 0.918962 4.29785 0.808962 5.50785 0.588962C6.71785 0.368962 7.94785 0.0389636 9.17785 0.138964C9.25785 0.138964 9.34785 0.158964 9.40785 0.218964C9.45785 0.268964 9.46785 0.348962 9.48785 0.418962C9.63785 1.24896 10.5278 3.33896 9.27785 3.27896C8.80785 3.25896 8.26785 2.80896 7.81785 2.65896C7.14785 2.43896 6.44785 2.39896 5.73785 2.42896Z" fill="var(--fill-0, black)" id="Vector"/>
</g>
</svg>