<?xml version="1.0" encoding="utf-8"?>
<svg xmlns="http://www.w3.org/2000/svg" fill="none" height="100%" overflow="visible" preserveAspectRatio="none" style="display: block;" viewBox="0 0 8.00497 7.99696" width="100%">
<g id="_Repeticin_radial_-26">
<path d="M4.27196 2.93425C5.10196 3.49425 5.99196 3.96426 6.73196 4.63426C7.47196 5.30426 8.05196 6.23425 8.00196 7.23425C7.99196 7.47425 7.93196 7.72425 7.75196 7.87425C7.47196 8.10425 7.04196 7.98425 6.78196 7.73425C6.52196 7.48425 6.39196 7.14425 6.21196 6.83425C5.60196 5.75425 4.48196 5.08425 3.37196 4.55425C2.26196 4.02425 1.07196 3.57425 0.141961 2.76425C0.081961 2.71425 0.0119616 2.64426 0.00196156 2.56426C-0.00803844 2.49426 0.0219608 2.42425 0.0519608 2.35425C0.421961 1.59425 0.931963 -0.615746 1.90196 0.164254C2.27196 0.464254 2.44196 1.14425 2.72196 1.52425C3.14196 2.09425 3.68196 2.54425 4.26196 2.93425H4.27196Z" fill="var(--fill-0, black)" id="Vector"/>
</g>
</svg>