<?xml version="1.0" encoding="utf-8"?>
<svg xmlns="http://www.w3.org/2000/svg" fill="none" height="100%" overflow="visible" preserveAspectRatio="none" style="display: block;" viewBox="0 0 41.1901 5.75088" width="100%">
<path d="M0.65005 3.20072C1.23005 4.01072 1.22005 4.07072 2.34005 4.05072C3.39005 4.03072 3.93005 3.29073 4.44005 2.51073C5.02005 1.62073 5.55005 0.680729 6.74005 0.650729C7.93005 0.620729 8.49005 1.52072 9.10005 2.37072C9.65005 3.14072 10.23 5.12073 11.29 5.10073C12.35 5.08073 12.9 4.31073 13.43 3.50073C13.99 2.63073 14.5301 1.73072 15.6901 1.70072C16.8501 1.67072 17.4201 2.53073 18.0101 3.36073C18.5701 4.15073 19.15 4.92073 20.24 4.89073C21.33 4.86073 21.88 4.06072 22.42 3.23072C22.97 2.38072 23.51 1.52073 24.64 1.50073C25.77 1.48073 26.34 2.29073 26.92 3.10073C27.5 3.91073 28.0801 4.71072 29.1901 4.69072C30.3001 4.67072 30.8601 3.81073 31.4101 2.97073C31.9401 2.14073 32.4801 1.32072 33.5901 1.30072C34.7001 1.28072 35.26 2.05072 35.82 2.84072C36.41 3.67072 36.99 4.51073 38.13 4.49073C39.27 4.47073 39.82 3.57073 40.38 2.71073C40.43 2.63073 40.48 2.55073 40.54 2.47073" id="Vector" stroke="var(--stroke-0, #1D1D1B)" stroke-linecap="round" stroke-linejoin="round" stroke-width="1.3"/>
</svg>