<?xml version="1.0" encoding="utf-8"?>
<svg xmlns="http://www.w3.org/2000/svg" fill="none" height="100%" overflow="visible" preserveAspectRatio="none" style="display: block;" viewBox="0 0 10.0012 5.02273" width="100%">
<g id="_Repeticin_radial_-6">
<path d="M6.02729 3.52484C5.12729 3.96484 4.27729 4.50484 3.32729 4.80484C2.37729 5.10484 1.27729 5.14484 0.437293 4.60484C0.237293 4.47484 0.0472932 4.29484 0.00729315 4.06484C-0.0527068 3.71484 0.267293 3.39484 0.607293 3.29484C0.947293 3.19484 1.31729 3.25484 1.66729 3.25484C2.90729 3.26484 4.04729 2.63484 5.06729 1.93484C6.08729 1.23484 7.06729 0.434841 8.23729 0.0348405C8.31729 0.00484054 8.39729 -0.0151599 8.47729 0.0148401C8.54729 0.0448401 8.58729 0.104838 8.62729 0.164838C9.09729 0.864838 10.7573 2.41484 9.59729 2.86484C9.15729 3.03484 8.47729 2.84484 8.00729 2.89484C7.30729 2.97484 6.64729 3.21484 6.01729 3.52484H6.02729Z" fill="var(--fill-0, black)" id="Vector"/>
</g>
</svg>