<?xml version="1.0" encoding="utf-8"?>
<svg xmlns="http://www.w3.org/2000/svg" fill="none" height="100%" overflow="visible" preserveAspectRatio="none" style="display: block;" viewBox="0 0 13.5063 17.02" width="100%">
<path d="M0.650863 0H2.98086C3.25086 0 3.50086 0.2 3.60086 0.49L7.82086 13.09C7.92086 13.42 8.11086 13.87 8.50086 13.87C9.82086 13.87 10.4109 6.19 10.4109 4.79C10.4109 3.6 10.4609 2.22 10.3009 0.879999C10.2409 0.409999 10.5509 0 10.9609 0H12.8409C13.2809 0 13.6009 0.5 13.4809 0.99C12.5209 4.74 10.0709 14.79 8.90086 16.26C8.51086 16.76 7.95086 17.02 7.31086 17.02C5.80086 17.02 5.06086 15.83 4.56086 14.51C3.71086 12.08 2.91086 9.65 2.12086 7.25C1.45086 5.19 0.760863 3.14 0.0508626 1.07C-0.129137 0.56 0.190863 0.0100002 0.660863 0.0100002L0.650863 0Z" fill="var(--fill-0, black)" id="Vector"/>
</svg>