<?xml version="1.0" encoding="utf-8"?>
<svg xmlns="http://www.w3.org/2000/svg" fill="none" height="100%" overflow="visible" preserveAspectRatio="none" style="display: block;" viewBox="0 0 5.69089 9.79226" width="100%">
<g id="_Repeticin_radial_-28">
<path d="M3.75538 3.84222C4.28538 4.69222 4.90538 5.48222 5.31538 6.39222C5.71538 7.30222 5.86538 8.39222 5.41538 9.28222C5.30538 9.49222 5.15539 9.70222 4.92538 9.77222C4.58538 9.87222 4.23538 9.58222 4.09538 9.25222C3.95538 8.92222 3.98539 8.55222 3.94539 8.20222C3.82539 6.97222 3.07538 5.90222 2.27538 4.96222C1.47538 4.02222 0.575386 3.13222 0.0553861 2.01222C0.0253861 1.94222 -0.014617 1.85222 0.00538304 1.77222C0.025383 1.70222 0.0853841 1.65222 0.135384 1.60222C0.785384 1.06222 2.14539 -0.757781 2.71539 0.352219C2.93539 0.772219 2.81538 1.46222 2.91538 1.93222C3.06538 2.62222 3.37538 3.25222 3.75538 3.85222V3.84222Z" fill="var(--fill-0, black)" id="Vector"/>
</g>
</svg>