<?xml version="1.0" encoding="utf-8"?>
<svg xmlns="http://www.w3.org/2000/svg" fill="none" height="100%" overflow="visible" preserveAspectRatio="none" style="display: block;" viewBox="0 0 192.002 192.002" width="100%">
<g id="Group 8">
<g clip-path="url(#clip0_0_1437)" id="Modo_de_aislamiento">
<path d="M175.967 80.1749C169.781 78.0902 168.115 78.7557 164.233 84.8858C164.054 85.1646 163.681 84.9705 163.794 84.6682C166.287 77.8486 165.806 76.132 160.383 72.4946C160.139 72.334 160.348 71.9126 160.628 72.0022C166.815 74.0869 168.481 73.4214 172.363 67.2913C172.542 67.0125 172.914 67.2066 172.802 67.5089C170.308 74.3285 170.79 76.0451 176.213 79.6825C176.456 79.8431 176.248 80.2645 175.967 80.1749Z" fill="var(--fill-0, black)" id="Vector" stroke="var(--stroke-0, black)" stroke-miterlimit="10"/>
</g>
<g clip-path="url(#clip1_0_1437)" id="Modo_de_aislamiento_2">
<path d="M41.0761 122.653C34.8893 120.568 33.2233 121.234 29.3416 127.364C29.1625 127.642 28.79 127.448 28.9024 127.146C31.3956 120.326 30.9144 118.61 25.4914 114.972C25.2481 114.812 25.4564 114.39 25.7367 114.48C31.9235 116.565 33.5896 115.899 37.4713 109.769C37.6504 109.49 38.0229 109.684 37.9105 109.987C35.4172 116.806 35.8985 118.523 41.3214 122.16C41.5647 122.321 41.3564 122.742 41.0761 122.653Z" fill="var(--fill-0, black)" id="Vector_2" stroke="var(--stroke-0, black)" stroke-miterlimit="10"/>
</g>
<g id="MANO PARA FOOTER-24 2">
<g id="Group">
<path d="M114.701 144.071C115.631 144.201 115.841 144.551 115.411 145.351C115.061 145.991 115.051 146.681 114.991 147.371C114.941 147.951 114.9 148.531 114.85 149.181C113.71 149.101 112.73 148.791 111.75 148.481C107.731 147.161 103.641 146.121 99.5405 145.061C97.2205 144.461 94.9706 143.631 92.6606 143.041C89.8306 142.321 87.0006 141.581 84.2006 140.771C81.3706 139.951 78.5506 139.091 75.7206 138.281C73.6406 137.691 71.5606 137.051 69.4806 136.451C67.2906 135.831 65.0606 135.311 62.8806 134.661C61.7106 134.311 61.9006 134.591 61.9007 133.331C61.9007 132.361 62.0007 131.391 61.9007 130.421C61.8107 129.541 62.3807 129.121 63.2607 129.321C64.9407 129.711 66.5907 130.221 68.2107 130.811C68.8407 131.041 69.4707 131.241 70.1407 131.351C71.1607 131.521 72.1307 131.881 73.1007 132.211C76.1607 133.241 79.3307 133.861 82.4406 134.711C84.9306 135.391 87.4306 136.041 89.9306 136.731C92.9906 137.571 96.0706 138.321 99.1106 139.231C101.531 139.951 103.961 140.681 106.331 141.551C108.161 142.221 110.001 142.851 111.861 143.421C112.781 143.701 113.731 143.951 114.701 144.081L114.701 144.071Z" fill="var(--fill-0, black)" id="Vector_3"/>
<path d="M112.38 154.891C111.85 155.521 111.45 155.961 111.4 155.921C111.4 155.921 111.4 155.921 111.4 155.911C111.4 155.821 111.69 155.341 112.08 154.711C112.17 154.781 112.27 154.841 112.38 154.891Z" fill="var(--fill-0, black)" id="Vector_4"/>
<path d="M112.08 154.711C111.68 155.341 111.4 155.821 111.4 155.911L110.89 155.951C110.17 155.351 109.8 154.541 109.48 153.851C109 152.801 108.68 152.201 107.74 151.941C106.81 151.691 106.23 152.051 105.28 152.721C104.33 153.391 103.14 154.231 101.39 153.761C99.6304 153.291 99.0305 151.971 98.5405 150.921C98.0605 149.871 97.7405 149.271 96.8005 149.011C95.8605 148.751 95.2805 149.121 94.3405 149.791C93.3905 150.461 92.2105 151.291 90.4505 150.821C88.6905 150.351 88.0905 149.041 87.6005 147.981C87.1205 146.931 86.8005 146.331 85.8605 146.071C84.9205 145.811 84.3505 146.181 83.4005 146.851C82.4505 147.521 81.2705 148.351 79.5105 147.881C77.7505 147.411 77.1505 146.101 76.6605 145.041C76.1806 143.991 75.8606 143.391 74.9206 143.131C73.9806 142.881 73.4106 143.241 72.4605 143.911C71.5105 144.581 70.3205 145.411 68.5705 144.941C66.8105 144.471 66.2106 143.161 65.7206 142.101C65.2406 141.051 64.9106 140.441 63.9806 140.191C63.0406 139.941 62.4706 140.301 61.5206 140.971C60.5706 141.641 59.3906 142.471 57.6306 142.001C55.8806 141.531 55.2706 140.221 54.7806 139.161C54.7106 139.021 54.6506 138.891 54.5906 138.761L54.5506 138.211C57.6206 137.231 61.3606 135.201 61.5606 135.041C61.5806 135.021 61.7006 134.931 61.8806 134.901C62.0906 134.871 62.2606 134.951 62.3106 134.971C63.2306 135.301 64.1306 135.671 65.0706 135.921C68.5206 136.811 71.9006 137.941 75.3306 138.901C78.2006 139.701 81.0306 140.611 83.8906 141.451C86.6406 142.261 89.4206 142.961 92.2005 143.661C94.1705 144.151 96.0805 144.861 98.0405 145.391C102.551 146.611 107.091 147.721 111.54 149.181C112.39 149.461 113.26 149.641 114.13 149.821C114.82 149.951 114.96 150.351 114.59 150.971C114.55 151.041 114.51 151.081 114.49 151.101C114.27 151.351 112.92 153.351 112.07 154.691L112.08 154.711Z" fill="var(--fill-0, black)" id="Vector_5"/>
<path d="M87.2811 87.4109C87.4611 87.5409 87.5111 87.7409 87.3811 87.9309C86.8011 88.7609 86.5411 89.7109 86.2611 90.6609C86.0211 91.4609 85.7011 92.2309 85.4611 93.0309C84.621 95.8609 84.231 98.7909 83.621 101.681C83.291 103.211 83.311 104.781 83.0709 106.311C82.6309 109.091 82.6009 111.901 82.3809 114.691C82.2508 116.381 82.1808 118.071 82.0008 119.761C81.9308 120.391 81.8908 121.031 81.8408 121.641C82.0508 121.781 82.2508 121.731 82.4408 121.761C83.2008 121.871 83.8108 122.241 84.2208 122.881C84.6208 123.491 84.9608 124.121 85.0407 124.871C85.0807 125.221 85.1707 125.571 85.2807 126.111C85.9107 124.881 86.2308 123.751 86.4908 122.621C87.0108 120.401 87.4508 118.161 87.9608 115.931C88.6509 112.891 89.4209 109.871 90.0809 106.831C90.941 102.851 92.011 98.941 93.3011 95.091C93.7611 93.731 94.4811 92.511 95.2011 91.291C95.3711 91.001 95.6011 90.751 95.9311 90.951C96.2711 91.161 95.9311 91.391 95.8511 91.591C95.0511 93.371 94.3011 95.161 93.791 97.051C92.781 100.871 91.591 104.641 90.9009 108.541C90.6409 109.991 90.1409 111.401 90.0009 112.871C89.7508 115.531 89.0308 118.121 88.8708 120.791C88.8208 121.731 88.7008 122.661 88.6108 123.631C88.9308 123.581 89.1508 123.501 89.3608 123.511C89.7408 123.521 90.1508 123.511 90.4708 123.781C91.2208 124.451 91.7607 125.241 91.8007 126.291C91.8007 126.501 91.8007 126.711 91.9607 127.011C92.2107 126.681 92.2507 126.381 92.3107 126.101C92.3807 125.801 92.4007 125.491 92.4907 125.201C93.4108 122.371 94.2908 119.521 95.5608 116.821C96.1408 115.591 96.7509 114.371 97.1309 113.051C97.5709 111.501 98.0409 109.961 98.5309 108.421C99.1809 106.351 99.811 104.271 100.531 102.231C101.371 99.8811 102.611 97.7411 104.001 95.6811C104.571 94.8311 105.231 94.0311 105.861 93.2111C106.081 92.9211 106.681 92.7811 106.881 92.9911C107.151 93.2811 106.881 93.5111 106.741 93.7311C106.271 94.4911 105.781 95.2311 105.291 95.9711C103.041 99.3411 101.511 103.021 100.361 106.881C100.111 107.741 99.8509 108.591 99.6209 109.451C99.1209 111.251 98.5209 113.011 98.1509 114.851C97.6008 117.581 97.1108 120.311 96.9008 123.091C96.8708 123.461 96.5608 123.801 96.7908 124.191C97.8508 123.911 98.2708 124.011 98.7907 124.701C98.9107 124.861 99.0007 125.031 99.1007 125.191C99.5407 125.891 99.9207 126.621 100.041 127.471C100.211 127.161 100.291 126.881 100.391 126.591C100.641 125.851 100.811 125.071 101.161 124.391C102.151 122.461 103.001 120.461 103.981 118.521C105.231 116.061 106.491 113.611 107.761 111.171C108.891 108.991 110.041 106.831 111.491 104.851C113.321 102.351 115.171 99.8812 116.711 97.2012C117.581 95.6812 118.631 94.2713 119.391 92.6713C119.511 92.4213 119.671 92.1913 119.851 91.9813C119.991 91.8213 120.191 91.6613 120.431 91.8513C120.641 92.0213 120.501 92.2113 120.431 92.3813C119.991 93.4913 119.501 94.5813 118.881 95.6113C118.761 95.8113 118.541 95.9913 118.631 96.3013C119.511 96.3813 120.391 96.4913 121.251 96.6913C122.421 96.9713 123.591 97.2213 124.751 97.5013C125.091 97.5813 125.301 97.5613 125.441 97.1513C125.681 96.4413 126.031 95.7713 126.281 95.0613C126.661 93.9813 126.971 92.8913 127.341 91.8113C128.081 89.6814 128.751 87.5314 129.291 85.3414C129.791 83.2814 130.061 81.1814 130.461 79.1114C130.901 76.8114 131.221 74.5014 131.291 72.1614C131.381 69.0114 131.361 65.8614 130.721 62.7614C130.301 60.7314 130.901 58.9214 131.751 57.1214C131.611 57.0514 131.461 56.9614 131.311 56.9114C129.721 56.3914 128.161 55.8014 126.501 55.5613C126.201 55.5213 125.891 55.4413 125.611 55.3313C123.521 54.4813 121.301 54.0113 119.181 53.2613C115.542 51.9812 111.822 50.9012 108.192 49.5511C106.842 49.0511 105.462 48.6011 104.162 47.9511C103.512 47.6211 103.522 47.6411 103.012 48.2111C101.862 49.5011 100.892 50.9411 99.7815 52.2611C97.6915 54.761 95.6215 57.271 93.5714 59.811C90.4914 63.631 87.6313 67.5909 85.0713 71.7909C82.6713 75.7309 80.7812 79.9009 79.2012 84.2208C78.4611 86.2608 77.8111 88.3308 77.2011 90.4108C76.4711 92.8608 75.9211 95.3608 75.571 97.9008C75.371 99.3908 75.261 100.881 75.051 102.371C74.831 103.911 74.751 105.461 74.6209 107.011C74.5209 108.111 74.4509 109.231 74.4309 110.341C74.4009 111.891 74.4309 113.441 74.4309 114.991C74.7309 115.081 74.9809 115.001 75.2209 115.091C76.2608 115.451 77.0608 116.511 77.0708 117.631C77.0708 117.991 77.0408 118.351 77.0308 118.711C76.9708 118.841 76.8708 118.981 77.0508 119.071C77.0908 119.091 77.1608 118.921 77.1508 118.821C77.8508 117.631 78.1508 116.301 78.4608 114.981C79.3009 111.351 80.2809 107.751 81.381 104.181C81.961 102.291 82.691 100.451 83.071 98.5009C83.6311 95.6009 84.4811 92.7809 85.4911 90.0009C85.7611 89.2709 86.0911 88.5609 86.4711 87.8809C86.5511 87.7309 86.6411 87.5909 86.7511 87.4709C86.9011 87.3109 87.1011 87.2709 87.2811 87.4109ZM87.2808 124.431C87.3307 124.501 87.3708 124.491 87.4108 124.431C87.5008 124.301 87.4908 124.181 87.3208 123.951C87.3308 124.191 87.1807 124.291 87.2707 124.441L87.2808 124.431ZM88.3616 40.4609C88.3616 40.4609 88.3116 40.5409 88.2816 40.5909C88.3716 40.6409 88.4516 40.6909 88.5516 40.7309C88.5516 40.7309 88.6016 40.6509 88.6216 40.6209C88.5716 40.5009 88.4716 40.4709 88.3616 40.4609ZM68.7507 130.161C69.0907 130.281 69.4407 130.411 69.7907 130.471C70.7807 130.641 71.7407 130.911 72.6907 131.231C74.3307 131.781 75.9807 132.271 77.6607 132.681C79.4707 133.121 81.2907 133.521 83.0906 134.021C85.7706 134.761 88.4606 135.461 91.1506 136.171C94.0006 136.921 96.8606 137.641 99.6906 138.491C102.731 139.401 105.721 140.451 108.731 141.441C110.531 142.031 112.291 142.701 114.151 143.111C114.551 143.201 114.931 143.271 115.401 143.251C115.101 141.561 115.061 139.921 114.881 138.291C114.671 136.411 114.531 134.521 114.481 132.641C114.401 129.191 114.271 125.741 114.921 122.321C115.271 120.491 115.481 118.631 115.961 116.821C116.571 114.521 117.491 112.351 118.531 110.211C120.341 106.461 123.061 103.571 126.581 101.391C127.271 100.961 128.031 100.701 128.811 100.321C128.701 100.221 128.671 100.171 128.621 100.151C125.351 99.0313 122.011 98.1913 118.621 97.4913C117.821 97.3212 117.911 97.2612 117.441 98.0212C116.441 99.6312 115.481 101.261 114.321 102.761C112.241 105.461 110.481 108.351 108.901 111.361C106.501 115.921 104.271 120.561 102.001 125.171C101.951 125.271 101.881 125.371 101.871 125.471C101.741 126.341 101.311 127.101 101.051 127.921C100.761 128.821 100.401 129.701 99.9107 130.511C99.4707 131.241 99.0907 132.031 98.3407 132.531C96.9507 133.481 95.2407 132.731 95.0207 131.071C94.9907 130.881 95.0007 130.681 95.0007 130.491C95.0007 127.901 95.1007 125.321 95.6008 122.771C95.7708 121.941 95.7408 121.441 95.5508 120.811C94.5208 123.481 93.6407 126.131 93.0107 128.871C92.7507 130.001 92.2407 130.971 91.2907 131.641C90.2807 132.361 88.7307 132.581 87.7807 131.361C87.4107 130.881 87.3307 130.351 87.3207 129.801C87.3007 128.681 87.3207 127.571 87.3207 126.461C87.3207 125.851 87.3207 125.241 87.3207 124.591C86.8907 124.901 86.9907 125.381 86.8107 125.741C86.2707 126.821 85.5607 127.781 84.8307 128.731C83.8807 129.971 82.9007 130.051 81.5507 129.271C80.6707 128.761 80.3607 128.071 80.3407 127.091C80.3107 125.501 80.6108 123.941 80.6908 122.361C80.7608 120.941 81.0508 119.551 81.1008 118.131C81.1508 116.861 81.2408 115.581 81.3409 114.311C81.4609 112.731 81.5009 111.151 81.6409 109.571C81.6909 109.011 81.7809 108.441 81.7709 107.801C81.4809 108.071 81.4409 108.391 81.3609 108.671C80.9409 110.231 80.5209 111.791 80.1509 113.361C79.6208 115.581 79.1108 117.811 78.0208 119.841C77.5208 120.781 76.8308 121.521 75.8608 121.961C74.9608 122.381 73.7408 122.301 73.5808 120.821C73.5408 120.461 73.4708 120.111 73.4808 119.741C73.5408 116.351 73.3409 112.951 73.6109 109.561C73.7309 108.011 73.6809 106.441 73.881 104.901C74.161 102.671 74.301 100.421 74.601 98.1908C75.0211 95.1208 75.6211 92.1008 76.5811 89.1608C76.8611 88.3008 77.0811 87.4208 77.3611 86.4608C76.8111 86.5908 76.3711 86.5908 75.9311 86.5808C75.1511 86.5608 74.3611 86.6308 73.7011 87.1208C72.5411 87.9908 71.3811 88.8708 70.4411 89.9808C69.2811 91.3507 68.4411 92.9207 67.6811 94.5407C66.421 97.2107 65.181 99.8907 64.421 102.761C63.4509 106.411 63.1709 110.161 63.0609 113.921C63.0509 114.311 63.0909 114.701 63.0209 115.091C62.8508 116.171 62.8208 117.251 62.8008 118.331C62.7408 121.561 62.7108 124.791 62.8807 128.021C62.9007 128.481 63.0507 128.621 63.4807 128.711C65.2907 129.061 67.0407 129.591 68.7807 130.201L68.7507 130.161ZM70.1407 131.341C69.4807 131.231 68.8407 131.031 68.2107 130.801C66.5907 130.221 64.9407 129.701 63.2607 129.311C62.3807 129.111 61.8107 129.541 61.9007 130.411C62.0007 131.391 61.9007 132.351 61.9007 133.321C61.9006 134.581 61.7007 134.301 62.8806 134.651C65.0606 135.301 67.2906 135.821 69.4806 136.441C71.5606 137.031 73.6406 137.671 75.7206 138.271C78.5506 139.081 81.3706 139.941 84.2006 140.761C87.0106 141.571 89.8306 142.311 92.6606 143.031C94.9806 143.621 97.2205 144.451 99.5405 145.051C103.631 146.111 107.731 147.151 111.75 148.471C112.73 148.791 113.71 149.091 114.85 149.171C114.9 148.521 114.941 147.941 114.991 147.361C115.041 146.671 115.051 145.981 115.411 145.341C115.841 144.541 115.631 144.181 114.701 144.061C113.731 143.931 112.791 143.681 111.861 143.401C110.001 142.841 108.161 142.201 106.331 141.531C103.951 140.661 101.531 139.931 99.1106 139.211C96.0706 138.301 92.9906 137.551 89.9306 136.711C87.4406 136.031 84.9406 135.381 82.4406 134.691C79.3307 133.841 76.1607 133.221 73.1007 132.191C72.1207 131.861 71.1507 131.501 70.1407 131.331L70.1407 131.341ZM60.3806 135.221C60.4606 135.191 60.6706 135.111 60.8006 134.911C60.8806 134.781 60.9106 134.601 60.8807 134.361C60.7607 133.221 60.9207 132.081 60.9307 130.941C60.9307 130.361 60.8007 129.761 60.8907 129.191C60.9707 128.741 61.0507 127.941 61.2507 127.671C61.4307 127.431 61.3907 127.191 61.3707 126.961C61.2107 124.761 61.2908 122.561 61.2208 120.371C61.1708 118.671 61.2608 116.971 61.3808 115.281C61.5109 113.641 61.4109 112.001 61.5509 110.361C61.8309 107.251 62.131 104.151 63.091 101.161C63.611 99.5407 64.051 97.9007 64.721 96.3407C65.9011 93.5607 67.3911 90.9507 69.3511 88.6507C70.3311 87.5008 71.5011 86.5408 72.7812 85.7408C74.0212 84.9508 75.4512 84.7908 76.8812 85.0808C77.5212 85.2108 77.5312 85.2108 77.7012 84.6508C78.5712 81.7608 79.9212 79.0709 81.1113 76.3109C82.1613 73.9009 83.6113 71.7209 84.9713 69.4809C85.7313 68.2209 86.5113 66.9609 87.3514 65.7509C88.6414 63.9009 90.0414 62.131 91.4314 60.351C93.8115 57.301 96.2815 54.321 98.8215 51.4011C99.3315 50.8111 99.7715 50.1711 100.242 49.5511C100.512 49.2711 100.792 49.0111 100.902 48.6211C100.552 48.8211 100.192 48.9711 99.9715 49.3111C99.0515 49.6111 98.2515 50.221 97.2815 50.421C95.5315 50.781 93.7915 51.081 91.9915 51.081C91.0515 51.081 90.1215 51.301 89.1715 51.241C87.8415 51.1609 86.5015 51.1609 85.1715 50.9809C83.3615 50.7409 81.6515 50.1609 80.0315 49.3309C78.5915 48.5908 77.2316 47.7308 75.8516 46.8808C73.9616 45.7208 71.9016 44.9708 69.7516 44.4407C69.2616 44.3207 68.7716 44.2207 68.4016 43.8407C67.9816 43.4107 67.9916 43.0407 68.4216 42.6207C71.1716 39.9308 74.5116 38.7108 78.3316 38.7408C80.1116 38.7509 81.8916 38.8309 83.6616 39.1009C84.2716 39.1909 84.8516 39.3809 85.4316 39.5809C86.1916 39.8509 86.9616 40.0909 87.7316 40.3409C87.8616 40.3809 88.0016 40.4509 88.0816 40.2709C88.1316 40.1409 88.0616 40.0609 87.9716 39.9909C86.2016 38.7109 85.0717 36.8609 83.7317 35.1909C83.2917 34.6509 82.8817 34.0909 82.5717 33.4609C81.6917 31.6909 80.6417 30.0209 79.8618 28.2009C79.2818 26.8409 78.8818 25.4308 78.5718 23.9808C78.1518 22.0608 77.8018 20.1008 76.7119 18.4008C76.4919 18.0508 76.4019 17.6608 76.6819 17.3108C76.9719 16.9508 77.3719 17.0108 77.7519 17.1808C78.5619 17.5508 79.3719 17.9109 80.1819 18.2809C83.4618 19.7709 86.5118 21.6609 89.4218 23.771C90.6118 24.631 91.7518 25.581 92.8818 26.531C93.9618 27.441 94.7418 28.611 95.5017 29.761C97.1517 32.281 98.3817 35.031 99.3617 37.8711C99.8816 39.3811 100.502 40.8211 101.322 42.1811C101.562 42.5811 101.712 43.0411 101.912 43.5111C103.912 42.6211 106.092 42.3211 108.222 41.8511C109.582 41.5512 110.932 41.2112 112.332 41.1912C112.682 41.1912 113.042 41.0712 113.392 40.9612C115.052 40.4612 116.752 40.1612 118.432 39.7713C119.252 39.5813 120.022 39.2613 120.822 39.0413C124.502 38.0513 128.202 37.0914 131.972 36.5114C133.142 36.3314 134.362 36.3214 135.542 36.5714C136.652 36.8114 137.332 37.6315 137.962 38.5015C138.092 38.6815 138.112 38.9215 138.112 39.1415C138.112 40.0615 138.132 40.9615 138.342 41.8715C138.622 43.1215 138.342 44.3715 138.092 45.5915C137.712 47.5315 137.432 49.4815 137.122 51.4315C136.871 53.0214 136.591 54.6114 135.811 56.0714C135.331 56.9714 134.711 57.5914 133.691 57.7814C133.531 57.8114 133.371 57.8814 133.211 57.9114C132.721 58.0014 132.461 58.2914 132.301 58.7614C131.851 60.0914 131.821 61.4514 132.171 62.7914C132.521 64.1214 132.651 65.4714 132.631 66.8414C132.601 68.4814 132.681 70.1314 132.601 71.7714C132.511 73.6814 132.421 75.6014 132.011 77.4914C131.521 79.7214 131.331 82.0014 130.771 84.2214C129.701 88.4314 128.411 92.5814 126.911 96.6513C126.781 97.0113 126.531 97.3313 126.471 97.7513C127.421 98.2113 128.451 98.3514 129.421 98.6414C129.841 98.7714 130.281 98.8514 130.711 98.9714C131.131 99.0914 131.601 99.0914 131.861 99.5514C132.251 100.231 132.661 100.871 132.561 101.721C132.391 103.091 131.841 104.351 131.391 105.631C130.611 107.861 129.681 110.041 129.151 112.351C128.891 113.491 128.341 114.541 127.961 115.641C126.971 118.511 125.981 121.381 124.891 124.211C123.071 128.941 121.521 133.771 119.431 138.391C119.021 139.301 118.681 140.251 118.241 141.151C117.191 143.301 116.821 145.651 116.241 147.931C116.01 148.811 115.62 149.661 115.55 150.581C115.55 150.661 115.48 150.731 115.44 150.801C115.1 151.441 113.47 153.551 112.39 154.831C112.28 154.781 112.18 154.721 112.09 154.651C112.93 153.311 114.29 151.311 114.51 151.061C114.53 151.041 114.57 151.001 114.61 150.931C114.98 150.311 114.84 149.911 114.15 149.781C113.27 149.611 112.4 149.421 111.56 149.141C107.111 147.681 102.571 146.571 98.0605 145.351C96.1005 144.821 94.1905 144.121 92.2206 143.621C89.4406 142.921 86.6606 142.211 83.9106 141.411C81.0606 140.571 78.2206 139.661 75.3506 138.861C71.9206 137.901 68.5406 136.771 65.0906 135.881C64.1506 135.641 63.2406 135.261 62.3306 134.931C62.2706 134.911 62.1006 134.831 61.9006 134.861C61.7206 134.891 61.6006 134.991 61.5806 135.001C61.3806 135.151 57.6406 137.191 54.5706 138.171C56.2206 137.431 59.9706 135.311 60.4106 135.161L60.3806 135.221ZM130.901 102.641C130.981 102.101 131.081 101.561 130.821 100.991C130.081 101.381 129.401 101.751 128.701 102.101C126.661 103.111 124.821 104.401 123.301 106.101C122.111 107.421 120.921 108.751 120.081 110.351C118.531 113.331 117.361 116.441 116.791 119.771C116.401 122.051 115.881 124.301 115.811 126.621C115.731 129.451 115.721 132.301 115.911 135.131C115.921 135.271 115.961 135.411 115.971 135.541C116.011 136.711 116.271 137.861 116.301 139.031C116.331 139.861 116.441 140.681 116.511 141.491C116.761 141.511 116.801 141.421 116.831 141.351C117.671 139.531 118.541 137.731 119.231 135.841C120.301 132.881 121.151 129.851 122.231 126.901C123.331 123.901 124.371 120.871 125.581 117.911C126.391 115.931 127.311 113.991 128.001 111.961C128.541 110.351 129.011 108.721 129.621 107.131C130.171 105.681 130.681 104.201 130.901 102.641Z" fill="var(--fill-0, black)" id="Vector_6"/>
</g>
<path d="M109.14 160.581C108.58 159.441 108.2 158.171 106.63 157.741C103.9 157.011 103.02 160.291 100.28 159.551C97.5404 158.811 98.4204 155.541 95.6904 154.811C92.9604 154.081 92.0804 157.361 89.3404 156.621C86.6004 155.881 87.4805 152.611 84.7505 151.871C82.0205 151.131 81.1404 154.421 78.4004 153.681C75.6605 152.941 76.5405 149.671 73.8105 148.931C71.0805 148.191 70.2005 151.481 67.4605 150.741C64.7205 150.011 65.6005 146.731 62.8705 145.991C60.1305 145.261 59.2605 148.541 56.5205 147.801C53.7805 147.071 54.6606 143.791 51.9306 143.051C49.1906 142.321 48.3205 145.601 45.5805 144.86" id="Vector_7" stroke="var(--stroke-0, black)" stroke-linecap="round" stroke-miterlimit="10" stroke-width="1.66"/>
<g id="Group_2">
<path d="M97.2503 166.201C94.5203 165.471 95.3904 162.191 92.6604 161.451C89.9304 160.711 89.0503 164.001 86.3103 163.261C83.5704 162.521 84.4504 159.251 81.7204 158.521C78.9904 157.791 78.1104 161.071 75.3704 160.331C72.6304 159.601 73.5104 156.321 70.7804 155.581C68.0504 154.841 67.1704 158.131 64.4304 157.391C61.7004 156.661 62.5705 153.381 59.8405 152.641C57.1105 151.901 56.2304 155.191 53.4904 154.451C50.7505 153.721 51.6305 150.441 48.9005 149.701C46.1705 148.96 45.2905 152.25 42.5505 151.51" id="Vector_8" stroke="var(--stroke-0, black)" stroke-linecap="round" stroke-miterlimit="10" stroke-width="1.66"/>
<path d="M105.65 166.181C105.25 165.401 104.73 164.691 103.64 164.401C100.9 163.671 100.03 166.951 97.2903 166.211" id="Vector_9" stroke="var(--stroke-0, black)" stroke-linecap="round" stroke-miterlimit="10" stroke-width="1.66"/>
</g>
</g>
</g>
<defs>
<clipPath id="clip0_0_1437">
<rect fill="white" height="20.85" transform="translate(164.772 62.4907) rotate(27.5206)" width="18.82"/>
</clipPath>
<clipPath id="clip1_0_1437">
<rect fill="white" height="20.85" transform="translate(29.8806 104.968) rotate(27.5206)" width="18.82"/>
</clipPath>
</defs>
</svg>