<?xml version="1.0" encoding="utf-8"?>
<svg xmlns="http://www.w3.org/2000/svg" fill="none" height="100%" overflow="visible" preserveAspectRatio="none" style="display: block;" viewBox="0 0 9.3869 5.01625" width="100%">
<g id="_Repeticin_radial_-24">
<path d="M4.13401 1.59117C5.11401 1.76117 6.12401 1.83117 7.07401 2.14117C8.02401 2.45117 8.93401 3.07117 9.29401 4.00117C9.38401 4.22117 9.43401 4.48117 9.32401 4.69117C9.16401 5.01117 8.72401 5.08117 8.38401 4.96117C8.04401 4.84117 7.78401 4.58117 7.50401 4.36117C6.51401 3.63117 5.21401 3.46117 3.97401 3.43117C2.73401 3.40117 1.47401 3.47117 0.294008 3.11117C0.214008 3.09117 0.134009 3.06117 0.0840093 2.99117C0.0440093 2.93117 0.0440105 2.85117 0.0540105 2.78117C0.0840105 1.94117 -0.35599 -0.288831 0.85401 0.0311694C1.31401 0.151169 1.74401 0.701169 2.15401 0.941169C2.76401 1.29117 3.44401 1.48117 4.13401 1.60117V1.59117Z" fill="var(--fill-0, black)" id="Vector"/>
</g>
</svg>