<?xml version="1.0" encoding="utf-8"?>
<svg xmlns="http://www.w3.org/2000/svg" fill="none" height="100%" overflow="visible" preserveAspectRatio="none" style="display: block;" viewBox="0 0 10.0012 5.02273" width="100%">
<g id="_Repeticin_radial_-21">
<path d="M3.97391 1.49789C4.87391 1.05789 5.72391 0.517892 6.67391 0.217892C7.62391 -0.0821076 8.72391 -0.122107 9.56391 0.417893C9.76391 0.547893 9.95391 0.727892 9.99391 0.957892C10.0539 1.30789 9.73391 1.62789 9.39391 1.72789C9.05391 1.82789 8.68391 1.76789 8.33391 1.76789C7.09391 1.75789 5.95391 2.38789 4.93391 3.08789C3.91391 3.78789 2.93391 4.58789 1.76391 4.98789C1.68391 5.01789 1.60391 5.03789 1.52391 5.00789C1.45391 4.97789 1.41391 4.91789 1.37391 4.85789C0.903907 4.15789 -0.756094 2.60789 0.403906 2.15789C0.843906 1.98789 1.52391 2.17789 1.99391 2.12789C2.69391 2.04789 3.35391 1.80789 3.98391 1.49789H3.97391Z" fill="var(--fill-0, black)" id="Vector"/>
</g>
</svg>