<?xml version="1.0" encoding="utf-8"?>
<svg xmlns="http://www.w3.org/2000/svg" fill="none" height="100%" overflow="visible" preserveAspectRatio="none" style="display: block;" viewBox="0 0 8.58407 7.4976" width="100%">
<g id="_Repeticin_radial_-4">
<path d="M5.35936 4.21C4.71936 4.97 4.15936 5.81 3.41936 6.48C2.67936 7.14 1.68936 7.62 0.699362 7.47C0.459362 7.43 0.219362 7.35 0.0893619 7.15C-0.110638 6.85 0.0493617 6.43 0.329362 6.2C0.609362 5.97 0.959362 5.87 1.28936 5.73C2.41936 5.24 3.20936 4.19 3.85936 3.14C4.50936 2.09 5.07936 0.959999 5.97936 0.119999C6.03936 0.0599989 6.10936 0.01 6.18936 0C6.25936 0 6.32936 0.0399997 6.38936 0.0699997C7.10936 0.52 9.24936 1.25 8.37936 2.14C8.04936 2.47 7.34936 2.58 6.93936 2.81C6.32936 3.17 5.82936 3.66 5.36936 4.2L5.35936 4.21Z" fill="var(--fill-0, black)" id="Vector"/>
</g>
</svg>