<?xml version="1.0" encoding="utf-8"?>
<svg xmlns="http://www.w3.org/2000/svg" fill="none" height="100%" overflow="visible" preserveAspectRatio="none" style="display: block;" viewBox="0 0 239.01 39.28" width="100%">
<g clip-path="url(#clip0_0_1439)" id="Capa_1">
<rect fill="#FFFAF2" height="39.28" width="239.01"/>
<path d="M1.51 0.57H6.8C7.42 0.57 7.98 1.01 8.21 1.69L17.81 30.36C18.05 31.1 18.47 32.14 19.36 32.14C22.37 32.14 23.7 14.68 23.71 11.47C23.71 8.76 23.83 5.62 23.45 2.58C23.32 1.52 24.02 0.57 24.94 0.57H29.22C30.23 0.57 30.96 1.7 30.67 2.82C28.49 11.36 22.92 34.23 20.25 37.56C19.36 38.69 18.09 39.29 16.63 39.29C13.2 39.29 11.5 36.58 10.37 33.57C8.44 28.05 6.61 22.52 4.82 17.05C3.3 12.36 1.74 7.69 0.11 2.98C-0.29 1.82 0.44 0.57 1.51 0.57Z" fill="var(--fill-0, black)" id="Vector"/>
<path d="M38.25 0.51H56.56C57.09 0.51 57.52 1.02 57.52 1.65V5.55C57.52 6.58 56.45 7.09 55.86 6.33C53.75 3.62 50.64 2.61 47.14 2.48C46.67 2.46 46.25 2.84 46.15 3.39C45.42 7.74 45.26 12.09 45.23 16.43C45.23 17.08 45.68 17.61 46.23 17.58C48.7 17.45 50.6 16.8 51.96 15.11C52.56 14.37 53.61 14.88 53.61 15.9V21.1C53.61 22.14 52.55 22.62 51.94 21.88C50.58 20.23 48.84 19.75 46.34 19.58C45.77 19.54 45.29 20.09 45.32 20.77C45.53 25.77 46.24 32.3 48.3 36.66C48.49 37.06 48.85 37.28 49.23 37.25C52.13 36.99 54.73 35.62 56.51 33.35C57.1 32.59 58.17 33.1 58.17 34.13V38.11C58.17 38.74 57.74 39.25 57.21 39.25H38.24C37.71 39.25 37.28 38.74 37.28 38.11V1.66C37.28 1.03 37.71 0.52 38.24 0.52L38.25 0.51Z" fill="var(--fill-0, black)" id="Vector_2"/>
<path d="M65.32 5.22C67.6 4.41 69.28 3 71.02 1.33C71.48 0.89 72.16 0.98 72.53 1.53C76.29 7.18 80.01 12.75 83.68 18.44C84.31 19.42 85.63 18.85 85.59 17.62C85.43 12.62 84.86 6.63 83.12 2.33C82.78 1.49 83.3 0.52 84.08 0.52H86.23C86.82 0.52 87.29 1.09 87.29 1.79V37.47C87.29 38.68 86 39.2 85.38 38.24C79.83 29.63 74.2 19.33 68.52 10.79C67.9 9.85 66.63 10.37 66.62 11.56C66.59 14.37 66.73 17.36 66.73 19.92C66.73 25.32 67.27 31.59 69.06 37.61C69.3 38.43 68.8 39.3 68.06 39.3H65.63C65.04 39.3 64.57 38.73 64.57 38.03V6.43C64.57 5.87 64.88 5.38 65.33 5.22H65.32Z" fill="var(--fill-0, black)" id="Vector_3"/>
<path d="M94.64 37.4V2.33C94.64 1.31 95.37 0.48 96.27 0.48H107.61C118.36 0.48 124.23 9.62 124.23 19.86C124.23 30.1 118.36 39.24 107.61 39.24H96.27C95.37 39.24 94.64 38.41 94.64 37.39V37.4ZM106.24 36.01C106.59 36.8 107.4 37.23 108.17 36.99C114.44 35.01 116.27 25.51 116.27 19.97C116.27 13.86 113.98 2.4 105.86 2.4H105.76C104.95 2.4 104.26 3.04 104.11 3.91C103.34 8.47 103.22 13.11 103.22 17.79C103.22 22.99 103.95 30.92 106.24 36V36.01Z" fill="var(--fill-0, black)" id="Vector_4"/>
<path d="M153.9 0H159.55C160.1 0 160.6 0.4 160.8 1L170.44 29.83C170.68 30.57 171.1 31.61 171.99 31.61C175 31.61 176.93 17.13 176.93 13.91C176.93 11.54 177.12 5.48 176.4 1.95C176.2 0.96 176.83 0 177.7 0H182.08C182.98 0 183.62 1.01 183.37 2.01C181.24 10.36 175.58 33.67 172.88 37.04C171.99 38.18 170.72 38.77 169.26 38.77C165.83 38.77 164.13 36.05 163 33.04C161.07 27.51 159.24 21.98 157.45 16.5C155.89 11.73 154.3 6.96 152.64 2.16C152.29 1.13 152.93 0.01 153.88 0.01L153.9 0Z" fill="var(--fill-0, black)" id="Vector_5"/>
<path d="M194.1 4.76C196.45 3.92 198.02 2.56 199.74 0.9C200.19 0.46 200.88 0.67 201.09 1.32L206.68 18.08C208.84 24.55 211.28 30.88 213.17 37.42C213.36 38.09 212.94 38.78 212.35 38.78H202.33C201.78 38.78 201.38 38.18 201.48 37.54C201.67 36.39 201.75 35.23 201.75 34.04C201.75 32.78 201.66 31.48 201.52 30.2C201.47 29.68 201.1 29.29 200.66 29.29H188.27C187.92 29.29 187.6 29.55 187.46 29.94C186.54 32.69 185.7 35.41 184.71 38.16C184.57 38.54 184.26 38.78 183.91 38.78H183.51C182.9 38.78 182.48 38.04 182.71 37.36L193.55 5.37C193.65 5.08 193.86 4.86 194.12 4.77L194.1 4.76ZM200.84 25.88C199.81 20.61 197.95 15.05 195.71 10.15C195.36 9.39 194.42 9.46 194.15 10.26L188.9 25.74C188.67 26.42 189.09 27.16 189.7 27.16H200C200.56 27.16 200.97 26.54 200.84 25.89V25.88Z" fill="var(--fill-0, black)" id="Vector_6"/>
<path d="M137.87 4.43C140.22 3.59 141.79 2.23 143.51 0.57C143.96 0.13 144.65 0.34 144.86 0.99L150.45 17.75C152.61 24.22 155.05 30.55 156.94 37.09C157.13 37.76 156.71 38.45 156.12 38.45H146.1C145.55 38.45 145.15 37.85 145.25 37.21C145.44 36.06 145.52 34.9 145.52 33.71C145.52 32.45 145.43 31.15 145.29 29.87C145.24 29.35 144.87 28.96 144.43 28.96H132.04C131.69 28.96 131.37 29.22 131.23 29.61C130.31 32.36 129.47 35.08 128.48 37.83C128.34 38.21 128.03 38.45 127.68 38.45H127.28C126.67 38.45 126.25 37.71 126.48 37.03L137.32 5.04C137.42 4.75 137.63 4.53 137.89 4.44L137.87 4.43ZM144.62 25.55C143.59 20.28 141.73 14.72 139.49 9.82C139.14 9.06 138.2 9.13 137.93 9.93L132.68 25.41C132.45 26.09 132.87 26.83 133.48 26.83H143.78C144.34 26.83 144.75 26.21 144.62 25.56V25.55Z" fill="var(--fill-0, black)" id="Vector_7"/>
<path d="M218.63 0H225.67C226.45 0 227.01 0.84 226.83 1.71C225.79 6.78 225.67 11.99 225.67 17.11C225.67 22.53 225.96 29.99 228.32 35.01C228.55 35.49 229 35.77 229.48 35.73C232.31 35.49 235.09 34.66 237.03 32.82C237.82 32.07 239.01 32.69 239.01 33.87V37.37C239.01 38.14 238.47 38.76 237.81 38.76H218.63C217.97 38.76 217.43 38.14 217.43 37.37V1.39C217.43 0.62 217.97 0 218.63 0Z" fill="var(--fill-0, black)" id="Vector_8"/>
</g>
<defs>
<clipPath id="clip0_0_1439">
<rect fill="white" height="39.28" width="239.01"/>
</clipPath>
</defs>
</svg>