<?xml version="1.0" encoding="utf-8"?>
<svg xmlns="http://www.w3.org/2000/svg" fill="none" height="100%" overflow="visible" preserveAspectRatio="none" style="display: block;" viewBox="0 0 9.47008 6.33025" width="100%">
<g id="_Repeticin_radial_-5">
<path d="M5.79516 3.95156C5.00516 4.56156 4.28516 5.27155 3.42516 5.76155C2.55516 6.25155 1.49516 6.52155 0.56516 6.17155C0.34516 6.09155 0.11516 5.95155 0.0351599 5.73155C-0.0948401 5.40155 0.15516 5.02155 0.46516 4.85155C0.77516 4.68155 1.14516 4.66155 1.49516 4.59155C2.70516 4.34155 3.69516 3.49155 4.54516 2.59155C5.39516 1.69155 6.18516 0.711554 7.24516 0.0715539C7.31516 0.0315539 7.39516 -0.00844582 7.47516 0.00155418C7.54516 0.0115542 7.60516 0.0615548 7.65516 0.111555C8.26516 0.701555 10.2152 1.86155 9.16516 2.55155C8.77516 2.81155 8.06516 2.76155 7.61516 2.91155C6.94516 3.13155 6.35516 3.51155 5.79516 3.94155V3.95156Z" fill="var(--fill-0, black)" id="Vector"/>
</g>
</svg>