<?xml version="1.0" encoding="utf-8"?>
<svg xmlns="http://www.w3.org/2000/svg" fill="none" height="100%" overflow="visible" preserveAspectRatio="none" style="display: block;" viewBox="0 0 47.0361 38.3655" width="100%">
<path d="M44.6761 0.629997C44.6661 0.809997 44.7661 1.12 44.8261 1.16L44.8861 1.1L45.0161 0.98L45.2661 0.739998L45.7661 1.06C34.8161 1.22 22.9761 1.54 11.9861 1.74C11.2461 1.77 9.09612 1.79 8.36612 1.81C7.97612 1.75 7.57612 1.62 7.15612 1.66L7.68612 1.41C-0.0738769 11.02 -0.923875 24.06 4.74612 34.93C5.07612 35.65 5.54612 36.29 5.58612 37.16L4.91612 36.76C16.0361 36.36 33.5261 35.95 44.7761 35.67C45.3061 35.7 45.7061 35.89 46.1161 36.15L44.4961 37.65C43.4561 34.58 42.3661 31.53 41.6361 28.37C40.1561 22.11 39.6861 15.49 41.3161 9.2C42.0161 6.56 43.6861 2.79 44.6761 0.619999V0.629997ZM47.0261 0.869999C45.6361 2.8 44.7061 3.63 43.9761 5.11C40.6461 12.25 40.8361 20.56 42.9661 28.04C43.8561 31.03 44.9061 34.03 46.5761 36.67C47.1761 37.69 45.9361 38.83 44.9561 38.17C44.8261 38.11 44.7261 38.07 44.6061 38.04C44.6261 38.04 44.5661 38.04 44.6961 38.05H44.8061C33.5061 38.1 16.1061 38.35 4.93612 38.27C4.85612 38.31 4.75612 38.29 4.68612 38.24C3.82612 37.63 3.33613 36.69 2.96613 35.76C-1.95387 24.44 -0.763877 10.54 6.61612 0.509998C6.88612 0.149998 7.35612 0.3 7.74612 0.23C7.94612 0.19 8.14612 0.079998 8.34612 0.079998H9.55613L11.9661 0.0699997C22.9661 0.0299997 34.7861 0.07 45.7561 0L46.2561 0.32L46.5961 0.299999H46.7661L46.8561 0.279999C46.9261 0.349999 47.0361 0.659999 47.0361 0.869999H47.0261Z" fill="var(--fill-0, white)" id="Vector"/>
</svg>