<?xml version="1.0" encoding="utf-8"?>
<svg xmlns="http://www.w3.org/2000/svg" fill="none" height="100%" overflow="visible" preserveAspectRatio="none" style="display: block;" viewBox="0 0 10.1595 3.68295" width="100%">
<g id="_Repeticin_radial_-22">
<path d="M4.15907 0.71479C5.12907 0.47479 6.06907 0.12479 7.06907 0.0247898C8.05907 -0.0752102 9.13907 0.114791 9.84907 0.824791C10.0191 0.994791 10.1691 1.20479 10.1591 1.44479C10.1391 1.80479 9.76907 2.04479 9.40907 2.07479C9.04907 2.10479 8.70907 1.96479 8.35907 1.89479C7.14907 1.62479 5.89907 2.00479 4.75907 2.47479C3.61907 2.94479 2.48907 3.52479 1.26907 3.67479C1.18907 3.68479 1.09907 3.69479 1.02907 3.64479C0.969067 3.60479 0.939068 3.53479 0.909068 3.46479C0.589068 2.68479 -0.710932 0.82479 0.519068 0.62479C0.979068 0.54479 1.60907 0.874791 2.07907 0.924791C2.77907 0.994791 3.47907 0.894791 4.15907 0.724791V0.71479Z" fill="var(--fill-0, black)" id="Vector"/>
</g>
</svg>