<?xml version="1.0" encoding="utf-8"?>
<svg xmlns="http://www.w3.org/2000/svg" fill="none" height="100%" overflow="visible" preserveAspectRatio="none" style="display: block;" viewBox="0 0 43.79 10.79" width="100%">
<path d="M2.38 0.220001L43.79 0C43.67 2.93 43.47 4.14 43.47 4.14L40.82 10.29L35.71 10.13C35.14 9.34 34.57 8.56 33.48 8.59C32.39 8.62 31.83 9.43 31.3 10.26L26.82 10.39C26.24 9.58 25.66 8.76 24.54 8.79C23.42 8.82 22.87 9.68 22.32 10.52L17.92 10.65C17.33 9.82 16.75 8.96001 15.6 8.99001C14.45 9.02001 13.9 9.92 13.34 10.79L9.02 9.66C8.41 8.81 7.83 7.91 6.66 7.94C5.49 7.97 4.94 8.91 4.36 9.8L0.439999 9.91L0 10.45L2.42 0.240005L2.38 0.220001Z" fill="var(--fill-0, white)" id="Vector"/>
</svg>