<?xml version="1.0" encoding="utf-8"?>
<svg xmlns="http://www.w3.org/2000/svg" fill="none" height="100%" overflow="visible" preserveAspectRatio="none" style="display: block;" viewBox="0 0 8.81931 6.61956" width="100%">
<g id="_Repeticin_radial_-10">
<path d="M4.56042 4.32175C3.64042 3.95175 2.66042 3.67175 1.80042 3.17175C0.940419 2.67175 0.180419 1.88175 0.0204189 0.89175C-0.0195811 0.66175 -0.00958097 0.391751 0.130419 0.211751C0.350419 -0.068249 0.800419 -0.0482487 1.10042 0.141751C1.40042 0.331751 1.60042 0.641751 1.84042 0.911751C2.66042 1.84175 3.89042 2.26175 5.10042 2.55175C6.31042 2.84175 7.55042 3.03175 8.63042 3.63175C8.70042 3.67175 8.78042 3.72175 8.81042 3.79175C8.83042 3.86175 8.81042 3.93175 8.81042 4.00175C8.61042 4.82175 8.57042 7.09175 7.46042 6.53175C7.04042 6.32175 6.73042 5.68175 6.37042 5.37175C5.84042 4.90175 5.22042 4.57175 4.57042 4.31175L4.56042 4.32175Z" fill="var(--fill-0, black)" id="Vector"/>
</g>
</svg>